<?xml version="1.0" encoding="utf-8"?>
<!-- Generator: Adobe Illustrator 21.0.2, SVG Export Plug-In . SVG Version: 6.00 Build 0)  -->
<svg version="1.1" id="Слой_1" xmlns="http://www.w3.org/2000/svg" xmlns:xlink="http://www.w3.org/1999/xlink" x="0px" y="0px"
	 viewBox="0 0 451.1 431.5" style="enable-background:new 0 0 451.1 431.5;" xml:space="preserve">
<style type="text/css">
	.st0{fill:#FFFFFF;}
	.st1{opacity:0.18;fill:#75B4A2;}
	.st2{fill:#75B4A2;}
	.st3{fill:#67A191;}
	.st4{opacity:0.18;fill:#DE9260;}
	.st5{fill:#CB8456;}
	.st6{fill:#C26F47;}
	.st7{fill:#D09B58;}
	.st8{fill:#B46E62;}
	.st9{fill:#ECF6FE;}
	.st10{fill:#67A3DA;}
	.st11{fill:#79C2DC;}
	.st12{fill:none;stroke:#D1DBE1;stroke-width:2;stroke-miterlimit:10;}
	.st13{fill:#9BB3C3;}
	.st14{fill:#E0E6E4;}
	.st15{fill:#7A94A7;}
	.st16{fill:#B4CAD9;}
	.st17{fill:#568BBA;}
	.st18{fill:#65A6BC;}
</style>
<polygon id="XMLID_340_" class="st0" points="60,78.6 58.9,74.9 55.2,73.8 58.9,72.7 60,69 61.2,72.7 64.9,73.8 61.2,74.9 "/>
<polygon id="XMLID_339_" class="st0" points="4.8,243.3 3.7,239.6 0,238.5 3.7,237.4 4.8,233.7 5.9,237.4 9.6,238.5 5.9,239.6 "/>
<polygon id="XMLID_338_" class="st0" points="361.6,10.4 360.5,6.7 356.8,5.6 360.5,4.5 361.6,0.8 362.7,4.5 366.4,5.6 362.7,6.7 
	"/>
<polygon id="XMLID_336_" class="st0" points="8.6,47.1 5,45.7 1.8,47.9 3.2,44.3 1,41.2 4.6,42.6 7.8,40.4 6.4,44 "/>
<polygon id="XMLID_335_" class="st0" points="110.5,190.1 106.9,188.7 103.7,190.9 105.1,187.3 102.9,184.2 106.5,185.5 
	109.6,183.3 108.2,186.9 "/>
<polygon id="XMLID_334_" class="st0" points="267.3,267 263.7,265.6 260.6,267.8 262,264.2 259.7,261 263.3,262.4 266.5,260.2 
	265.1,263.8 "/>
<polygon id="XMLID_333_" class="st0" points="424.2,320.2 425.1,316.4 422.4,313.6 426.2,314.5 429,311.8 428.1,315.6 430.8,318.4 
	427,317.5 "/>
<polygon id="XMLID_332_" class="st0" points="101.9,340.6 100.7,336.9 97.1,335.8 100.7,334.7 101.9,331 103,334.7 106.7,335.8 
	103,336.9 "/>
<polygon id="XMLID_331_" class="st0" points="322.7,378.2 321.6,374.5 317.9,373.4 321.6,372.3 322.7,368.6 323.8,372.3 
	327.5,373.4 323.8,374.5 "/>
<polygon id="XMLID_330_" class="st0" points="55.3,216 51.4,213.8 47.4,215.8 49.6,211.9 47.6,207.9 51.5,210.1 55.6,208.1 
	53.3,212 "/>
<polygon id="XMLID_329_" class="st0" points="154.6,23.2 146.3,23.3 141.8,30.2 141.7,21.9 134.8,17.3 143.1,17.3 147.6,10.4 
	147.7,18.7 "/>
<polygon id="XMLID_322_" class="st0" points="391,53.8 396.2,59.3 402.8,55.7 397.2,60.8 400.9,67.4 395.8,61.9 389.1,65.5 
	394.7,60.4 "/>
<polygon id="XMLID_321_" class="st0" points="432.7,168.1 437.8,173.6 444.4,170 438.9,175.1 442.5,181.7 437.4,176.2 430.8,179.8 
	436.3,174.7 "/>
<polygon id="XMLID_320_" class="st0" points="366.4,414.7 367.3,422.2 374.8,423.1 367.3,424 366.4,431.5 365.5,424 358,423.1 
	365.5,422.2 "/>
<polygon id="XMLID_319_" class="st0" points="44,406.3 44.9,413.8 52.4,414.7 44.9,415.6 44,423.1 43.1,415.6 35.6,414.7 
	43.1,413.8 "/>
<g id="XMLID_313_">
	<polygon id="XMLID_318_" class="st0" points="126.9,95.7 124,87.9 115.9,86 123.7,83.1 125.6,75.1 128.5,82.8 136.6,84.7 
		128.8,87.6 	"/>
	<circle id="XMLID_317_" class="st1" cx="121.4" cy="92.9" r="42.6"/>
	<circle id="XMLID_316_" class="st1" cx="121.4" cy="92.9" r="37.3"/>
	<circle id="XMLID_315_" class="st2" cx="121.4" cy="92.9" r="30.4"/>
	<path id="XMLID_314_" class="st3" d="M133.4,111.2c-16.8,0-30.4-13.6-30.4-30.4c0-5.3,1.4-10.3,3.7-14.6C97.4,71.4,91,81.4,91,92.9
		c0,16.8,13.6,30.4,30.4,30.4c11.5,0,21.5-6.4,26.6-15.8C143.7,109.9,138.7,111.2,133.4,111.2z"/>
</g>
<g id="XMLID_269_">
	<polygon id="XMLID_306_" class="st0" points="331.3,137.9 327.7,136.5 324.6,138.7 326,135.1 323.7,131.9 327.3,133.3 330.5,131.1 
		329.1,134.7 	"/>
	<polygon id="XMLID_305_" class="st0" points="352.4,222.2 349,214.6 340.8,213.3 348.4,209.9 349.7,201.7 353.1,209.3 361.3,210.6 
		353.7,214 	"/>
	<polygon id="XMLID_304_" class="st0" points="298.6,134.9 299.5,142.4 307.1,143.3 299.5,144.2 298.6,151.7 297.7,144.2 
		290.2,143.3 297.7,142.4 	"/>
	<circle id="XMLID_303_" class="st4" cx="311.4" cy="139.7" r="139.7"/>
	<circle id="XMLID_302_" class="st4" cx="311.4" cy="139.7" r="119.4"/>
	<path id="XMLID_301_" class="st5" d="M411.5,139.7c0,4.5-0.3,9-0.9,13.4c-0.2,1.7-0.5,3.3-0.8,4.9c-1.5,7.9-3.9,15.5-7.1,22.7
		c-0.7,1.5-1.4,3-2.2,4.5c-3.8,7.4-8.5,14.3-14,20.5c-1.4,1.6-2.8,3.1-4.3,4.6c-18.1,18.2-43.2,29.5-71,29.5
		c-22.6,0-43.5-7.5-60.3-20.2c-1.9-1.4-3.8-3-5.6-4.5c-9.3-8.2-17.1-18.1-22.9-29.2c-1.2-2.3-2.3-4.5-3.3-6.9
		c-3.7-8.7-6.3-18.1-7.4-27.8c-0.2-1.8-0.4-3.5-0.5-5.3c-0.1-2-0.2-4.1-0.2-6.2c0-6.4,0.6-12.6,1.7-18.6c0.3-1.7,0.7-3.3,1.1-4.9
		c1.8-7.6,4.5-14.9,8-21.7c0.8-1.5,1.5-3,2.4-4.4c4.6-8.1,10.4-15.5,17-22c1.8-1.8,3.7-3.5,5.7-5.1c17.4-14.6,39.8-23.4,64.3-23.4
		c19.3,0,37.4,5.5,52.7,15c2,1.3,4,2.6,5.9,4c10.5,7.6,19.5,17.2,26.3,28.2c1.5,2.3,2.8,4.7,4.1,7.2c4.5,8.8,7.8,18.4,9.6,28.6
		c0.3,1.8,0.6,3.5,0.8,5.3v0C411.2,131.7,411.5,135.7,411.5,139.7z"/>
	<path id="XMLID_300_" class="st6" d="M343.1,208C287.8,208,243,163.2,243,108c0-19.5,5.6-37.7,15.2-53.1
		c-28.2,17.7-47,49.1-47,84.8c0,55.3,44.8,100.1,100.1,100.1c35.8,0,67.1-18.8,84.8-47C380.8,202.5,362.6,208,343.1,208z"/>
	<g id="XMLID_295_">
		<g>
			<path id="XMLID_20_" class="st7" d="M370,58.6c-6,0.8-9.9,2.5-13.9,4.3c-5.8,2.6-11.7,5.2-23.5,5.2s-17.7-2.7-23.5-5.2
				c-5.5-2.5-10.7-4.8-21.4-4.8c-10.7,0-15.9,2.3-21.4,4.8c-5.8,2.6-11.7,5.2-23.5,5.2c-0.5,0-0.9,0-1.4,0c1.8-1.8,3.7-3.5,5.7-5.1
				c7.9-0.5,12.4-2.5,17.1-4.6c5.8-2.6,11.7-5.2,23.5-5.2c11.8,0,17.7,2.7,23.5,5.2c5.5,2.5,10.7,4.8,21.4,4.8
				c10.7,0,15.9-2.3,21.4-4.8c3-1.4,6.1-2.7,10.1-3.7C366.1,55.9,368.1,57.2,370,58.6z"/>
		</g>
	</g>
	<g id="XMLID_290_">
		<g>
			<path id="XMLID_18_" class="st7" d="M400.4,93.9c-0.5-0.2-1-0.4-1.5-0.6c-5.5-2.5-10.7-4.8-21.4-4.8c-10.7,0-15.9,2.3-21.4,4.8
				c-5.8,2.6-11.7,5.2-23.5,5.2s-17.7-2.7-23.5-5.2c-5.5-2.5-10.7-4.8-21.4-4.8c-10.7,0-15.9,2.3-21.4,4.8
				c-5.8,2.6-11.7,5.2-23.5,5.2c-9.9,0-15.7-1.9-20.7-4c0.8-1.5,1.5-3,2.4-4.4c4.6,1.9,9.7,3.4,18.4,3.4c10.7,0,15.9-2.3,21.4-4.8
				c5.8-2.6,11.7-5.2,23.5-5.2c11.8,0,17.7,2.7,23.5,5.2c5.5,2.5,10.7,4.8,21.4,4.8c10.7,0,15.9-2.3,21.4-4.8
				c5.8-2.6,11.7-5.2,23.5-5.2c8.7,0,14.2,1.4,18.8,3.2C397.8,89.1,399.1,91.5,400.4,93.9z"/>
		</g>
	</g>
	<g id="XMLID_285_">
		<g>
			<path id="XMLID_16_" class="st7" d="M410.8,127.8c-4.8-1-8.4-2.6-11.8-4.1c-5.5-2.5-10.7-4.8-21.4-4.8c-10.7,0-15.9,2.3-21.4,4.8
				c-5.8,2.6-11.7,5.2-23.5,5.2s-17.7-2.6-23.5-5.2c-5.5-2.5-10.7-4.8-21.4-4.8c-10.7,0-15.9,2.3-21.4,4.8
				c-5.8,2.6-11.7,5.2-23.5,5.2c-11.8,0-17.7-2.6-23.5-5.2c-2.1-0.9-4.1-1.8-6.3-2.6c0.3-1.7,0.7-3.3,1.1-4.9c2.7,0.9,5,1.9,7.3,2.9
				c5.5,2.5,10.7,4.8,21.4,4.8c10.7,0,15.9-2.3,21.4-4.8c5.8-2.6,11.7-5.2,23.5-5.2c11.8,0,17.7,2.7,23.5,5.2
				c5.5,2.5,10.7,4.8,21.4,4.8c10.7,0,15.9-2.3,21.4-4.8c5.8-2.6,11.7-5.2,23.5-5.2c11.8,0,17.7,2.7,23.5,5.2c2.8,1.3,5.6,2.5,9,3.4
				C410.3,124.2,410.5,126,410.8,127.8z"/>
		</g>
	</g>
	<g id="XMLID_280_">
		<g>
			<path id="XMLID_14_" class="st7" d="M410.6,153c-0.2,1.7-0.5,3.3-0.8,4.9c-4.3-1-7.6-2.5-10.8-3.9c-5.5-2.5-10.7-4.8-21.4-4.8
				c-10.7,0-15.9,2.3-21.4,4.8c-5.8,2.6-11.7,5.2-23.5,5.2s-17.7-2.7-23.5-5.2c-5.5-2.5-10.7-4.8-21.4-4.8
				c-10.7,0-15.9,2.3-21.4,4.8c-5.8,2.6-11.7,5.2-23.5,5.2c-11.8,0-17.7-2.7-23.5-5.2c-2.4-1.1-4.7-2.1-7.4-2.9
				c-0.2-1.8-0.4-3.5-0.5-5.3c3.9,1,6.9,2.3,9.9,3.7c5.5,2.5,10.7,4.8,21.4,4.8c10.7,0,15.9-2.3,21.4-4.8c5.8-2.6,11.7-5.2,23.5-5.2
				c11.8,0,17.7,2.6,23.5,5.2c5.5,2.5,10.7,4.8,21.4,4.8c10.7,0,15.9-2.3,21.4-4.8c5.8-2.6,11.7-5.2,23.5-5.2
				c11.8,0,17.7,2.6,23.5,5.2C404,150.8,406.9,152.1,410.6,153z"/>
		</g>
	</g>
	<g id="XMLID_275_">
		<g>
			<path id="XMLID_12_" class="st7" d="M402.7,180.7c-0.7,1.5-1.4,3-2.2,4.5c-0.5-0.2-1.1-0.5-1.6-0.7c-5.5-2.5-10.7-4.8-21.4-4.8
				c-10.7,0-15.9,2.3-21.4,4.8c-5.8,2.6-11.7,5.2-23.5,5.2s-17.7-2.7-23.5-5.2c-5.5-2.5-10.7-4.8-21.4-4.8
				c-10.7,0-15.9,2.3-21.4,4.8c-5.8,2.6-11.7,5.2-23.5,5.2c-9.6,0-15.3-1.8-20.2-3.8c-1.2-2.3-2.3-4.5-3.3-6.9
				c0.7,0.3,1.4,0.6,2,0.9c5.5,2.5,10.7,4.8,21.4,4.8c10.7,0,15.9-2.3,21.4-4.8c5.8-2.6,11.7-5.2,23.5-5.2c11.8,0,17.7,2.7,23.5,5.2
				c5.5,2.5,10.7,4.8,21.4,4.8c10.7,0,15.9-2.3,21.4-4.8c5.8-2.6,11.7-5.2,23.5-5.2c11.8,0,17.7,2.7,23.5,5.2
				C401.6,180.2,402.1,180.4,402.7,180.7z"/>
		</g>
	</g>
	<g id="XMLID_270_">
		<g>
			<path id="XMLID_10_" class="st7" d="M386.6,205.7c-1.4,1.6-2.8,3.1-4.3,4.6c-1.5-0.1-3.1-0.2-4.8-0.2c-10.7,0-15.9,2.3-21.4,4.8
				c-5.8,2.6-11.7,5.2-23.5,5.2s-17.7-2.6-23.5-5.2c-5.5-2.5-10.7-4.8-21.4-4.8c-10.7,0-15.9,2.3-21.4,4.8
				c-4.2,1.9-8.6,3.8-15.2,4.7c-1.9-1.4-3.8-3-5.6-4.5c8.9-0.4,13.7-2.5,18.8-4.7c5.8-2.6,11.7-5.2,23.5-5.2
				c11.8,0,17.7,2.7,23.5,5.2c5.5,2.5,10.7,4.8,21.4,4.8c10.7,0,15.9-2.3,21.4-4.8c5.8-2.6,11.7-5.2,23.5-5.2
				C381,205.1,384,205.3,386.6,205.7z"/>
		</g>
	</g>
</g>
<g id="XMLID_254_">
	<path id="XMLID_268_" class="st8" d="M435.7,243.6c0-0.7-0.1-1.5-0.1-2.2l-0.5-5.9l-5.8,1c-0.7,0.1-1.5,0.3-2.2,0.4
		c-8.4,1.7-16.4,4.9-23.9,9.2l29.6,23C435.1,260.8,436.1,252.2,435.7,243.6z"/>
	<polygon id="XMLID_267_" class="st8" points="361.6,296.1 346.6,299.5 334.7,314.9 358.1,316.3 	"/>
	<polygon id="XMLID_266_" class="st8" points="394.7,321.8 395.2,337.1 383.2,352.5 376,330.2 	"/>
	<path id="XMLID_265_" class="st8" d="M404.1,251.5c-17.3,11.8-32.4,30-41.2,50.3l-8,18.4l9.3,7.2l9.3,7.2l15.8-12.3
		c17.5-13.6,31.3-32.7,38.4-52.4L404.1,251.5z"/>
	<path id="XMLID_264_" class="st9" d="M403.1,246.2c-18.7,10.8-33.9,28.8-41.5,50l-7,19.1l11.6,9l11.6,9l16.8-11.5
		c18.6-12.7,32.3-32,38-52.7L403.1,246.2z"/>
	
		<rect id="XMLID_263_" x="367.5" y="304.4" transform="matrix(0.7904 0.6126 -0.6126 0.7904 273.8309 -158.8166)" class="st8" width="3" height="32.8"/>
	<g id="XMLID_255_">
		
			<ellipse id="XMLID_262_" transform="matrix(0.6126 -0.7904 0.7904 0.6126 -60.423 426.2878)" class="st8" cx="404.6" cy="274.8" rx="15.3" ry="15.3"/>
		<path id="XMLID_259_" class="st10" d="M402.5,263.7c-2.7,0.5-5.2,1.9-6.9,4.2c-3.9,5-3,12.2,2,16c3.6,2.8,8.2,3.1,12,1.2
			c-2.2-2.6-4-5.6-5.5-8.9C402.4,272.5,401.9,268,402.5,263.7z"/>
		<path id="XMLID_256_" class="st11" d="M411.6,265.8c-2.7-2.1-6-2.8-9.1-2.2c-0.6,4.3-0.1,8.8,1.5,12.5c1.5,3.4,3.4,6.3,5.5,8.9
			c1.5-0.7,2.9-1.8,4-3.3C417.5,276.9,416.6,269.7,411.6,265.8z"/>
	</g>
</g>
<path id="XMLID_253_" class="st12" d="M153.2,270.3h48c35,0,63.3,28.4,63.3,63.3v0c0,35,28.4,63.3,63.3,63.3h17.6
	c36.7,0,66.5-29.8,66.5-66.5v-32.3"/>
<g id="XMLID_184_">
	<path id="XMLID_252_" class="st13" d="M167.8,322.8L141.1,338c-11.9,6.8-27,2.6-33.8-9.2l-23-40.3c-7.5-13.2-2.9-30.1,10.3-37.6
		l21.8-12.4c13.2-7.5,30.1-2.9,37.6,10.3l23,40.3C183.8,300.9,179.7,316,167.8,322.8z"/>
	<g id="XMLID_185_">
		<g id="XMLID_247_">
			<path id="XMLID_249_" class="st14" d="M93.8,358.4l40.1,5.4l2.1-15.9l-24.2-3.2C103,343.4,94.9,349.6,93.8,358.4L93.8,358.4z"/>
			
				<rect id="XMLID_248_" x="92.9" y="361" transform="matrix(0.9912 0.1327 -0.1327 0.9912 49.5823 -11.7849)" class="st15" width="40.5" height="9.9"/>
		</g>
		<g id="XMLID_240_">
			<path id="XMLID_244_" class="st14" d="M117.3,302.2l-5.7,42.4l24.4,3.3l3-22.2c0.7-5.2,4-9.2,8.4-11.1c-2.3-3.1-4.7-6.2-7.3-9.2
				L117.3,302.2z"/>
			<path id="XMLID_243_" class="st0" d="M149.6,283.8l-9.1,21.5l-0.3,0c2.6,3,4.9,6.1,7.3,9.2c3.4-1.5,7.5-1.7,11.3-0.1l20.7,8.8
				l9.6-22.6L149.6,283.8z"/>
			<path id="XMLID_242_" class="st0" d="M210,292.1l-15.8,37.3l-14.8-6.3l9.5-22.5C192.3,292.5,201.8,288.7,210,292.1L210,292.1z"/>
			
				<rect id="XMLID_241_" x="186.4" y="307.8" transform="matrix(-0.3905 0.9206 -0.9206 -0.3905 575.1912 244.5819)" class="st16" width="40.5" height="9.9"/>
		</g>
		<g id="XMLID_204_">
			<g id="XMLID_238_">
				<path id="XMLID_239_" class="st0" d="M161.2,258.5l-24.6,14c-4.8,2.7-10.9,1.1-13.6-3.7c-2.7-4.8-1.1-10.9,3.7-13.6l24.6-14
					c1.9-1.1,2.6-3.5,1.5-5.4l-12.4-21.7c-2.7-4.8-1.1-10.9,3.7-13.6c4.8-2.7,10.9-1.1,13.6,3.7l12.4,21.7
					C176.8,237.2,172.7,251.9,161.2,258.5z"/>
			</g>
			<g id="XMLID_233_">
				<g>
					<path id="XMLID_9_" class="st14" d="M88,300.3l24.6-14c4.8-2.7,6.5-8.8,3.7-13.6c-2.7-4.8-8.8-6.5-13.6-3.7l-24.6,14
						c-1.9,1.1-4.4,0.4-5.4-1.5l-12.4-21.7c-2.7-4.8-8.8-6.5-13.6-3.7c-4.8,2.7-6.5,8.8-3.7,13.6l12.4,21.7
						C61.8,302.8,76.5,306.8,88,300.3z"/>
				</g>
			</g>
			<polygon id="XMLID_232_" class="st0" points="122.3,220 121.2,216.3 117.5,215.2 121.2,214.1 122.3,210.4 123.4,214.1 
				127.1,215.2 123.4,216.3 			"/>
			<path id="XMLID_229_" class="st0" d="M168.2,291.5L114,322.4l-18.5-32.4c-4.9-8.6-1.9-19.6,6.7-24.5l23-13.1
				c8.6-4.9,19.6-1.9,24.5,6.7L168.2,291.5z"/>
			<path id="XMLID_226_" class="st14" d="M128.6,322.4l-23.2-39.6c-3.6-6.4-2.9-14.1,1.3-19.7l-4.3,2.5c-8.6,4.9-11.6,15.9-6.7,24.5
				l18.5,32.4H128.6z"/>
			<path id="XMLID_225_" class="st16" d="M132.7,258l-28.1,16c-3.6,2.1-8.3,0.8-10.4-2.8l0,0c-2.1-3.6-0.8-8.3,2.8-10.4l28.1-16
				c3.6-2.1,8.3-0.8,10.4,2.8l0,0C137.6,251.2,136.3,255.9,132.7,258z"/>
			
				<ellipse id="XMLID_222_" transform="matrix(0.8687 -0.4954 0.4954 0.8687 -103.4446 80.9195)" class="st0" cx="100.9" cy="235.6" rx="35.6" ry="32.3"/>
			<path id="XMLID_219_" class="st14" d="M135.6,229.7c-1.1,10.9-7.7,21.6-18.7,27.8c-17.1,9.7-38.1,5.1-47-10.5
				c-2.1-3.7-3.3-7.7-3.7-11.8c-0.6,6.1,0.6,12.4,3.7,17.9c8.9,15.5,29.9,20.2,47,10.5C129.9,256.3,136.9,242.6,135.6,229.7z"/>
			<path id="XMLID_215_" class="st17" d="M119.7,218.7l5.3,9.3c4,7,1.5,16-5.5,20l-17.4,9.9c-7,4-16,1.5-20-5.5l-5.3-9.3
				c-4-7-1.5-16,5.5-20l17.4-9.9C106.7,209.2,115.7,211.7,119.7,218.7z"/>
			<path id="XMLID_213_" class="st18" d="M119.7,218.7l2.9,5.1c-5.4,5.2-12.2,10.4-20,14.8s-15.7,7.7-22.9,9.6l-2.9-5.1
				c-4-7-1.5-16,5.5-20l17.4-9.9C106.7,209.2,115.7,211.7,119.7,218.7z"/>
			<path id="XMLID_209_" class="st15" d="M76.1,264.1L76.1,264.1c-2.3,1.3-5.3,0.5-6.7-1.8l-6-10.4c-1.3-2.3-0.5-5.3,1.8-6.7l0,0
				c2.3-1.3,5.3-0.5,6.7,1.8l6,10.4C79.3,259.7,78.5,262.7,76.1,264.1z"/>
			<path id="XMLID_206_" class="st16" d="M138,228.8L138,228.8c-2.3,1.3-5.3,0.5-6.7-1.8l-6-10.4c-1.3-2.3-0.5-5.3,1.8-6.7l0,0
				c2.3-1.3,5.3-0.5,6.7,1.8l6,10.4C141.2,224.4,140.4,227.4,138,228.8z"/>
			<polygon id="XMLID_205_" class="st16" points="89.3,265.2 90.7,264.4 90.7,264.4 89.3,265.2 			"/>
		</g>
		
			<rect id="XMLID_203_" x="109.8" y="273.2" transform="matrix(0.8687 -0.4954 0.4954 0.8687 -123.5855 101.0521)" class="st16" width="38" height="20.9"/>
		
			<ellipse id="XMLID_202_" transform="matrix(0.8687 -0.4954 0.4954 0.8687 -120.6859 107.2032)" class="st0" cx="141.9" cy="281.2" rx="3.2" ry="3.2"/>
		
			<ellipse id="XMLID_201_" transform="matrix(0.8687 -0.4954 0.4954 0.8687 -117.4566 104.0255)" class="st0" cx="137.5" cy="273.6" rx="1.3" ry="1.3"/>
		
			<rect id="XMLID_200_" x="113.6" y="280.9" transform="matrix(0.8687 -0.4954 0.4954 0.8687 -123.6235 97.1257)" class="st0" width="15.6" height="1.7"/>
		
			<rect id="XMLID_199_" x="116.2" y="285.5" transform="matrix(0.8687 -0.4954 0.4954 0.8687 -125.5673 99.0386)" class="st0" width="15.6" height="1.7"/>
		
			<rect id="XMLID_198_" x="118.9" y="290.1" transform="matrix(0.8687 -0.4954 0.4954 0.8687 -127.511 100.9515)" class="st0" width="15.6" height="1.7"/>
		<path id="XMLID_195_" class="st15" d="M66.1,274.3l-14.3,8.1c-1.6,0.9-3.7,0.4-4.6-1.3l-0.6-1c-0.9-1.6-0.4-3.7,1.3-4.6l14.3-8.1
			c1.6-0.9,3.7-0.4,4.6,1.3l0.6,1C68.3,271.4,67.7,273.4,66.1,274.3z"/>
		<path id="XMLID_192_" class="st16" d="M164.7,218.1l-14.3,8.1c-1.6,0.9-3.7,0.4-4.6-1.3l-0.6-1c-0.9-1.6-0.4-3.7,1.3-4.6l14.3-8.1
			c1.6-0.9,3.7-0.4,4.6,1.3l0.6,1C166.9,215.1,166.3,217.2,164.7,218.1z"/>
		<path id="XMLID_189_" class="st15" d="M139.8,327.1l-26.8-1.3c-1.6-0.1-2.8-1.4-2.7-3l0,0c0.1-1.6,1.4-2.8,3-2.7l26.8,1.3
			c1.6,0.1,2.8,1.4,2.7,3l0,0C142.7,325.9,141.3,327.2,139.8,327.1z"/>
		<path id="XMLID_186_" class="st16" d="M160.9,315l12.6-23.7c0.7-1.4,0.2-3.1-1.2-3.9l0,0c-1.4-0.7-3.1-0.2-3.9,1.2l-12.6,23.7
			c-0.7,1.4-0.2,3.1,1.2,3.9l0,0C158.4,317,160.2,316.4,160.9,315z"/>
	</g>
</g>
</svg>
