<?xml version="1.0" encoding="utf-8"?>
<!-- Generator: Adobe Illustrator 21.0.2, SVG Export Plug-In . SVG Version: 6.00 Build 0)  -->
<svg version="1.1" id="Слой_1" xmlns="http://www.w3.org/2000/svg" xmlns:xlink="http://www.w3.org/1999/xlink" x="0px" y="0px"
	 viewBox="0 0 233.8 301.9" style="enable-background:new 0 0 233.8 301.9;" xml:space="preserve">
<style type="text/css">
	.st0{fill:#E1E2E3;}
	.st1{fill:#5F63A8;}
	.st2{fill:#927F78;}
	.st3{fill:#BD8879;}
	.st4{fill:#5F4B32;}
	.st5{fill:#B2B3B3;}
	.st6{fill:#F0C28D;}
	.st7{fill:#7E6D68;}
	.st8{fill:#F0BC44;}
	.st9{fill:#ECB580;}
	.st10{fill:#8D6D45;}
	.st11{fill:#F6E246;}
	.st12{fill:#E69D44;}
	.st13{fill:#695C56;}
	.st14{fill:#AE7E6E;}
	.st15{fill:#9FA1A1;}
	.st16{fill:#73593B;}
	.st17{fill:#52412A;}
	.st18{fill:#FFFFFF;}
	.st19{fill:#1F1C1C;}
	.st20{fill:none;stroke:#1F1C1C;stroke-linecap:round;stroke-linejoin:round;stroke-miterlimit:10;}
</style>
<ellipse class="st0" cx="113.6" cy="286.5" rx="83.3" ry="15.4"/>
<path class="st1" d="M125.8,0C-4.5,0-6.2,259.1,124.6,270.4C260.6,282.2,279.1,0,125.8,0z"/>
<g>
	<path class="st2" d="M72.5,46.3c-4.1-1.5-8.6-3.6-12.8-6.4c-0.1,0.1-0.2,0.2-0.4,0.3c-9.9,4.8-12,13.1-12,13.2c0,0,0,0.1-0.1,0.1
		C49.4,58.8,53.3,64.4,60,69C60.6,65.8,63.3,54.7,72.5,46.3z"/>
	<path class="st3" d="M68.6,219.5c-1.1-1.8-4.3-2.9-6.6-2.9c-1.2,0-2,0.3-2.2,0.6c-1.2,1.8-6.3,6.9-12.2,12.7
		c-6.4,6.3-16.1,15.9-16.5,17.6c0,1.4,4.9,4.1,7.1,4.1c0.1,0,0.2,0,0.2,0c1.2-0.8,27.7-23.6,30.3-29.4
		C69.2,221.3,69.1,220.4,68.6,219.5z"/>
	<path class="st2" d="M101.2,270.6c-4.5,0-12.1-0.8-13.6-1c-1.6,0.7-10.8,5.1-12.5,10.2c-0.4,1.3-0.4,2.5,0.3,3.6
		c3.8,7.2,22.8,2.6,25.7,1.4c1.4-0.6,1.8-7.8,1.3-14.2C101.9,270.6,101.6,270.6,101.2,270.6z"/>
	<path class="st2" d="M80.8,218.5c-0.5-0.7-0.8-1.5-0.9-2.4c-0.3-3.3-0.4-7-0.2-10.9c-2.5,0.5-4.9,0.7-7.1,0.7
		c-6.3,0-11.3-1.5-13.6-2.4c0.3,1,0.8,1.9,1.3,2.7c0.3,0.4,0.2,1-0.1,1.4c-0.1,0.1-6.2,6.3-5.5,12.3c1.7-1.7,2.9-3.1,3.4-3.8
		c0.7-1,2.1-1.5,3.9-1.5c3,0,6.8,1.3,8.4,3.8c0.9,1.5,1,3.1,0.2,4.8c-0.6,1.4-2.4,3.5-4.7,6c1.5,0.2,8.8,0.6,14.2-5.7
		c0.1-0.1,0.3-0.2,0.4-0.3c0.1-2.4,0.1-4,0.1-4.3C80.7,218.8,80.8,218.7,80.8,218.5z"/>
	<path class="st2" d="M162.5,269.8c-0.7,7.4-0.1,14.4,1.2,15c2.9,1.2,21.9,5.8,25.7-1.4c0.6-1.2,0.7-2.4,0.3-3.6
		c-1.7-5-10.5-9.2-12.4-10.1C174.6,270.3,167.2,271,162.5,269.8z"/>
	<path class="st4" d="M176.8,267.5c0.1,0,0.2-0.1,0.3-0.1c1.3-1.6,0.9-18.1,0.6-30.2c-0.1-4.5-0.2-8.9-0.3-12.9
		c-5.9,1.8-23.6,3.2-42.4,3.2c-19.8,0-40.7-1.5-49.8-5.8c-0.9-0.4-1.8-0.9-2.5-1.4c-0.2,6.9-1,38.9,5.1,47c2.2,0.2,12,1.3,15.2,0.9
		c1.7-0.7,4.7-12.8,6.2-18.6c2.1-8.4,2.4-9.5,3.4-9.8c0.6-0.2,2.1-0.1,8.2,0.2c8.6,0.5,23.1,1.4,29.3,0.2c0.5-0.1,1.1,0.2,1.2,0.8
		c2.5,8.9,7.3,23.7,9.5,25.6C163.6,269.1,173.8,268.4,176.8,267.5z"/>
	<path class="st2" d="M200.2,214.4c0.5-1.3,0.9-2.5,1.3-3.7c-3,0.8-6.1,1.1-9,1.1c-4.3,0-8.1-0.6-9.9-1c-0.1,5.8-1,10.5-3.1,12.5
		c0,2.6,0.1,5.3,0.1,8.2c0.4,0,0.7,0.1,1,0.4c0.8,1.1,1.9,2.1,3.2,3c0-2.1,0.4-10.2,3.7-12.6c1.6-1.1,3.6-1,5.4,0.5
		c2.1,1.7,3.6,5.2,2.3,8.3c-0.2,0.5-0.9,0.8-1.4,0.5c-0.5-0.2-0.8-0.9-0.5-1.4c0.9-2-0.1-4.5-1.7-5.8c-0.6-0.5-1.7-1.2-2.8-0.4
		c-2.1,1.5-2.8,7.7-2.8,11.3c0,0.2-0.1,0.4-0.2,0.6c2.7,1.2,6,1.8,9.1,1.5c2.5-0.3,6.9-1.4,8.6-5.8c3.4-8.6-3-16.1-3.1-16.2
		C200.2,215.2,200.1,214.8,200.2,214.4z"/>
	<path class="st5" d="M45,229.5c-1-1.1-16.3-17.5-14.2-31.4c-6.6,3.5-27.7,16.2-28.6,37.8c4.5,0.9,24.5,4.9,29.7,7.2
		C34.3,240.2,38.5,236,45,229.5z"/>
	<path class="st6" d="M74.1,86.2c-1.6,4.8-8.8,25.9-9.7,38.4c1,0.2,2.3,1.1,4.3,2.7c4.9,3.8,13.9,10.7,30.2,15.1
		c1.1-9.1,6.3-27.2,30.2-27.2c26.2,0,30.6,18.7,31.1,28.1c19.8-4.9,28.6-14.3,32.9-18.8c1.3-1.4,2.1-2.3,2.9-2.7
		c-1.8-13.3-7.8-30.1-9.2-34c-5.5,0.8-27.1,1-37.8,1c-2,3.4-11.3,18.6-16.1,19.7c-0.2,0.1-0.5,0.1-0.7,0.1c-0.6,0-1-0.2-1.3-0.4
		c-4-2.5-11.1-17-11.9-18.6c-0.2-0.3-0.1-0.7,0-1C100.8,88.4,79.8,87.8,74.1,86.2z M97.8,114.1c-3.1,0-5.6-3.9-5.6-8.6
		c0-4.8,2.5-8.6,5.6-8.6c3.1,0,5.6,3.9,5.6,8.6C103.4,110.3,100.9,114.1,97.8,114.1z M164,96.9c3.1,0,5.6,3.9,5.6,8.6
		c0,4.8-2.5,8.6-5.6,8.6c-3.1,0-5.6-3.9-5.6-8.6C158.4,100.7,160.9,96.9,164,96.9z"/>
	<path class="st7" d="M132.2,106.5c0.1,0,0.2,0,0.3,0c2.9-0.7,9.8-10.6,14.1-17.6c-0.9,0-1.7,0-2.2,0c0,0,0,0,0,0
		c-5.1,0-13.7,0-23.3-0.1c0,0,0,0,0,0C123.1,93,129.2,104.6,132.2,106.5z"/>
	<path class="st6" d="M58.3,201c0,0,0.1,0,0.1,0c0.1,0,9.5,4.4,21.3,2.1c0,0,0.1,0,0.1,0c0.3-5.8,0.9-11.7,1.5-16.4
		c-0.1,0-0.1,0.1-0.2,0.1c-1,0.2-2.2,0.3-3.5,0.3c-5.6,0-13.5-1.5-18.4-2.6C58.8,186.9,57.2,194.7,58.3,201z"/>
	<path class="st8" d="M194.6,126c-4.5,4.8-13.9,14.8-35.2,19.7c-0.3,0.1-0.6,0-0.9-0.2c-0.3-0.2-0.4-0.5-0.4-0.8
		c-0.3-10.2-4.4-27.4-29-27.4c-23.3,0-27.5,18.6-28.2,26.6c0,0.3-0.2,0.6-0.4,0.8c-0.3,0.2-0.6,0.2-0.9,0.2
		C82,140.3,72.5,133,67.4,129c-1.3-1-2.6-2-3.3-2.3c-1.1,2.7-2.4,15.4,5,27.4c5.2,8.4,15.7,17.9,36.8,22.4c0.1,0,0.1-0.1,0.2-0.1
		c0.4-0.1,0.9,0,1.1,0.4c7.4,1.5,16,2.3,26,2.3c40.2,0,55.6-15.2,61.3-27.9c5.6-12.4,3.4-25,2.1-27.3
		C196.2,124.2,195.4,125.1,194.6,126z M147.9,146.8c0,0.5-0.4,1-1,1c-4.8,0.5-9.9,0.8-15.1,0.8c-6.1,0-12.1-0.3-17.7-1
		c-0.5-0.1-0.9-0.5-0.9-1.1c0-0.6,0-1.3-0.1-2c-0.2-3.4-0.4-7.6,2.6-10.8c2.6-2.7,7.1-4.1,13.8-4.1c6.4,0,11.2,1.6,14.3,4.9
		C147.4,138.2,148,143.2,147.9,146.8z"/>
	<path class="st8" d="M144.2,68.3c-27,0-60.6,0.7-70.3,1.9c-0.7,0.1-1.2,0.6-1.6,1.6c-0.4,0.9-0.5,2.2-0.5,3.5c0,0,0,0,0,0
		c0,3.3,0.9,7.1,2.4,8.8c2.3,1.4,32.4,2.5,70.1,2.5c0,0,0,0,0,0c25.9,0,41.3-0.5,42.8-1.1c0.7-0.3,1.6-1.8,1.9-4.9
		c0.4-4.6-0.7-10-2.4-11.1C185.2,69,173.4,68.3,144.2,68.3z"/>
	<path class="st2" d="M200.7,68.3c-2.2-11.9-9.6-20.2-11.5-22.2c-5.5,2.1-10.3,3.2-12.8,3.7c8.6,8.5,11.6,17,11.7,17.1
		c0.1,0.4,0,0.8-0.2,1c1.4,1.1,2.3,3.5,2.8,6.2c4.1-1.4,7.6-3.2,10.5-5.2C201,68.9,200.8,68.7,200.7,68.3z"/>
	<path class="st2" d="M204.9,37.6c-4.3,3.3-9.1,5.8-13.6,7.7c2.7,2.9,9.3,11.1,11.5,22.6c7.3-5.5,10.9-12.2,12.6-18
		C211.5,38.8,206.5,37.7,204.9,37.6z"/>
	<path class="st6" d="M180.2,187c1.2,6.5,2.3,14.6,2.4,21.6c2.4,0.5,11.4,2.1,18.8-0.1c0.2-0.1,0.4,0,0.6,0c3-12.7,0-24.1,0-24.2
		c0,0,0,0,0,0c-4.7,1-13.5,2.8-19.5,2.8C181.7,187.1,181,187,180.2,187z"/>
	<path class="st9" d="M129.5,131.8c-6,0-10.1,1.1-12.2,3.4c-2.4,2.5-2.2,6-2,9.2c0,0.4,0,0.8,0.1,1.2c9.7,1.1,20.6,1.2,30.4,0.2
		c0-3-0.7-6.9-3.5-9.7C139.5,133.2,135.2,131.8,129.5,131.8z M140.7,141.6c-2.7,1.7-6,2.2-9.3,2.2c-6.2,0-11.9-2-12.3-2.1
		c-0.6-0.2-0.8-0.8-0.7-1.4c0.2-0.6,0.8-0.8,1.4-0.7c0.1,0,12.8,4.4,19.7,0.1c0.5-0.3,1.2-0.2,1.5,0.3
		C141.3,140.7,141.2,141.3,140.7,141.6z"/>
	<path class="st10" d="M165.5,177.1c0,0.2,0.1,0.3,0,0.5c-0.1,0.3-5.3,28.5-34.3,28.5c-0.4,0-0.7,0-1.1,0
		c-29.5-0.7-33.8-28.8-33.9-29.9c-13.3-4.3-21.4-10.9-26.4-17.3c0.1,0.3,0,0.7-0.2,1c-0.1,0.1-10.4,11.3-13,21.8
		c4,0.9,18.4,4.2,24.2,3c0.3-0.1,0.6,0,0.8,0.2c0.6-4.2,1.1-7.1,1.1-7.4c0.1-0.6,0.7-1,1.2-0.9c0.6,0.1,1,0.7,0.9,1.2
		c0,0.2-4.2,24.1-2.8,38.1c0.1,1.4,1.5,2.7,4.1,3.9c19,8.8,87.2,5.2,91.7,2.1c5.7-4,0.7-37.6-2.2-44.6c-0.2-0.5,0-1.2,0.6-1.4
		c0.5-0.2,1.2,0,1.4,0.6c0.6,1.5,1.4,4.5,2.2,8.3c6,1,20-2.1,23.9-3.1c-2.3-9-10.1-18.4-12.4-21.1
		C186.1,167.2,178,173.2,165.5,177.1z"/>
	<path class="st6" d="M130.1,194.5c14.8,0,20.9-11,22.6-14.7c-5.8,0.9-12.2,1.3-19.5,1.3c-9.6,0-17.9-0.8-25.1-2.1
		C110.1,183.7,116.1,194.5,130.1,194.5z"/>
	<path class="st8" d="M130.2,203.9c26.1,0.7,32.3-22.6,33.1-26.3c-2.5,0.7-5.3,1.3-8.2,1.8c-0.4,1.1-6.6,17.2-25,17.2
		c-16.6,0-23.1-14.3-24.5-18c-2.5-0.5-4.9-1.1-7.1-1.8C99.5,181.9,104.9,203.3,130.2,203.9z"/>
	<path class="st8" d="M123.4,35.3c-0.1,0.2-9,16.3-10,31.2c10.2-0.2,20.9-0.3,30.8-0.3c3.2,0,6.3,0,9.1,0c0,0,0,0,0-0.1
		c-0.3-19.3-16-30.4-16.1-30.5c-0.2-0.1-0.3-0.3-0.4-0.5c-1.9-0.1-3.9-0.2-6-0.2C128.2,34.8,125.8,35,123.4,35.3
		C123.4,35.2,123.4,35.2,123.4,35.3z"/>
	<path class="st2" d="M73.8,68c-0.1-0.2-0.1-0.4,0-0.7c0.1-0.2,3-8.8,11.6-17.4c-2-0.4-6-1.3-10.8-3c-0.1,0.2-0.1,0.4-0.3,0.5
		C64,56.8,62,70,62,70.2c0,0,0,0.1,0,0.1c2.3,1.4,4.8,2.6,7.7,3.7c0.1-1,0.3-2,0.6-2.8c0.8-2.3,2.3-2.9,3.3-3
		C73.7,68.1,73.7,68,73.8,68z"/>
	<path class="st2" d="M57.7,38.6c-3.6-2.6-7-5.7-9.6-9.5c-0.2-0.2-0.5-0.6-0.7-0.5c-1,0.3-2.9,3.7-3,10.4c0,2.3,0.2,6.6,1.7,11.5
		C47.5,47.5,50.7,42.3,57.7,38.6z"/>
	<path class="st7" d="M111.3,66.4c0.9-13.1,7.5-26.8,9.6-30.9c-33.8,4.3-44,29.8-45,32.4C82.9,67.2,96.3,66.7,111.3,66.4
		C111.3,66.4,111.3,66.4,111.3,66.4z"/>
	<path class="st2" d="M216.3,46.3c0.6-3.1,0.7-5.7,0.7-7.3c-0.1-6.7-2.1-10.1-3-10.4c-0.3-0.1-0.6,0.3-0.7,0.5
		c-1.8,2.5-3.8,4.8-6.1,6.7C209.6,36.7,213.2,39.2,216.3,46.3z"/>
	<path class="st7" d="M155.4,66.1c0,0,0,0.1,0,0.1c16.4,0.1,26.6,0.5,30.6,1.2c-1.2-3-12-27.9-45.6-32
		C144.9,39.2,155.2,49.7,155.4,66.1z"/>
	<circle class="st11" cx="96.3" cy="101.4" r="2.7"/>
	<circle class="st11" cx="162.5" cy="101.4" r="2.7"/>
	<path class="st5" d="M40.9,251.4c0,0,6,7.5,7.7,10.8c1.7,3.3,5.1,12.8,5.1,12.8s13.2-4.4,16.3-7.8c3.1-3.5,7-9.4,7-9.4
		s-15.1-5.7-17.4-8.6s-6.9-8.9-6.9-8.9L40.9,251.4"/>
	<path class="st12" d="M147.9,178.3c-1.2-0.2-2.4-0.4-3.5-0.6c-1.6-0.3-3.2-0.6-4.4-1.5c-1.3-1-2-2.8-1.2-4.2
		c-4.1,1.5-8.7,1.8-13,0.8c0.3-3.7,2.7-7.2,6.1-8.8c-4.7,2-9.9,2.9-15.1,2.5c0.1-5.9,6.4-9.5,12-11.2c10.9-3.2,22.5-3.6,33.4-6.6
		c8.4-2.3,16.8-6.8,21.9-13.6c-5.6,3.9-13.5,7.9-24.7,10.5c-0.3,0.1-0.6,0-0.9-0.2c-0.3-0.2-0.4-0.5-0.4-0.8
		c-0.3-10.2-4.4-27.4-29-27.4c-23.3,0-27.5,18.6-28.2,26.6c0,0.3-0.2,0.6-0.4,0.8c-0.3,0.2-0.6,0.2-0.9,0.2
		C82,140.3,72.5,133,67.4,129c-1.3-1-2.6-2-3.3-2.3c-1.1,2.7-2.4,15.4,5,27.4c5.2,8.4,15.7,17.9,36.8,22.4c0.1,0,0.1-0.1,0.2-0.1
		c0.4-0.1,0.9,0,1.1,0.4c7.4,1.5,16,2.3,26,2.3C138.6,179.1,143.4,178.8,147.9,178.3z M113.2,146.5c0-0.6,0-1.3-0.1-2
		c-0.2-3.4-0.4-7.6,2.6-10.8c2.6-2.7,7.1-4.1,13.8-4.1c6.4,0,11.2,1.6,14.3,4.9c3.6,3.7,4.2,8.7,4.1,12.2c0,0.5-0.4,1-1,1
		c-4.8,0.5-9.9,0.8-15.1,0.8c-6.1,0-12.1-0.3-17.7-1C113.6,147.5,113.2,147,113.2,146.5z"/>
	<path class="st9" d="M92.8,133.5c-3.7-8.5-3.9-18.4-0.6-27c0-0.3-0.1-0.6-0.1-0.9c0-4.8,2.5-8.6,5.6-8.6c0,0,0.1,0,0.1,0
		c1.1-1.2,2.3-2.2,3.6-3.1c2.6-1.7,5.7-2.7,8.7-3.5c2.3-0.6,4.6-1.2,7-1.7c-17.8-0.3-37.6-0.9-43.1-2.4c-1.6,4.8-8.8,25.9-9.7,38.4
		c1,0.2,2.3,1.1,4.3,2.7c4.8,3.7,13.5,10.4,29.1,14.8C95.9,139.4,94.2,136.5,92.8,133.5z"/>
	<path class="st9" d="M79.8,203.1c0.3-5.8,0.9-11.7,1.5-16.4c-0.1,0-0.1,0.1-0.2,0.1c-1,0.2-2.2,0.3-3.5,0.3c-1.6,0-3.5-0.1-5.4-0.4
		c-0.9,5.7-0.6,11.5,0.8,17C75.2,203.8,77.4,203.6,79.8,203.1C79.7,203.1,79.8,203.1,79.8,203.1z"/>
	<path class="st9" d="M180.2,187c1.2,6.5,2.3,14.6,2.4,21.6c1.7,0.3,6.6,1.2,11.9,1c0.8-7.9-0.9-16.1-5-23c-2.5,0.3-4.9,0.5-7,0.5
		C181.7,187.1,181,187,180.2,187z"/>
	<path class="st7" d="M212.4,39.8c1.3,1.6,2.6,3.6,3.8,6.5c0.6-3.1,0.7-5.7,0.7-7.3c-0.1-5.3-1.3-8.5-2.3-9.8
		C214.7,32.8,213.9,36.4,212.4,39.8z"/>
	<path class="st7" d="M211.4,42c-1,2-2.2,3.8-3.5,5.6c-2.6,3.4-5.7,6.3-9,8.9c1.6,3.3,3,7.1,3.9,11.4c7.3-5.5,10.9-12.2,12.6-18
		C214.2,46.3,212.8,43.8,211.4,42z"/>
	<path class="st7" d="M190.7,74.2c4.1-1.4,7.6-3.2,10.5-5.2c-0.3-0.2-0.5-0.4-0.5-0.7c-0.7-3.9-2-7.4-3.5-10.5
		c-1.6,1.2-3.3,2.4-5,3.5c-1.7,1.1-3.4,2.2-5.2,3.1c0.8,1.6,1.1,2.5,1.1,2.6c0.1,0.4,0,0.8-0.2,1C189.3,69.2,190.2,71.5,190.7,74.2z
		"/>
	<path class="st7" d="M46.5,29.4c-1,1.4-2.1,4.6-2.2,9.6c0,2.3,0.2,6.6,1.7,11.5c0.7-1.7,2.1-4,4.3-6.3C48,39.6,46.6,34.5,46.5,29.4
		z"/>
	<path class="st7" d="M60,69c0.3-1.8,1.3-6,3.7-10.9c-5.1-2.8-9.3-7-12.3-11.9c-3.3,3.8-4.2,7.2-4.2,7.3c0,0,0,0.1-0.1,0.1
		C49.4,58.8,53.3,64.4,60,69z"/>
	<path class="st7" d="M73.6,68.1c0.1,0,0.1,0,0.2,0c-0.1-0.2-0.1-0.4,0-0.7c0-0.1,0.6-1.8,2-4.5c-3.4-1.2-6.9-2.3-10.1-3.8
		c-2.9,6-3.7,11-3.7,11.1c0,0,0,0.1,0,0.1c2.3,1.4,4.8,2.6,7.7,3.7c0.1-1,0.3-2,0.6-2.8C71.1,68.8,72.6,68.2,73.6,68.1z"/>
	<path class="st13" d="M101,57.1c-1.5-1.5-3.2-3-3.7-5.1c-0.7-2.5,0.4-5.2,1.7-7.5c0.7-1.2,1.6-2.3,2.5-3.4
		c-18.6,9-24.9,24.8-25.7,26.8c7-0.6,20.4-1.1,35.4-1.4c0,0,0-0.1,0-0.1c0-0.6,0.1-1.2,0.2-1.7C107.6,63.1,104.1,60,101,57.1z"/>
	<path class="st13" d="M186,67.4c-0.7-1.7-4.3-10-13-17.8c0.5,2.7-0.1,5.6-1.7,7.9c-3.2,4.5-9.1,6.3-14.6,6c-0.5,0-0.9-0.1-1.4-0.1
		c0.1,0.9,0.1,1.8,0.1,2.7c0,0,0,0.1,0,0.1C171.8,66.3,182,66.7,186,67.4z"/>
	<path class="st13" d="M133.1,105c-3.8-4.4-4.5-11-2.1-16.2c-3.1,0-6.5-0.1-10-0.1c0,0,0,0,0,0c2.1,4.3,8.2,15.9,11.2,17.8
		c0.1,0,0.2,0,0.3,0c0.4-0.1,0.8-0.4,1.3-0.7C133.6,105.5,133.3,105.2,133.1,105z"/>
	<path class="st12" d="M152.8,83.4c-12.4-0.1-24.8-1.3-37.1-2.6c-10-1.1-20.1-2.3-29.3-6.2c-1.9-0.8-3.9-1.8-4.6-3.7
		c-0.2-0.4-0.2-0.9-0.2-1.3c-3.3,0.2-5.9,0.4-7.7,0.6c-0.7,0.1-1.2,0.6-1.6,1.6c-0.4,0.9-0.5,2.2-0.5,3.5c0,0,0,0,0,0
		c0,3.3,0.9,7.1,2.4,8.8c2.3,1.4,32.4,2.5,70.1,2.5c0,0,0,0,0,0c25.9,0,41.3-0.5,42.8-1.1c0.7-0.3,1.6-1.8,1.9-4.9
		c0.1-1.4,0.1-2.9,0-4.3c-2.4,1.2-4.8,2.3-7.4,3.2C172.4,82.9,162.5,83.5,152.8,83.4z"/>
	<path class="st12" d="M144.2,66.1c3.2,0,6.3,0,9.1,0c0,0,0,0,0-0.1c0-2-0.3-3.9-0.6-5.8c-1.3,0.6-2.8,1.1-4.1,1.5
		c-3.2,1-6.4,1.9-9.7,2c-6.6,0.1-13.1-3.7-16.2-9.6c-3.1-5.8-2.7-13.4,1.1-18.8l-0.2-0.3c0,0-0.1,0-0.1,0c0,0,0,0.1,0,0.1
		c-0.1,0.2-9,16.3-10,31.2C123.6,66.2,134.3,66.1,144.2,66.1z"/>
	<path class="st9" d="M108.1,179.1c1.4,3.4,5.2,10.3,12.8,13.6c0-1.1,0-2.3,0.5-3.3c1.1-2.6,4.5-3.2,7.4-3.6
		c6.7-0.8,13.4-2.3,19.9-4.3c1.4-0.4,2.7-0.9,4-1.5c0,0,0-0.1,0.1-0.1c-5.8,0.9-12.2,1.3-19.5,1.3
		C123.6,181.2,115.3,180.5,108.1,179.1z"/>
	<path class="st14" d="M66.7,217.9c-3.7,4.9-7.4,9.7-11.3,14.4c-5.6,6.9-11.7,13.9-20,16.9c-0.7,0.2-1.4,0.5-2.1,0.7
		c1.6,1,3.6,1.8,4.8,1.8c0.1,0,0.2,0,0.2,0c1.2-0.8,27.7-23.6,30.3-29.4c0.5-1,0.4-1.9-0.1-2.8C68.2,218.9,67.5,218.3,66.7,217.9z"
		/>
	<path class="st15" d="M16.9,232.1c-1,2.1-1.8,4.2-2.4,6.4c6.8,1.5,14.3,3.3,17.2,4.6c2.5-2.8,6.7-7,13.2-13.5
		c-0.7-0.7-8.3-8.9-12.2-18.5C26.2,216.8,20.7,224.1,16.9,232.1z"/>
	<path class="st15" d="M59.6,249.2c-2.3-2.9-6.9-8.9-6.9-8.9l-11.8,11.1c0,0,6,7.5,7.7,10.8c0.5,0.9,1.1,2.4,1.7,3.9
		c2.7-1.3,5.4-2.6,8.1-3.9c1.9-0.9,3.7-1.8,5.3-3.1c1.7-1.4,3.1-3.2,4.4-5C64.4,252.4,60.7,250.5,59.6,249.2z"/>
	<path class="st12" d="M129.9,202c-2.1-1.5-4.1-3.5-5-5.9c-12.7-2.6-18-14.2-19.2-17.5c-2.5-0.5-4.9-1.1-7.1-1.8
		c0.9,5,6.4,26.5,31.7,27.1c1,0,2.1,0,3,0C132.1,203.4,131,202.7,129.9,202z"/>
	<path class="st16" d="M131.3,206.1c-0.4,0-0.7,0-1.1,0c-29.5-0.7-33.8-28.8-33.9-29.9c-13.3-4.3-21.4-10.9-26.4-17.3
		c0.1,0.3,0,0.7-0.2,1c-0.1,0.1-10.4,11.3-13,21.8c4,0.9,18.4,4.2,24.2,3c0.3-0.1,0.6,0,0.8,0.2c0.6-4.2,1.1-7.1,1.1-7.4
		c0.1-0.6,0.7-1,1.2-0.9c0.6,0.1,1,0.7,0.9,1.2c0,0.2-4.2,24.1-2.8,38.1c0.1,1.4,1.5,2.7,4.1,3.9c6,2.8,16.9,4.3,29.1,5
		c0.8-4.2,2.3-8.5,5.8-10.8c2.6-1.7,5.9-2,8.9-2.7c5.5-1.3,10.6-4,14.8-7.7C141,205.2,136.5,206.1,131.3,206.1z"/>
	<path class="st17" d="M135.1,227.6c-19.8,0-40.7-1.5-49.8-5.8c-0.9-0.4-1.8-0.9-2.5-1.4c-0.2,6.9-1,38.9,5.1,47
		c2.2,0.2,12,1.3,15.2,0.9c1.7-0.7,4.7-12.8,6.2-18.6c2.1-8.4,2.4-9.5,3.4-9.8c0.6-0.2,2.1-0.1,8.2,0.2c8.6,0.5,23.1,1.4,29.3,0.2
		c0.5-0.1,1.1,0.2,1.2,0.8c2.5,8.9,7.3,23.7,9.5,25.6c1.5,1.3,5.4,1.7,9,1.6c-4.8-3.9-8.5-9.1-10.4-15c-0.6-1.8-1-3.6-1-5.5
		c0-2.2,0.6-4.4,1.5-6.5c2.1-4.8,6.1-8.7,10.9-10.8c2.2-0.9,4.5-1.5,6.8-2.3c0-1.3,0-2.7-0.1-3.9
		C171.6,226.2,153.8,227.6,135.1,227.6z"/>
	<g>
		<path class="st7" d="M180.6,231.9c0.8,1.1,1.9,2.1,3.2,3c0-2.1,0.4-10.2,3.7-12.6c1-0.7,2-0.9,3.1-0.7c1.1-3.3,2.1-6.6,3.2-10
			c-0.5,0-0.9,0-1.4,0c-4.3,0-8.1-0.6-9.9-1c-0.1,5.8-1,10.5-3.1,12.5c0,2.6,0.1,5.3,0.1,8.2C180.1,231.5,180.4,231.6,180.6,231.9z"
			/>
		<path class="st7" d="M189.5,236.7c-0.5-2.5,3-4.1,5.5-3.3c0.6,0.2,1.3,0.4,1.9,0.2c0.7-0.3,0.8-1.2,0.9-1.9
			c0.3-2.5,0.3-5.1-0.9-7.3c-1.2-2.1-3.9-3.6-6.1-2.6c0.7,0.2,1.5,0.5,2.2,1.1c2.1,1.7,3.6,5.2,2.3,8.3c-0.2,0.5-0.9,0.8-1.4,0.5
			c-0.5-0.2-0.8-0.9-0.5-1.4c0.9-2-0.1-4.5-1.7-5.8c-0.6-0.5-1.7-1.2-2.8-0.4c-2.1,1.5-2.8,7.7-2.8,11.3c0,0.2-0.1,0.4-0.2,0.6
			c1.2,0.6,2.6,1,4,1.3C189.7,237,189.6,236.9,189.5,236.7z"/>
	</g>
	<path class="st7" d="M79.7,205.3c-2.5,0.5-4.9,0.7-7.1,0.7c-0.3,0-0.6,0-0.9,0c0.4,2.2,0.9,4.3,1.3,6.5c0.2,1.2,0.4,2.6-0.5,3.5
		c-0.5,0.4-1.1,0.6-1.8,0.8c-0.5,0.1-1,0.3-1.5,0.5c0.4,0.4,0.8,0.8,1.1,1.2c0.9,1.5,1,3.1,0.2,4.8c-0.6,1.4-2.4,3.5-4.7,6
		c1.5,0.2,8.8,0.6,14.2-5.7c0.1-0.1,0.3-0.2,0.4-0.3c0.1-2.4,0.1-4,0.1-4.3c0-0.2,0.1-0.3,0.1-0.4c-0.5-0.7-0.8-1.5-0.9-2.4
		C79.6,212.9,79.6,209.1,79.7,205.3z"/>
	<path class="st7" d="M180,281.5c-2.9-0.5-5.9-1.4-8.1-3.4c-2.2-1.9-3.6-4.9-2.9-7.7c-2.2,0-4.5-0.2-6.4-0.7
		c-0.7,7.4-0.1,14.4,1.2,15c2.9,1.2,21.9,5.8,25.7-1.4c0.5-1,0.6-2,0.4-3.1c-1.3,0.7-2.7,1.2-4.2,1.4
		C183.7,282,181.8,281.8,180,281.5z"/>
	<path class="st7" d="M102.3,270.5c-0.3,0-0.7,0-1.1,0c-1.5,0-3.3-0.1-5.2-0.2c-0.6,4.4-3.1,8.6-6.8,11.1c-3.8,2.7-8.8,3.6-13.4,2.6
		c4.7,6.1,22.4,1.9,25.2,0.7C102.4,284.1,102.8,277,102.3,270.5z"/>
	<path class="st18" d="M177.4,52.1c0,0,15.2-1.6,24.1-8.8c8.8-7.2,11.8-15.5,11.8-15.5s-8,8.8-18.4,14.4S174,48.6,174,48.6
		L177.4,52.1z"/>
	<path class="st18" d="M47.4,28.6c0,0,9.5,20,37.6,23.2l2.7-2.4C87.7,49.4,62.2,44.6,47.4,28.6z"/>
	<path class="st18" d="M101.5,41.1c0,0,16.8-6.1,38-3.7c21.1,2.4,34.5,11.2,34.5,11.2S141.9,21,101.5,41.1z"/>
	<path class="st18" d="M113,68.7c0,0,70.8,2.1,72.2,2.4c1.3,0.3,4.3,2.4,4.3,2.4l-3-3.8C186.5,69.6,122.9,64.7,113,68.7z"/>
	<path class="st18" d="M135.8,103.8c3.3-3.6,7.6-10,10.7-15c-0.5,0-0.9,0-1.3,0C143.5,91.6,139.2,98.8,135.8,103.8z"/>
	<path class="st18" d="M184.3,88.1c1.8,4.7,8.2,21.7,10.4,34.7c0.5-0.4,0.9-0.7,1.2-0.9c-1.8-13.3-7.8-30.1-9.2-34
		C186.2,87.9,185.3,88,184.3,88.1z"/>
	<path class="st18" d="M158,176.7c22.3-4.7,32.2-15.8,36.6-25.5c5.6-12.4,3.4-25,2.1-27.3c-0.3,0.2-0.8,0.8-1.4,1.4
		C196.5,130.4,202,162.5,158,176.7z"/>
	<path class="st18" d="M190.5,161.5c2.4,3.3,8.4,12,12.1,20.4c0.4-0.1,0.8-0.2,1.1-0.3c-2.3-9-10.1-18.4-12.4-21.1
		C191.1,160.9,190.8,161.2,190.5,161.5z"/>
	<path class="st18" d="M200.5,208.7c0.3-0.1,0.6-0.2,1-0.2c0.2-0.1,0.4,0,0.6,0c3-12.7,0-24.1,0-24.2c0,0,0,0,0,0
		c-0.4,0.1-0.8,0.2-1.2,0.3C201.4,188.3,202.4,199,200.5,208.7z"/>
	<path class="st18" d="M200.2,235.7c1.4-0.9,2.6-2.1,3.4-4c3.4-8.6-3-16.1-3.1-16.2c-0.3-0.3-0.3-0.7-0.2-1.1
		c0.5-1.3,0.9-2.5,1.3-3.7c-0.7,0.2-1.5,0.4-2.3,0.5c-0.5,1.3-1.1,3.5-0.9,4.2c0.3,1.1,4.8,3.5,3.7,14.2
		C201.8,231.9,201.1,233.9,200.2,235.7z"/>
	<path class="st18" d="M175.6,265.6c0,0.8-1,1.7-2.3,2.5c1.5-0.2,2.8-0.4,3.6-0.6c0.1,0,0.2-0.1,0.3-0.1c1.3-1.6,0.9-18.1,0.6-30.2
		c-0.1-3-0.1-6-0.2-8.9l0,0C177.5,228.4,175.6,263,175.6,265.6z"/>
	<path class="st18" d="M176.1,269.9c3.4,2.2,9.2,6.1,13.6,9.9c0,0,0,0,0,0c-1.7-5-10.5-9.2-12.4-10.1
		C176.9,269.7,176.5,269.8,176.1,269.9z"/>
	<path class="st18" d="M30.8,198.1c-6.6,3.5-27.7,16.2-28.6,37.8c0.3,0.1,0.8,0.2,1.3,0.3c2.3-9.2,8.9-25.4,27.2-35.1
		C30.6,200.1,30.7,199.1,30.8,198.1z"/>
	<path class="st18" d="M77,257.8c0,0-0.7-0.3-1.8-0.7c-6,9.5-16.7,13.7-22.5,15.3c0.6,1.6,1,2.7,1,2.7s13.2-4.4,16.3-7.8
		C73,263.8,77,257.8,77,257.8z"/>
	<g>
		<g>
			<g>
				<ellipse class="st19" cx="97.8" cy="105.5" rx="5.6" ry="8.6"/>
			</g>
			<g>
				<circle class="st18" cx="96.3" cy="101.4" r="2.7"/>
			</g>
		</g>
		<g>
			<g>
				<ellipse class="st19" cx="164" cy="105.5" rx="5.6" ry="8.6"/>
			</g>
			<g>
				<circle class="st18" cx="162.5" cy="101.4" r="2.7"/>
			</g>
		</g>
		<g>
			<path class="st19" d="M144.3,88.8C144.3,88.8,144.3,88.8,144.3,88.8c-16.1,0-69-0.2-71.7-3.3c-2.6-2.9-3.8-10.5-2.3-14.5
				c0.8-2.3,2.3-2.9,3.3-3c9.8-1.2,43.6-1.9,70.6-1.9c27.2,0,41.9,0.6,43.5,1.7c2.6,1.8,3.8,8.2,3.3,13.1c-0.2,2.5-1,5.7-3.1,6.6
				C185.3,88.8,151.1,88.8,144.3,88.8z M144.2,68.3c-27,0-60.6,0.7-70.3,1.9c-0.7,0.1-1.2,0.6-1.6,1.6c-1.2,3.3-0.2,10,1.9,12.3
				c2.3,1.4,32.4,2.5,70.1,2.5c0,0,0,0,0,0c25.9,0,41.3-0.5,42.8-1.1c0.7-0.3,1.6-1.8,1.9-4.9c0.4-4.6-0.7-10-2.4-11.1
				C185.2,69,173.4,68.3,144.2,68.3z"/>
		</g>
		<g>
			<path class="st19" d="M74.8,68.8c-0.1,0-0.2,0-0.3-0.1c-0.6-0.2-0.9-0.8-0.7-1.3c0.1-0.3,12-34.7,57-34.7c45,0,57.2,34,57.3,34.3
				c0.2,0.6-0.1,1.2-0.7,1.4c-0.6,0.2-1.2-0.1-1.4-0.7c-0.1-0.3-11.9-32.9-55.3-32.9c-43.5,0-54.9,32.9-55,33.2
				C75.7,68.5,75.2,68.8,74.8,68.8z"/>
		</g>
		<g>
			<path class="st19" d="M190.6,76.5c-0.4,0-0.9-0.3-1-0.7c-0.2-0.6,0.1-1.2,0.7-1.4c25.2-8.6,26.8-29.3,26.7-35.4
				c-0.1-6.7-2.1-10.1-3-10.4c-0.3-0.1-0.6,0.3-0.7,0.5c-11.5,16.6-37.4,20.9-38.5,21.1c-0.6,0.1-1.1-0.3-1.2-0.9
				c-0.1-0.6,0.3-1.1,0.9-1.2c0.3,0,26.1-4.4,37.1-20.2c1.2-1.7,2.6-1.5,3.1-1.4c2.6,0.8,4.4,5.9,4.5,12.4
				c0.2,13.4-7,30.2-28.1,37.5C190.8,76.5,190.7,76.5,190.6,76.5z"/>
		</g>
		<g>
			<path class="st19" d="M70.7,76.5c-0.1,0-0.2,0-0.3-0.1C49.3,69.2,42,52.3,42.2,39c0.1-6.5,2-11.6,4.5-12.4
				c0.5-0.2,1.9-0.4,3.1,1.4c11,15.9,36.8,20.2,37.1,20.2c0.6,0.1,1,0.6,0.9,1.2c-0.1,0.6-0.6,1-1.2,0.9c-1.1-0.2-27-4.5-38.5-21.1
				c-0.2-0.2-0.5-0.6-0.7-0.5c-1,0.3-2.9,3.7-3,10.4c-0.1,6.1,1.5,26.8,26.7,35.4c0.6,0.2,0.9,0.8,0.7,1.4
				C71.6,76.2,71.1,76.5,70.7,76.5z"/>
		</g>
		<g>
			<path class="st19" d="M133.2,181.2c-41.2,0-58.6-14.1-65.9-26c-8.2-13.3-6.3-27.1-5-29.7c0.3-0.7,0.9-1,1.6-1
				c1.1,0,2.4,1,4.8,2.8c4.9,3.8,13.9,10.7,30.2,15.1c1.1-9.1,6.3-27.2,30.2-27.2c26.2,0,30.6,18.7,31.1,28.1
				c19.8-4.9,28.6-14.3,32.9-18.8c1.8-1.9,2.7-2.9,3.8-2.9c0.3,0,0.6,0.1,0.9,0.3c2.1,1.4,4.3,13.2,0.7,25
				C193.7,162.6,178.5,181.2,133.2,181.2z M64.1,126.7c-1.1,2.7-2.4,15.4,5,27.4c7.1,11.4,23.9,25,64.1,25
				c40.2,0,55.6-15.2,61.3-27.9c5.6-12.4,3.4-25,2.1-27.3c-0.4,0.3-1.3,1.3-2.1,2.1c-4.5,4.8-13.9,14.8-35.2,19.7
				c-0.3,0.1-0.6,0-0.9-0.2c-0.3-0.2-0.4-0.5-0.4-0.8c-0.3-10.2-4.4-27.4-29-27.4c-23.3,0-27.5,18.6-28.2,26.6
				c0,0.3-0.2,0.6-0.4,0.8c-0.3,0.2-0.6,0.2-0.9,0.2C82,140.3,72.5,133,67.4,129C66.1,128,64.7,127,64.1,126.7z M131.8,148.6
				c-6.1,0-12.1-0.3-17.7-1c-0.5-0.1-0.9-0.5-0.9-1.1c0-0.6,0-1.3-0.1-2c-0.2-3.4-0.4-7.6,2.6-10.8c2.6-2.7,7.1-4.1,13.8-4.1
				c6.4,0,11.2,1.6,14.3,4.9c3.6,3.7,4.2,8.7,4.1,12.2c0,0.5-0.4,1-1,1C142.1,148.3,137,148.6,131.8,148.6z M115.3,145.5
				c9.7,1.1,20.6,1.2,30.4,0.2c0-3-0.7-6.9-3.5-9.7c-2.7-2.8-7-4.2-12.8-4.2c-6,0-10.1,1.1-12.2,3.4c-2.4,2.5-2.2,6-2,9.2
				C115.3,144.8,115.3,145.2,115.3,145.5z"/>
		</g>
		<g>
			<path class="st19" d="M63.2,127.1C63.2,127.1,63.2,127.1,63.2,127.1c-0.6,0-1.1-0.5-1.1-1.1c0.5-14,9.8-40.4,10.2-41.5
				c0.2-0.6,0.8-0.9,1.4-0.6c0.6,0.2,0.8,0.8,0.6,1.4c-0.1,0.3-9.6,27.2-10.1,40.9C64.3,126.7,63.8,127.1,63.2,127.1z"/>
		</g>
		<g>
			<path class="st19" d="M197.1,123.8c-0.5,0-1-0.4-1.1-0.9c-1.8-15.1-9.5-35.7-9.6-35.9c-0.2-0.6,0.1-1.2,0.6-1.4
				c0.5-0.2,1.2,0.1,1.4,0.6c0.1,0.2,7.9,21.1,9.7,36.4c0.1,0.6-0.3,1.1-0.9,1.2C197.2,123.8,197.2,123.8,197.1,123.8z"/>
		</g>
		<g>
			<path class="st19" d="M77.7,187.1c-8.3,0-22-3.4-22.7-3.6c-0.6-0.1-0.9-0.7-0.8-1.3c2.4-11.4,13.3-23.3,13.8-23.8
				c0.4-0.4,1.1-0.5,1.5-0.1c0.4,0.4,0.5,1.1,0.1,1.5c-0.1,0.1-10.4,11.3-13,21.8c4,0.9,18.4,4.2,24.2,3c0.6-0.1,1.1,0.3,1.3,0.8
				c0.1,0.6-0.3,1.1-0.8,1.3C80.2,187,79,187.1,77.7,187.1z"/>
		</g>
		<g>
			<path class="st19" d="M182.6,187.1c-1.3,0-2.5-0.1-3.5-0.3c-0.6-0.1-1-0.7-0.8-1.3c0.1-0.6,0.7-0.9,1.3-0.8
				c5.8,1.2,20.2-2.1,24.2-3c-2.7-10.5-12.9-21.7-13-21.8c-0.4-0.4-0.4-1.1,0.1-1.5c0.4-0.4,1.1-0.4,1.5,0.1
				c0.5,0.5,11.4,12.5,13.8,23.8c0.1,0.6-0.2,1.1-0.8,1.3C204.6,183.7,190.9,187.1,182.6,187.1z"/>
		</g>
		<g>
			<path class="st19" d="M135.1,227.6c-19.8,0-40.7-1.5-49.8-5.8c-3.3-1.5-5.1-3.4-5.3-5.6c-1.4-14.3,2.6-37.7,2.8-38.7
				c0.1-0.6,0.7-1,1.2-0.9c0.6,0.1,1,0.7,0.9,1.2c0,0.2-4.2,24.1-2.8,38.1c0.1,1.4,1.5,2.7,4.1,3.9c19,8.8,87.2,5.2,91.7,2.1
				c5.7-4,0.7-37.6-2.2-44.6c-0.2-0.5,0-1.2,0.6-1.4c0.5-0.2,1.2,0,1.4,0.6c2.9,6.9,8.9,42.1,1.5,47.2
				C176,225.8,156.2,227.6,135.1,227.6z"/>
		</g>
		<g>
			<path class="st19" d="M38.1,253.8c-2.6,0-9.2-3-9.2-6.4c0-1.8,4.3-6.3,17.1-19c5.6-5.5,10.9-10.7,12-12.4c0.7-1,2.1-1.5,3.9-1.5
				c3,0,6.8,1.3,8.4,3.8c0.9,1.5,1,3.1,0.2,4.8c-2.9,6.4-29.9,29.5-31.2,30.3C39.1,253.7,38.7,253.8,38.1,253.8z M62,216.7
				c-1.2,0-2,0.3-2.2,0.6c-1.2,1.8-6.3,6.9-12.2,12.7c-6.4,6.3-16.1,15.9-16.5,17.6c0,1.4,4.9,4.1,7.1,4.1c0.1,0,0.2,0,0.2,0
				c1.2-0.8,27.7-23.6,30.3-29.4c0.5-1,0.4-1.9-0.1-2.8C67.4,217.7,64.3,216.7,62,216.7z"/>
		</g>
		<g>
			<path class="st19" d="M31.9,245.3c-0.2,0-0.3,0-0.5-0.1c-4.5-2.2-30.3-7.3-30.5-7.4c-0.5-0.1-0.9-0.5-0.9-1.1
				c0.5-27.4,31.6-41.4,31.9-41.6c0.4-0.2,0.8-0.1,1.1,0.2c0.3,0.3,0.4,0.7,0.3,1.1c-4,13.3,13.1,31.4,13.3,31.6
				c0.4,0.4,0.4,1.1,0,1.5c-0.4,0.4-1.1,0.4-1.5,0c-0.7-0.7-16.4-17.4-14.3-31.5c-6.6,3.5-27.7,16.2-28.6,37.8
				c4.7,0.9,25.9,5.2,30.2,7.4c0.5,0.3,0.7,0.9,0.5,1.4C32.6,245.1,32.3,245.3,31.9,245.3z"/>
		</g>
		<g>
			<path class="st19" d="M53.3,276.1c-0.2,0-0.4-0.1-0.6-0.2c-0.2-0.2-0.4-0.4-0.4-0.7c-1.3-9.8-11.4-22.1-11.5-22.2
				c-0.4-0.5-0.3-1.1,0.1-1.5c0.5-0.4,1.1-0.3,1.5,0.1c0.4,0.5,9.9,12,11.8,22.1c3.6-1,15.2-4.9,21.8-15.4
				c-4.6-1.8-20.7-8.4-23.7-16c-0.2-0.6,0.1-1.2,0.6-1.4c0.6-0.2,1.2,0.1,1.4,0.6c3.1,7.8,23.4,15.2,23.6,15.2
				c0.3,0.1,0.5,0.3,0.6,0.6c0.1,0.3,0.1,0.6-0.1,0.9c-8.1,14.3-24.3,17.6-25,17.8C53.5,276.1,53.4,276.1,53.3,276.1z"/>
		</g>
		<g>
			<path class="st19" d="M53.8,222.4c-0.5,0-0.9-0.3-1-0.8c-1.7-6.4,3.5-12.8,5.3-14.9c-4.6-8-0.8-22.8-0.6-23.5
				c0.2-0.6,0.7-0.9,1.3-0.8c0.6,0.2,0.9,0.7,0.8,1.3c0,0.2-4,15.5,0.8,22.4c0.3,0.4,0.2,1-0.1,1.4c-0.1,0.1-7,7.1-5.3,13.4
				c0.2,0.6-0.2,1.2-0.8,1.3C54,222.4,53.9,222.4,53.8,222.4z"/>
		</g>
		<g>
			<path class="st20" d="M66.9,228.3"/>
		</g>
		<g>
			<path class="st19" d="M101.2,270.6c-4.9,0-13.5-1-13.9-1c-0.3,0-0.5-0.2-0.7-0.4c-7.6-9.1-5.9-48.5-5.8-50.2c0-0.6,0.5-1.1,1.1-1
				c0.6,0,1,0.5,1,1.1c0,0.4-1.7,39.3,5.1,48.4c2.2,0.2,12,1.3,15.2,0.9c1.7-0.7,4.7-12.8,6.2-18.6c2.1-8.4,2.4-9.5,3.4-9.8
				c0.6-0.2,2.1-0.1,8.2,0.2c8.6,0.5,23.1,1.4,29.3,0.2c0.5-0.1,1.1,0.2,1.2,0.8c2.5,8.9,7.3,23.7,9.5,25.6
				c2.8,2.4,13.5,1.6,16.2,0.7c1.3-1.6,0.9-18.1,0.6-30.2c-0.1-5.1-0.3-10.1-0.3-14.4c0-0.6,0.5-1.1,1.1-1.1c0,0,0,0,0,0
				c0.6,0,1.1,0.5,1.1,1.1c0,4.4,0.2,9.3,0.3,14.4c0.6,24.3,0.4,31.5-2.1,32.3c-2.5,0.8-14.5,2.1-18.3-1.1
				c-3.1-2.7-8.5-20.9-9.9-25.7c-6.8,1-20,0.2-28.8-0.3c-3.1-0.2-6.1-0.4-7.1-0.4c-0.5,1.1-1.4,4.9-2.3,8.3c-3.5,14-5.3,19.9-8,20.2
				C102.8,270.5,102.1,270.6,101.2,270.6z"/>
		</g>
		<g>
			<path class="st19" d="M67.4,231.4c-1.2,0-2-0.1-2.1-0.1c-0.6-0.1-1-0.6-0.9-1.2c0.1-0.6,0.6-1,1.2-0.9c0.3,0.1,8.5,1.3,14.5-5.6
				c0.4-0.4,1.1-0.5,1.5-0.1c0.4,0.4,0.5,1.1,0.1,1.5C76.8,230.6,70.6,231.4,67.4,231.4z"/>
		</g>
		<g>
			<path class="st19" d="M193.1,239.7c-5.7,0-11.5-2.6-14.2-6.5c-0.3-0.5-0.2-1.2,0.3-1.5c0.5-0.3,1.2-0.2,1.5,0.3
				c2.6,3.8,8.6,6.1,14.2,5.5c2.5-0.3,6.9-1.4,8.6-5.8c3.4-8.6-3-16.1-3.1-16.2c-0.3-0.3-0.3-0.7-0.2-1.1c5.9-14.9,1.9-30,1.8-30.1
				c-0.2-0.6,0.2-1.2,0.8-1.3c0.6-0.1,1.2,0.2,1.3,0.7c0.2,0.6,4.1,15.5-1.7,30.9c1.5,2,6.5,9.3,3,17.9c-1.6,4-5.4,6.5-10.4,7.1
				C194.4,239.6,193.8,239.7,193.1,239.7z"/>
		</g>
		<g>
			<path class="st19" d="M184.9,236.4c-0.6,0-1.1-0.5-1.1-1.1c0-1.1,0.1-10.4,3.7-13c1.6-1.1,3.6-1,5.4,0.5c2.1,1.7,3.6,5.2,2.3,8.3
				c-0.2,0.5-0.9,0.8-1.4,0.5c-0.5-0.2-0.8-0.9-0.5-1.4c0.9-2-0.1-4.5-1.7-5.8c-0.6-0.5-1.7-1.2-2.8-0.4c-2.1,1.5-2.8,7.7-2.8,11.3
				C186,235.9,185.5,236.4,184.9,236.4z"/>
		</g>
		<g>
			<path class="st19" d="M86,289.4c-5.4,0-10.6-1.2-12.6-5.1c-0.9-1.7-1-3.5-0.4-5.3c2.3-6.4,13.5-11.3,14-11.5
				c0.5-0.2,1.2,0,1.4,0.6c0.2,0.5,0,1.2-0.6,1.4c-0.1,0-10.9,4.8-12.8,10.3c-0.4,1.3-0.4,2.5,0.3,3.6c3.8,7.2,22.8,2.6,25.7,1.4
				c1.5-0.6,1.9-8.6,1.2-15.2c-0.1-0.6,0.4-1.1,1-1.2c0.6,0,1.1,0.4,1.2,1c0.3,3.7,1.2,15.8-2.5,17.4
				C99.7,287.6,92.7,289.4,86,289.4z"/>
		</g>
		<g>
			<path class="st19" d="M178.7,289.4c-6.7,0-13.7-1.8-15.8-2.7c-3.7-1.6-2.9-13.7-2.5-17.4c0.1-0.6,0.6-1,1.2-1
				c0.6,0.1,1,0.6,1,1.2c-0.7,7.5-0.1,14.7,1.2,15.2c2.9,1.2,21.9,5.8,25.7-1.4c0.6-1.2,0.7-2.4,0.3-3.6
				c-1.9-5.5-12.7-10.2-12.8-10.3c-0.5-0.2-0.8-0.9-0.6-1.4c0.2-0.5,0.9-0.8,1.4-0.6c0.5,0.2,11.7,5.1,14,11.5
				c0.6,1.8,0.5,3.6-0.4,5.3C189.3,288.2,184.1,289.4,178.7,289.4z"/>
		</g>
		<g>
			<path class="st19" d="M132.3,108.6c-0.6,0-1-0.2-1.3-0.4c-4-2.5-11.1-17-11.9-18.6c-0.3-0.5,0-1.2,0.5-1.4c0.5-0.3,1.2,0,1.4,0.5
				c2.1,4.3,8.2,15.9,11.2,17.8c0.1,0,0.2,0,0.3,0c3.2-0.8,10.9-12.2,15-19.2c0.3-0.5,1-0.7,1.5-0.4c0.5,0.3,0.7,1,0.4,1.5
				c-1.1,1.9-11.3,19-16.4,20.2C132.7,108.6,132.5,108.6,132.3,108.6z"/>
		</g>
		<g>
			<path class="st19" d="M131.3,206.1c-0.4,0-0.7,0-1.1,0c-30-0.7-33.9-29.7-33.9-30c-0.1-0.6,0.3-1.1,0.9-1.2
				c0.6-0.1,1.1,0.3,1.2,0.9c0.1,1.1,3.8,27.4,31.9,28.1c28.1,0.8,33.2-26.5,33.2-26.8c0.1-0.6,0.7-1,1.2-0.9c0.6,0.1,1,0.7,0.9,1.2
				C165.5,177.8,160.3,206.1,131.3,206.1z"/>
		</g>
		<g>
			<path class="st19" d="M131.4,143.9c-6.2,0-11.9-2-12.3-2.1c-0.6-0.2-0.8-0.8-0.7-1.4c0.2-0.6,0.8-0.8,1.4-0.7
				c0.1,0,12.8,4.4,19.7,0.1c0.5-0.3,1.2-0.2,1.5,0.3c0.3,0.5,0.2,1.2-0.3,1.5C138,143.3,134.6,143.9,131.4,143.9z"/>
		</g>
		<g>
			<path class="st19" d="M112.3,67.5C112.3,67.5,112.3,67.5,112.3,67.5c-0.7,0-1.1-0.6-1.1-1.1c1-15.4,9.9-31.5,10.3-32.2
				c0.3-0.5,0.9-0.7,1.5-0.4c0.5,0.3,0.7,0.9,0.4,1.5c-0.1,0.2-9,16.4-10,31.3C113.4,67.1,112.9,67.5,112.3,67.5z"/>
		</g>
		<g>
			<path class="st19" d="M154.4,67.2c-0.6,0-1.1-0.5-1.1-1.1c-0.3-19.3-16-30.4-16.1-30.5c-0.5-0.3-0.6-1-0.3-1.5
				c0.3-0.5,1-0.6,1.5-0.3c0.7,0.5,16.7,11.8,17,32.2C155.5,66.7,155,67.2,154.4,67.2C154.4,67.2,154.4,67.2,154.4,67.2z"/>
		</g>
		<g>
			<path class="st19" d="M60.9,71.1c0,0-0.1,0-0.1,0c-0.6-0.1-1-0.6-0.9-1.2c0.1-0.6,2-14.1,12.9-23.9c0.4-0.4,1.1-0.4,1.5,0.1
				c0.4,0.4,0.4,1.1-0.1,1.5C64,56.8,62,70,62,70.2C61.9,70.7,61.5,71.1,60.9,71.1z"/>
		</g>
		<g>
			<path class="st19" d="M46.2,54.2c-0.1,0-0.2,0-0.3,0c-0.6-0.1-0.9-0.7-0.8-1.3c0.1-0.4,2.4-9.4,13.1-14.6c0.5-0.3,1.2,0,1.4,0.5
				c0.3,0.5,0,1.2-0.5,1.4c-9.9,4.8-12,13.1-12,13.2C47.2,53.9,46.7,54.2,46.2,54.2z"/>
		</g>
		<g>
			<path class="st19" d="M201.8,69.2c-0.5,0-1-0.4-1-0.9c-2.6-13.6-11.9-22.6-12-22.7c-0.4-0.4-0.4-1.1,0-1.5c0.4-0.4,1.1-0.4,1.5,0
				c0.4,0.4,9.9,9.5,12.6,23.8c0.1,0.6-0.3,1.1-0.9,1.2C201.9,69.2,201.8,69.2,201.8,69.2z"/>
		</g>
		<g>
			<path class="st19" d="M216.5,50.8c-0.4,0-0.9-0.3-1-0.7c-4.7-13.5-11-12.4-11.1-12.4c-0.6,0.1-1.1-0.3-1.3-0.8
				c-0.1-0.6,0.2-1.1,0.8-1.3c0.3-0.1,8.2-1.6,13.5,13.8c0.2,0.6-0.1,1.2-0.7,1.4C216.7,50.8,216.6,50.8,216.5,50.8z"/>
		</g>
		<g>
			<path class="st19" d="M130.1,196.7c-19,0-24.8-18.7-24.8-18.9c-0.2-0.6,0.2-1.2,0.7-1.3c0.6-0.2,1.2,0.2,1.3,0.7
				c0.2,0.7,5.4,17.4,22.8,17.4c17.4,0,22.8-15.2,23-15.8c0.2-0.6,0.8-0.9,1.4-0.7c0.6,0.2,0.9,0.8,0.7,1.4
				C155.2,179.6,149.1,196.7,130.1,196.7z"/>
		</g>
		<g>
			<path class="st19" d="M72.6,205.9c-8.6,0-14.7-2.8-15-2.9c-0.5-0.3-0.8-0.9-0.5-1.4c0.3-0.5,0.9-0.8,1.4-0.5
				c0.1,0,9.5,4.4,21.3,2.1c0.6-0.1,1.1,0.3,1.3,0.8c0.1,0.6-0.3,1.1-0.8,1.3C77.4,205.7,74.9,205.9,72.6,205.9z"/>
		</g>
		<g>
			<path class="st19" d="M192.5,211.8c-5.9,0-10.7-1.2-11-1.2c-0.6-0.1-0.9-0.7-0.8-1.3c0.1-0.6,0.7-0.9,1.3-0.8
				c0.1,0,10.8,2.6,19.5,0c0.6-0.2,1.2,0.2,1.3,0.7c0.2,0.6-0.2,1.2-0.7,1.3C198.9,211.5,195.6,211.8,192.5,211.8z"/>
		</g>
	</g>
</g>
</svg>
