<?xml version="1.0" encoding="utf-8"?>
<!-- Generator: Adobe Illustrator 21.0.2, SVG Export Plug-In . SVG Version: 6.00 Build 0)  -->
<svg version="1.1" id="Layer_1" xmlns="http://www.w3.org/2000/svg" xmlns:xlink="http://www.w3.org/1999/xlink" x="0px" y="0px"
	 viewBox="0 0 4225.9 3707.2" style="enable-background:new 0 0 4225.9 3707.2;" xml:space="preserve">
<style type="text/css">
	.st0{fill:#14949A;}
	.st1{fill:#1D4051;}
	.st2{fill:#1E4D6C;}
	.st3{fill:#7CCDD4;}
	.st4{fill:#DEF1F3;}
	.st5{fill:#BEBBBB;}
	.st6{fill:none;}
	.st7{fill:#CDCCCB;}
	.st8{fill:#FFFFFF;}
	.st9{fill:#F38020;}
	.st10{fill:#EEB31F;}
	.st11{fill:#F7CB6B;}
	.st12{fill:#E93859;}
	.st13{fill:#BB3548;}
	.st14{fill:#E6C536;}
	.st15{fill:#CDAF2F;}
	.st16{fill:#82CFD0;}
	.st17{fill:#A5DBE2;}
</style>
<path class="st0" d="M4225.8,3401.6c-0.6-26.3-22.1-47.4-48.5-47.4h-277.9c21.3-15.2,40.6-33.9,57.3-55.6
	c39.3-51.2,61-116.1,61-182.9V1306.5c0-75.3-26.7-146.4-75.2-200.1c-24-26.6-52.1-47.5-83.5-62.2c-32.9-15.4-67.8-23.2-103.9-23.2
	H2449.7c6.2-62.1,9.3-125.9,9.3-190.4c0-128-19.6-257.1-58.4-383.8c-35.4-115.9-86.6-226.5-144.1-311.4
	c-26.3-38.8-52.4-70.1-77.5-92.9C2147.5,13.9,2119,0,2091.7,0c-27.2,0-55.8,13.9-87.3,42.5c-25.1,22.8-51.2,54.1-77.5,92.9
	c-57.5,84.9-108.7,195.5-144.1,311.4c-38.7,126.6-58.4,255.8-58.4,383.8c0,64.5,3.1,128.3,9.3,190.4h-1263
	c-76.2,0-148.5,35.8-198.4,98.3c-41.5,51.9-64.3,118.3-64.3,187.2v1809.2c0,75.3,26.7,146.3,75.2,200c13.2,14.6,27.5,27.4,43,38.5
	H48.5c-26.8,0-48.5,21.7-48.5,48.5v1.5c0,55.7,10.2,110,29.5,157c37.5,91.4,104.7,146,179.6,146h3807.5c74.9,0,142.1-54.6,179.7-146
	c19.3-47.1,29.6-101.4,29.6-157C4225.9,3403.4,4225.8,3402.5,4225.8,3401.6z"/>
<g>
	<g>
		<path class="st1" d="M4177.4,3404.2c0-0.5,0-1,0-1.5H48.5c0,0.5,0,1,0,1.5c0,51.1,9.5,98.7,25.9,138.6h4077
			C4167.8,3502.9,4177.4,3455.3,4177.4,3404.2z"/>
		<path class="st2" d="M74.4,3542.8c28.6,69.8,78.3,115.9,134.8,115.9h3807.5c56.5,0,106.1-46.1,134.8-115.9H74.4z"/>
	</g>
	<path class="st3" d="M436.6,1227.1v718.9v535v714.1h3352.7v-420.8v-272.5V1227.1H436.6z"/>
	<path class="st4" d="M1509.7,3530.7c0,33,26.7,59.7,59.7,59.7h1086.9c33,0,59.8-26.7,59.8-59.7l0,0c0-33-26.7-59.7-59.8-59.7
		H1569.5C1536.5,3470.9,1509.7,3497.7,1509.7,3530.7L1509.7,3530.7z"/>
	<path class="st5" d="M2053.2,1147.8c0,33,26.7,59.7,59.8,59.7c32.9,0,59.7-26.7,59.7-59.7c0-33-26.7-59.7-59.7-59.7
		C2079.9,1088.1,2053.2,1114.8,2053.2,1147.8z"/>
	<g>
		<polygon class="st6" points="436.6,1227.1 436.6,3195.1 3789.2,3195.1 3789.2,3193.2 442.1,1227.1 		"/>
		<path class="st1" d="M3789.2,1227.1v1966.1l129.1,75.8c31.8-41.3,50.9-94.8,50.9-153.3V1306.5c0-130.9-95.9-236.9-214.1-236.9
			H470.8c-63.9,0-121.3,31-160.5,80.1l131.9,77.5H3789.2z"/>
		<path class="st2" d="M3789.2,3193.2v1.9H436.6v-1968h5.6l-131.9-77.5c-33.4,41.8-53.7,96.7-53.7,156.9v1809.2
			c0,130.8,95.9,236.9,214.2,236.9h3284.3c65.4,0,123.9-32.5,163.2-83.6L3789.2,3193.2z"/>
	</g>
	<g>
		<g>
			<path class="st7" d="M3044.6,2721.2l99.6,42.5c0,0,91.6-74.4,203.2-58.5c91.8,13.1,143.4,58.4,175.3,138.1L3786,2990l2.2,203.9
				l-1296-42.5l-324-260.3l196.5-201.8L3044.6,2721.2z"/>
			<g>
				<path class="st7" d="M2167,2587c8.2,21.4,17,43,26.4,64.8l0.2,0c2.6-0.2,5.2-0.3,7.8-0.4c2.9-0.1,5.8-0.1,8.7-0.1
					c3.7,0,7.4,0.2,11.1,0.4c1.2,0.1,2.4,0.2,3.6,0.3c2.4,0.2,4.9,0.4,7.2,0.7c1.5,0.2,2.9,0.4,4.3,0.6c2.1,0.3,4.3,0.6,6.4,0.9
					c1.5,0.3,3,0.6,4.5,0.9c2,0.4,4,0.8,6,1.2c1.6,0.3,3.1,0.8,4.6,1.1c1.9,0.5,3.8,0.9,5.7,1.5c1.6,0.4,3.1,0.9,4.6,1.4
					c1.8,0.6,3.7,1.1,5.5,1.7c1.5,0.5,3.1,1.1,4.6,1.6c1.8,0.6,3.5,1.3,5.3,2c1.5,0.6,3.1,1.2,4.6,1.9c1.7,0.7,3.4,1.4,5.1,2.2
					c1.5,0.7,3,1.4,4.5,2.1c1.6,0.8,3.3,1.6,4.9,2.4c1.5,0.8,2.9,1.5,4.4,2.3c1.6,0.9,3.2,1.8,4.7,2.7c1.4,0.8,2.8,1.7,4.3,2.5
					c1.6,1,3.1,1.9,4.6,2.9c1.4,0.9,2.7,1.8,4.1,2.7c1.5,1,3,2.1,4.5,3.1c1.3,0.9,2.6,1.9,3.9,2.9c1.5,1.1,2.9,2.3,4.4,3.4
					c1.2,1,2.5,2,3.7,3c1.5,1.2,2.9,2.5,4.3,3.7c1.2,1,2.3,2,3.4,3.1c1.5,1.3,2.9,2.7,4.3,4.1c1,1,2.1,2,3.1,3.1
					c1.5,1.5,2.9,3,4.3,4.6c0.7,0.8,1.5,1.5,2.2,2.3c0.2,0.2,0.4,0.4,0.6,0.6c1.1,1.2,2.1,2.4,3.1,3.6c1.1,1.3,2.2,2.6,3.3,3.9
					c1,1.2,1.9,2.4,2.9,3.7c1.1,1.4,2.1,2.7,3.1,4.1c0.9,1.2,1.8,2.5,2.7,3.8c1,1.4,2,2.8,3,4.3c0.9,1.3,1.7,2.6,2.5,3.9
					c0.9,1.5,1.9,3,2.8,4.5c0.8,1.3,1.5,2.6,2.3,4c0.9,1.5,1.7,3.1,2.6,4.6c0.4,0.7,0.8,1.5,1.2,2.2h751.4c0,0,0.6-32.8-20.5-62.7
					c-0.9-0.9-1.8-1.9-2.5-2.7c-0.6-0.6-1.2-1.2-1.8-1.9c-1.8-1.8-3.6-3.5-5.5-5.2c-0.2-0.2-0.5-0.5-0.7-0.7
					c-2.2-1.9-4.4-3.8-6.6-5.6c-0.5-0.4-0.9-0.7-1.4-1.1c-1.8-1.4-3.6-2.7-5.4-4c-0.8-0.6-1.7-1.1-2.5-1.7c-1.5-1-3-2-4.6-3
					c-1-0.6-2-1.2-3-1.8c-1.4-0.9-2.9-1.7-4.3-2.5c-1.1-0.6-2.2-1.2-3.2-1.7c-1.4-0.7-2.8-1.5-4.3-2.2c-1.1-0.5-2.3-1.1-3.4-1.6
					c-1.4-0.6-2.8-1.3-4.3-1.9c-1.2-0.5-2.4-1-3.6-1.4c-1.4-0.6-2.9-1.1-4.3-1.6c-1.2-0.4-2.5-0.9-3.7-1.3c-1.5-0.5-2.9-0.9-4.4-1.3
					c-1.2-0.4-2.5-0.7-3.8-1.1c-1.5-0.4-3-0.7-4.5-1.1c-1.7-0.3-3.2-0.6-4.7-1c-1.2-0.2-2.5-0.5-3.7-0.7c-1.2-0.2-2.4-0.4-3.7-0.6
					c-1.7-0.3-3.4-0.4-5.1-0.6c-1.1-0.1-2.2-0.3-3.3-0.4c-2.2-0.2-4.4-0.3-6.6-0.4c-0.6,0-1.3-0.1-1.9-0.1c-2.8-0.1-5.7-0.1-8.5,0
					c-3.1,0.1-6.2,0.2-9.3,0.5c-15.9,1.3-31.9,5.2-47.4,11.9c-5,2.2-9.8,4.6-14.5,7.2c5-19.3,3.9-40.2-4.6-59.9
					c-1.2-2.7-2.5-5.3-3.9-7.9c-0.4-0.8-0.9-1.5-1.4-2.3c-1-1.7-2.1-3.4-3.2-5.1c-0.6-0.8-1.1-1.7-1.7-2.5c-1.1-1.6-2.3-3.1-3.5-4.5
					c-0.6-0.7-1.2-1.5-1.8-2.2c-1.5-1.7-3.1-3.4-4.8-5c-0.3-0.3-0.6-0.7-1-1c-2-1.9-4-3.7-6.2-5.4c-0.7-0.5-1.3-1-2-1.5
					c-1.5-1.2-3.1-2.3-4.7-3.3c-0.8-0.6-1.7-1.1-2.5-1.6c-1.6-1-3.1-1.9-4.8-2.7c-0.8-0.4-1.6-0.9-2.5-1.3c-2.1-1-4.2-2-6.4-2.9
					c-0.4-0.1-0.7-0.3-1.1-0.5c-2.5-1-5.1-1.9-7.6-2.6c-0.8-0.2-1.6-0.4-2.4-0.6c-1.9-0.5-3.7-1-5.6-1.3c-0.9-0.2-1.9-0.4-2.8-0.5
					c-1.9-0.3-3.7-0.6-5.6-0.8c-0.9-0.1-1.7-0.2-2.6-0.3c-2.5-0.2-5.1-0.3-7.7-0.3c-0.2,0-0.4,0-0.5,0c-2.8,0-5.5,0.2-8.3,0.5
					c-0.8,0.1-1.7,0.2-2.5,0.3c-2,0.3-3.9,0.5-5.9,0.9c-1,0.2-1.9,0.4-2.9,0.6c-1.9,0.4-3.9,0.9-5.8,1.5c-0.9,0.3-1.7,0.5-2.6,0.8
					c-2.7,0.9-5.5,1.9-8.2,3c-0.3,0.1-0.5,0.2-0.8,0.4c-2,0.9-3.9,1.8-5.7,2.8c-0.6,0.3-1.3,0.7-1.9,1c-1.5,0.8-2.9,1.6-4.3,2.5
					c-0.6,0.4-1.2,0.8-1.8,1.2c-1.5,1-2.9,2-4.4,3.1c-0.4,0.3-0.8,0.6-1.3,0.9c-1.8,1.4-3.5,2.8-5.1,4.3c-0.5,0.4-0.9,0.8-1.3,1.3
					c-1.2,1.2-2.5,2.4-3.6,3.6c-0.5,0.5-1,1.1-1.5,1.6c-1.1,1.2-2.2,2.5-3.2,3.7c-0.4,0.5-0.8,1-1.2,1.5c-1.4,1.8-2.7,3.6-4,5.5
					c-0.1,0.2-0.2,0.4-0.4,0.6c-1.1,1.7-2.2,3.4-3.2,5.2c-0.3,0.6-0.6,1.1-0.9,1.7c-0.8,1.5-1.6,3-2.3,4.5c-0.3,0.6-0.6,1.1-0.8,1.7
					c-0.9,2-1.8,4-2.5,6.1c0,0,0,0.1,0,0.1c-0.8,2.1-1.5,4.3-2.1,6.5c-0.2,0.5-0.3,1.1-0.4,1.6c-0.5,1.7-0.9,3.4-1.2,5.1
					c-0.2,1.1-0.5,2.2-0.7,3.4c-42.5-33.8-101.7-43.7-155-20.7c-10.5,4.5-20.1,10.1-29,16.5l-18.1-2.5c-2.4-8.3-5.3-16.5-8.8-24.7
					c-1.3-3-2.7-6-4.1-8.9c-0.4-0.9-0.9-1.8-1.4-2.7c-1-2-2.1-4-3.1-6c-0.6-1-1.1-2-1.7-3c-1.1-1.9-2.2-3.7-3.3-5.6
					c-0.6-1-1.2-1.9-1.7-2.8c-1.3-2-2.5-3.9-3.8-5.8c-0.5-0.7-1-1.4-1.5-2.2c-1.8-2.6-3.7-5.2-5.6-7.7c-0.2-0.2-0.3-0.4-0.5-0.6
					c-1.8-2.3-3.6-4.5-5.5-6.8c-0.6-0.8-1.3-1.5-1.9-2.2c-1.2-1.4-2.5-2.8-3.7-4.2c-3.1-3.4-6.3-6.7-9.7-9.9
					c-0.6-0.6-1.3-1.2-1.9-1.7c-3-2.8-6.1-5.5-9.3-8.2c-0.7-0.5-1.3-1.1-2-1.6c-3.6-2.9-7.2-5.6-10.9-8.2c-0.9-0.6-1.7-1.2-2.6-1.8
					c-3.7-2.5-7.4-4.9-11.2-7.2c-0.2-0.1-0.4-0.3-0.7-0.4c-4-2.3-8.1-4.5-12.2-6.6c-0.9-0.5-1.9-0.9-2.8-1.4
					c-4.1-2-8.3-3.9-12.5-5.6c-0.6-0.2-1.2-0.5-1.8-0.7c-3.9-1.5-7.8-2.9-11.8-4.3c-0.8-0.3-1.7-0.6-2.5-0.8
					c-4.4-1.4-8.8-2.6-13.2-3.7c-0.9-0.2-1.8-0.4-2.7-0.6c-4.2-1-8.4-1.8-12.7-2.5c-0.5-0.1-0.9-0.2-1.4-0.3
					c-4.6-0.7-9.2-1.2-13.9-1.7c-1-0.1-2-0.2-3-0.2c-4.7-0.3-9.4-0.6-14.1-0.6c-0.3,0-0.7,0-1,0c-4.5,0-9,0.2-13.5,0.4
					c-1,0.1-1.9,0.1-2.9,0.2c-4.7,0.4-9.3,0.9-14,1.5c-0.8,0.1-1.7,0.3-2.5,0.4c-4.3,0.7-8.6,1.5-12.9,2.4c-0.7,0.2-1.4,0.3-2.1,0.4
					c-4.7,1.1-9.3,2.4-13.9,3.8c-1,0.3-2,0.6-3,1c-4.7,1.5-9.4,3.2-14.1,5.1c-42.1-74.8-79.8-490.3-100.5-626.5l-115,17.5
					C2061.6,1905.3,2086.4,2377.3,2167,2587z"/>
				<path class="st8" d="M2391.6,2761.5c-0.8-1.6-1.7-3.1-2.6-4.6c-0.8-1.3-1.5-2.6-2.3-4c-0.9-1.5-1.8-3-2.8-4.5
					c-0.8-1.3-1.7-2.6-2.5-3.9c-1-1.4-2-2.9-3-4.3c-0.9-1.3-1.8-2.5-2.7-3.8c-1-1.4-2.1-2.7-3.1-4.1c-1-1.2-1.9-2.5-2.9-3.7
					c-1.1-1.3-2.2-2.6-3.3-3.9c-1-1.2-2.1-2.4-3.1-3.6c-0.9-1-1.8-2-2.8-3c-1.4-1.5-2.8-3.1-4.3-4.6c-1-1-2.1-2-3.1-3.1
					c-1.4-1.4-2.8-2.7-4.3-4.1c-1.1-1-2.3-2-3.4-3.1c-1.4-1.3-2.9-2.5-4.3-3.7c-1.2-1-2.5-2-3.7-3c-1.5-1.2-2.9-2.3-4.4-3.4
					c-1.3-1-2.6-1.9-3.9-2.9c-1.5-1.1-3-2.1-4.5-3.1c-1.4-0.9-2.7-1.8-4.1-2.7c-1.5-1-3.1-2-4.6-2.9c-1.4-0.9-2.8-1.7-4.3-2.5
					c-1.6-0.9-3.1-1.8-4.7-2.7c-1.5-0.8-2.9-1.6-4.4-2.3c-1.6-0.8-3.3-1.6-4.9-2.4c-1.5-0.7-3-1.4-4.5-2.1c-1.7-0.8-3.4-1.5-5.1-2.2
					c-1.5-0.6-3-1.3-4.6-1.9c-1.7-0.7-3.5-1.3-5.3-2c-1.5-0.6-3.1-1.1-4.6-1.6c-1.8-0.6-3.6-1.2-5.5-1.7c-1.5-0.5-3.1-0.9-4.6-1.4
					c-1.9-0.5-3.8-1-5.7-1.5c-1.5-0.4-3.1-0.8-4.6-1.1c-2-0.4-4-0.8-6-1.2c-1.5-0.3-3-0.6-4.5-0.9c-2.1-0.4-4.3-0.6-6.4-0.9
					c-1.4-0.2-2.9-0.4-4.3-0.6c-2.4-0.3-4.8-0.5-7.2-0.7c-1.2-0.1-2.4-0.2-3.6-0.3c-3.7-0.2-7.3-0.4-11.1-0.4c-2.9,0-5.8,0-8.7,0.1
					c-2.6,0.1-5.2,0.2-7.8,0.4l-0.2,0c-9.4-21.8-18.2-43.4-26.4-64.8c-80.6-209.7-82.1-698.2-85.1-722.5l103.8-3.4l-202,6.6
					c0,0-50.5,469.9-108.4,629.8c-11.5,31.9-24.2,63.7-38.2,94c-57.2-50.5-144.5-51.2-202.5,1.2c-13.7,12.4-24.6,26.7-32.8,42.2
					c-53.9-25.6-120.1-17.9-167.2,24.5c-2.3,2.1-4.5,4.2-6.6,6.4c-4-11.1-10.1-21.6-18.5-30.8c-34.4-38.1-93.3-41.1-131.4-6.7
					c-20,18-30.2,42.8-30.6,67.7c-53-22.8-116.6-14.4-162.2,26.8c-13.3,12-24,25.8-32,40.8h1339.5
					C2392.4,2763,2392,2762.2,2391.6,2761.5z"/>
			</g>
			<path class="st7" d="M1698.5,2647.4c-1.9-0.6-3.8-1.4-5.8-2c-2-0.5-3.8-1.1-5.8-1.3l-2.9-0.5l-2.9-0.2c-1.9-0.2-3.9,0-5.8,0
				c-1.9,0.1-3.8,0.4-5.7,0.6c-1.9,0.5-3.7,0.7-5.5,1.3c-1.8,0.6-3.6,1.1-5.3,1.9c-1.8,0.6-3.4,1.5-5,2.4c-1.6,0.8-3.1,2-4.7,2.9
				c-1.4,1.2-2.9,2.2-4.2,3.5c-1.3,1.3-2.7,2.4-3.8,3.9c-0.6,0.7-1.2,1.3-1.8,2l-1.5,2.2c-1.1,1.4-1.8,3.1-2.8,4.6l-0.3,0.6l0,0
				c0.1-0.1-0.1,0.2,0.1-0.2l0,0l0,0.1l-0.1,0.2l-0.2,0.3l-0.6,1.4c-0.4,0.9-1,1.9-1.1,2.6c-0.5,1.6-1.1,3.1-1.5,4.8
				c-0.5,1.7-0.7,3.4-1.1,5.1l-2.1,10.2l-9-6.3c-1.8-1.3-3.6-2.7-5.5-3.9l-2.9-1.7l-1.4-0.9l-0.4-0.2l0,0c-0.3-0.2,0.4,0.2,0.3,0.2
				l0,0l-0.1,0l-0.2-0.1l-0.8-0.4l-3.4-1.6l-1.7-0.8l-1.5-0.5c-2-0.7-3.8-1.5-6.1-2l-3.2-0.9c-1.1-0.3-2.2-0.4-3.3-0.6
				c-1.1-0.2-2.2-0.4-3.3-0.5l-3.3-0.3c-2.2-0.3-4.4-0.1-6.6-0.1c-2.2,0-4.4,0.4-6.6,0.6c-2.2,0.4-4.4,0.8-6.5,1.3
				c-2.1,0.7-4.3,1.1-6.3,2c-2.1,0.8-4.2,1.5-6.1,2.6l-3,1.5c-1,0.5-1.9,1.2-2.8,1.7c-1.9,1.1-3.7,2.4-5.5,3.8
				c-1.9,1.2-3.4,2.9-5.1,4.3c-1.7,1.5-3.1,3.2-4.7,4.8c-1.4,1.7-2.7,3.6-4.2,5.3l-3.8,4.8l-4.9-2.6c-1.4-0.8-2.8-1.7-4.3-2.3
				c-1.4-0.8-3-1.3-4.5-1.9c-1.6-0.5-3.1-1-4.7-1.4c-1.6-0.4-3.2-0.6-4.9-0.9c-1.7-0.1-3.3-0.4-5-0.3c-1.7-0.1-3.3,0-5,0.1
				c-1.7,0.2-3.4,0.3-5,0.7c-1.7,0.3-3.3,0.8-5,1.2c-1.6,0.6-3.3,1.1-4.8,1.8c-1.6,0.6-3.1,1.4-4.7,2.2c-0.8,0.4-1.5,0.9-2.3,1.3
				l-1.4,0.4l-0.4-0.2l0,0c0.1-0.1-0.2,0.2,0.1-0.1l0,0l0.2,0.4l-0.1,0.4l-0.5,0.5l-4.4,3.5c-1.4,1.2-2.4,2.5-3.7,3.7
				c-0.6,0.6-1.3,1.2-1.8,1.9l-1.6,2.2c-1,1.5-2.4,2.9-3.1,4.5l-2.7,4.9c0.5-1.8,1-3.6,1.5-5.5c0.4-1.9,1.4-3.5,2.1-5.3l1.2-2.6
				c0.4-0.9,1-1.7,1.6-2.5c1.1-1.6,2.1-3.4,3.4-4.9l3.8-4.1l0.5-0.5l0.2-0.3l0.1-0.1l-0.3-0.4l-0.1-0.5l0.1-0.1l1.4-0.6
				c0.8-0.6,1.6-1.2,2.4-1.7c1.6-1.2,3.3-2.3,5-3.3c1.7-1.1,3.6-1.9,5.4-2.8c1.9-0.8,3.7-1.6,5.7-2.2c1.9-0.7,3.9-1.1,5.9-1.6
				c2-0.3,4-0.8,6.1-0.9c2-0.2,4.1-0.2,6.2-0.2c2.1,0.1,4.1,0.2,6.2,0.6c2.1,0.2,4.1,0.7,6.1,1.2c2,0.6,4,1.1,6,1.9
				c2,0.7,3.9,1.6,5.8,2.5l-8.7,2.2c1.5-2.3,3-4.6,4.6-6.8c1.8-2.1,3.4-4.3,5.3-6.3c2-1.9,3.8-4,6-5.6c2.1-1.8,4.2-3.5,6.6-5
				c1.2-0.7,2.3-1.5,3.5-2.2l3.6-1.9c2.4-1.4,5-2.3,7.5-3.4c2.5-1.1,5.2-1.7,7.9-2.5c2.7-0.6,5.4-1.2,8.1-1.7
				c2.7-0.3,5.5-0.7,8.3-0.7c2.8,0,5.5-0.2,8.3,0.2l4.1,0.4c1.4,0.2,2.7,0.5,4.1,0.7c1.4,0.3,2.7,0.5,4.1,0.8l4,1.2
				c2.6,0.7,5.3,1.9,8,2.9l2,0.8l1.6,0.9l3.3,1.8l0.8,0.4l0.7,0.4l0.4,0.3l1.7,1.1l3.4,2.3c2.2,1.6,4.2,3.5,6.4,5.2l-11.1,3.9
				c0.6-2.2,1-4.5,1.8-6.6c0.7-2.1,1.6-4.3,2.7-6.5c0.5-1.2,1-1.9,1.5-2.8l0.8-1.3l0.5-0.9l0.5-0.7c1.3-1.8,2.5-3.8,4-5.4l2.2-2.5
				c0.8-0.8,1.6-1.6,2.4-2.3c1.6-1.6,3.4-2.9,5.1-4.3c1.8-1.4,3.8-2.4,5.6-3.6c2-0.9,3.9-2,6-2.8c2.1-0.8,4.1-1.6,6.2-2
				c1.1-0.3,2.1-0.6,3.2-0.8l3.2-0.5c2.1-0.4,4.3-0.3,6.4-0.4c2.1,0.1,4.3,0.1,6.4,0.4c2.1,0.3,4.2,0.6,6.2,1.2l3,0.8l2.9,1.1
				c2,0.6,3.8,1.8,5.6,2.7C1695.2,2645,1696.8,2646.3,1698.5,2647.4z"/>
			<path class="st7" d="M2189.9,2739.4l-2.3-4.7c-0.9-1.5-1.8-2.9-2.7-4.4c-1-1.4-2.1-2.8-3.1-4.1c-1.1-1.3-2.3-2.5-3.4-3.8
				c-1.2-1.2-2.5-2.3-3.7-3.4c-1.3-1.1-2.7-2-4-3l-4.2-2.6l-4.4-2.2l-4.6-1.7l-4.7-1.3c-1.6-0.3-3.2-0.6-4.8-0.8
				c-1.6-0.1-3.2-0.3-4.8-0.4c-1.6,0-3.2,0-4.8,0.1c-1.6,0.2-3.2,0.3-4.7,0.5l-4.7,0.9l-4.5,1.4l-4.4,1.3l-2.1-4.5l-2.2-4.7
				c-0.8-1.5-1.7-3-2.5-4.5c-1.9-2.9-3.8-5.7-6-8.3l-0.8-1l0-0.2l0.1-0.2l0,0c0.1,0.1-0.3-0.1,0,0.3l-0.3-0.2l-0.5-0.5l-1.9-2
				c-1.3-1.3-2.6-2.8-3.8-3.7l-3.7-3.2l-4.2-2.9c-1.3-1-2.9-1.8-4.3-2.6c-1.5-0.9-2.9-1.7-4.5-2.3c-1.6-0.7-3.1-1.4-4.6-2l-4.8-1.6
				c-1.6-0.5-3.3-0.8-4.9-1.2c-1.6-0.5-3.3-0.7-5-0.9c-3.3-0.6-6.7-0.6-10.1-0.8c-3.4,0.2-6.8,0.2-10.1,0.8l-2.5,0.3l-2.5,0.6
				c-1.6,0.4-3.3,0.7-4.9,1.3l-4.8,1.6c-1.6,0.6-3.1,1.4-4.6,2c-1.6,0.6-3,1.5-4.5,2.3c-1.4,0.9-3,1.6-4.3,2.6l-4.2,2.9l-0.3,0.2
				l-0.1,0l0,0c-0.2,0.1,0.2-0.2,0.1-0.1l-0.1,0.1l-0.5,0.5l-1.1,0.9l-2.1,1.8c-1.1,1.2-2.3,2.2-3.5,3.4c-1.1,1.3-2.4,2.4-3.4,3.8
				c-1.1,1.3-2.2,2.6-3.1,4.1c-1,1.4-1.9,2.8-2.8,4.3c-1.8,2.9-3.4,6-4.8,9.2l-4,8.8l-5.3-7.4l-0.4-0.5l0.2-0.4l0.3-0.3l0,0
				c0.4,0.5,0.1,0.1,0.2,0.2l-0.1-0.1l-0.5,0l-1-0.9l-1.8-2c-0.6-0.7-1.2-1.2-1.7-1.7l-1.7-1.6c-1-1.1-2.5-2-3.7-3.1
				c-1.2-1.1-2.7-1.8-4-2.8c-1.3-0.9-2.8-1.6-4.3-2.4c-1.4-0.8-3-1.3-4.5-2c-1.5-0.6-3.1-1-4.7-1.5c-1.6-0.4-3.2-0.7-4.9-1.1
				c-1.6-0.3-3.3-0.4-5-0.6c-1.7-0.1-3.4-0.1-5.1-0.2l-5.1,0.4l-5.1,0.8l-5,1.3l-4.9,1.8l-4.8,2.3l-4.6,2.7l4-3.6l4.4-3.2
				c1.5-0.9,3.2-1.8,4.7-2.7c1.6-0.8,3.3-1.5,5-2.2c1.7-0.6,3.5-1.2,5.3-1.7l5.5-1.1c1.9-0.2,3.7-0.4,5.6-0.6c1.9,0,3.8-0.1,5.6,0
				c1.9,0.2,3.8,0.3,5.6,0.6c1.9,0.4,3.8,0.7,5.6,1.2c1.8,0.6,3.7,1,5.5,1.7c1.8,0.8,3.6,1.4,5.3,2.3c1.7,0.9,3.5,1.7,5.1,2.8
				c1.6,1.1,3.2,2.1,4.8,3.4l2.3,2c0.8,0.7,1.6,1.3,2.1,2l1.9,1.9l0.9,0.9l0.2,0.2l0.1,0.1l0.3,0.3l0.1,0.1l0.4,0.5l-9.3,1.4
				c1.3-3.8,2.8-7.5,4.7-11c0.9-1.8,1.9-3.5,3-5.2c1-1.7,2.2-3.4,3.4-5c1.1-1.7,2.5-3.1,3.8-4.7c1.3-1.6,2.9-3,4.3-4.6l1.9-2.1
				l0.9-1.1l0.5-0.5l0.1-0.1l0.5-0.1l0.4-0.1l4.9-3.7c1.6-1.3,3.4-2.2,5.1-3.3c1.7-1.1,3.5-2.1,5.3-2.9c1.8-0.9,3.7-1.8,5.5-2.6
				l5.7-2.1c1.9-0.7,3.9-1.1,5.9-1.6l3-0.7l3-0.4c4-0.7,8.1-0.9,12.2-1c4.1,0.2,8.1,0.3,12.2,1c2,0.3,4,0.6,6,1.2
				c2,0.5,4,0.9,5.9,1.6l5.7,2.1c1.9,0.8,3.7,1.7,5.5,2.6c1.9,0.8,3.6,1.9,5.3,2.9c1.7,1.1,3.5,2,5.1,3.3l4.8,3.7l4.6,4.3
				c1.7,1.5,2.7,2.9,3.9,4.3l1.8,2.1l0.5,0.5l0.2,0.3l0.2,0.3l0,0l0.1,0.1l0.1,0.2l0.9,1.2c2.4,3.2,4.5,6.7,6.4,10.2
				c0.9,1.8,1.8,3.6,2.6,5.4l2.1,5.6l-6.6-3.2l5.6-1.3c1.9-0.3,3.8-0.5,5.7-0.7c1.9-0.1,3.8-0.1,5.7-0.1c1.9,0.1,3.8,0.3,5.7,0.5
				c1.9,0.3,3.7,0.7,5.6,1c1.8,0.5,3.6,1,5.4,1.6c1.8,0.7,3.5,1.4,5.2,2.1c1.7,0.8,3.3,1.7,4.9,2.6l4.6,3.1c1.4,1.2,2.9,2.3,4.3,3.5
				c1.3,1.3,2.6,2.6,3.9,3.9c1.2,1.4,2.3,2.8,3.4,4.3c1,1.5,2,3,3,4.5c0.8,1.6,1.7,3.2,2.5,4.8c0.6,1.7,1.3,3.3,1.9,5L2189.9,2739.4
				z"/>
			<path class="st8" d="M1143.1,2753.1l-89.8,10.7c0,0-303.9-183.1-616.6,112.6l-0.1,318.8h3352.6c0,0-80.6-224.2-351.5-224.2
				c-270.9,0-292.1,85-292.1,85s-100.9-276.2-371.8-154c0,0-106.2-233.7-382.1-140.3C2391.6,2761.5,1249.3,2689.3,1143.1,2753.1z"/>
			<path class="st7" d="M1124.8,2883.2c-2.7-0.7-5.3-1.8-7.9-2.4c-2.7-0.5-5.2-1.2-7.9-1.5l-4-0.5l-4-0.1c-2.6-0.2-5.3,0.2-7.9,0.3
				c-2.6,0.2-5.2,0.7-7.7,1.1c-2.5,0.7-5,1.1-7.4,2.1c-2.4,0.9-4.8,1.7-7.1,2.8c-2.4,0.9-4.5,2.3-6.7,3.5c-2.2,1.2-4.1,2.8-6.2,4.2
				c-1.8,1.7-3.9,3.1-5.5,5c-1.7,1.8-3.5,3.5-4.9,5.4c-0.7,1-1.6,1.9-2.3,2.9l-2,3.1c-1.4,2-2.3,4.3-3.5,6.4l-0.4,0.8l0,0.1
				c0.1-0.1-0.2,0.3,0.1-0.3l0,0l0,0.1l-0.1,0.2l-0.2,0.5l-0.8,1.9c-0.5,1.2-1.2,2.7-1.4,3.7c-0.6,2.1-1.3,4.2-1.8,6.6
				c-0.6,2.3-0.8,4.7-1.2,7l-2.4,14l-12.5-8.1c-2.6-1.7-5.1-3.5-7.7-5l-4-2.2l-2-1.1l-0.5-0.3l-0.1,0c-0.4-0.2,0.5,0.2,0.4,0.2l0,0
				l-0.1-0.1l-0.3-0.1l-1.2-0.5l-4.7-2l-2.3-1l-2.1-0.6c-2.7-0.8-5.3-1.9-8.4-2.4l-4.4-1c-1.5-0.3-3-0.4-4.5-0.6
				c-1.5-0.2-3-0.5-4.5-0.5l-4.5-0.2c-3-0.3-6,0.1-9,0.2c-3,0.1-6,0.8-9,1.2c-2.9,0.6-5.9,1.3-8.8,2.1c-2.8,1.1-5.8,1.8-8.5,3.1
				c-2.8,1.2-5.6,2.3-8.2,3.8l-4,2.2c-1.3,0.8-2.5,1.7-3.8,2.5c-2.6,1.6-4.9,3.5-7.3,5.4c-2.5,1.8-4.5,4.1-6.7,6.2
				c-2.2,2.1-4,4.6-6.1,6.8c-1.9,2.4-3.5,5-5.4,7.5l-4.9,6.8l-6.8-3.3c-2-1-3.9-2.1-5.9-2.9c-2-1-4.1-1.6-6.2-2.4
				c-2.2-0.6-4.3-1.3-6.5-1.6c-2.2-0.5-4.4-0.7-6.7-1c-2.3-0.1-4.5-0.3-6.8-0.2c-2.3,0-4.5,0.2-6.8,0.4c-2.3,0.4-4.6,0.6-6.8,1.2
				c-2.3,0.4-4.4,1.2-6.7,1.9c-2.1,0.9-4.4,1.6-6.4,2.7c-2.2,0.9-4.2,2.1-6.3,3.3c-1,0.6-2,1.3-3,2l-1.9,0.6l-0.6-0.3l0,0
				c0.1-0.1-0.2,0.2,0.2-0.2l0,0l0.3,0.5l-0.2,0.5l-0.6,0.7l-5.7,5c-1.9,1.6-3.2,3.5-4.9,5.2c-0.8,0.9-1.7,1.7-2.4,2.7l-2.1,3.1
				c-1.3,2.1-3.1,4-4,6.3l-3.5,6.8c0.5-2.5,1.1-5,1.7-7.5c0.5-2.6,1.7-4.9,2.6-7.3l1.5-3.6c0.6-1.2,1.3-2.3,2-3.5
				c1.4-2.2,2.7-4.8,4.3-6.8l4.9-5.8l0.6-0.7l0.3-0.4l0.1-0.1l-0.4-0.5l-0.2-0.7l0.2-0.2l1.9-0.9c1-0.9,2.2-1.7,3.2-2.5
				c2.1-1.7,4.3-3.3,6.6-4.8c2.2-1.6,4.7-2.8,7.1-4.1c2.5-1.1,5-2.4,7.6-3.3c2.6-1.1,5.3-1.7,7.9-2.5c2.7-0.6,5.4-1.3,8.2-1.5
				c2.8-0.4,5.6-0.5,8.4-0.6c2.8,0.1,5.6,0.1,8.4,0.4c2.8,0.2,5.6,0.8,8.4,1.3c2.7,0.7,5.5,1.3,8.2,2.3c2.7,0.8,5.3,2,8,3.1
				l-11.8,3.4c1.9-3.1,3.8-6.4,5.9-9.5c2.3-2.9,4.3-6.1,6.9-8.8c2.6-2.7,5-5.6,7.8-8c2.8-2.5,5.6-5,8.7-7.1c1.5-1.1,3-2.2,4.6-3.2
				l4.9-2.8c3.2-2,6.6-3.5,10-5.1c3.4-1.6,7-2.6,10.6-3.9c3.6-1,7.3-1.9,10.9-2.7c3.7-0.5,7.4-1.3,11.2-1.4
				c3.8-0.1,7.5-0.5,11.3-0.2l5.6,0.3c1.9,0.1,3.7,0.5,5.6,0.7c1.9,0.3,3.7,0.5,5.6,0.9l5.5,1.4c3.6,0.8,7.3,2.2,11,3.6l2.8,1
				l2.3,1.1l4.6,2.2l1.1,0.6l1,0.5l0.6,0.4l2.4,1.5l4.8,2.9c3.1,2.1,6,4.5,8.9,6.7l-14.9,6c0.7-3,1.1-6.1,2.1-9.1c0.8-2.9,2-6,3.3-9
				c0.6-1.6,1.3-2.6,1.9-3.9l1-1.8l0.7-1.2l0.6-1c1.7-2.6,3.2-5.2,5.2-7.6l2.9-3.6c1-1.2,2.1-2.2,3.1-3.3c2.1-2.3,4.4-4.2,6.7-6.1
				c2.3-2,5-3.4,7.4-5.1c2.7-1.4,5.2-2.9,8-4.1c2.8-1.1,5.5-2.3,8.4-3.1c1.4-0.4,2.8-0.9,4.3-1.2l4.4-0.8c2.9-0.6,5.9-0.6,8.7-0.9
				c2.9,0,5.8-0.1,8.7,0.2c2.9,0.3,5.7,0.6,8.5,1.3l4.2,1l4,1.4c2.7,0.8,5.3,2.2,7.8,3.3C1120.2,2880.2,1122.5,2881.7,1124.8,2883.2
				z"/>
			<path class="st7" d="M2005.4,3082.2l-4-7.9c-1.5-2.5-3.1-5-4.6-7.4c-1.7-2.4-3.5-4.6-5.2-6.9c-1.9-2.2-3.9-4.3-5.8-6.4
				c-2-2-4.2-3.8-6.3-5.7c-2.2-1.8-4.5-3.4-6.7-5.1l-7.1-4.4l-7.5-3.7l-7.7-2.9l-7.9-2.2c-2.7-0.5-5.4-1-8.1-1.4
				c-2.7-0.2-5.4-0.5-8.1-0.6c-2.7,0.1-5.4,0-8.1,0.2c-2.7,0.3-5.4,0.5-8,0.8l-7.8,1.6l-7.6,2.3l-7.5,2.3l-3.6-7.7l-3.7-7.9
				c-1.4-2.6-2.9-5-4.3-7.6c-3.1-4.9-6.4-9.6-10.1-14l-1.3-1.7l0.1-0.4l0.1-0.3l0,0c0.1,0.2-0.6-0.2,0.1,0.5l-0.5-0.3l-0.9-0.8
				l-3.3-3.4c-2.2-2.2-4.4-4.7-6.5-6.3l-6.2-5.3l-7-4.9c-2.3-1.8-4.9-3-7.3-4.4c-2.5-1.4-4.9-2.9-7.6-3.9c-2.6-1.1-5.2-2.4-7.8-3.4
				l-8.1-2.7c-2.7-0.9-5.5-1.4-8.3-2.1c-2.7-0.8-5.6-1.2-8.4-1.6c-5.6-1.1-11.3-1.1-17-1.4c-5.7,0.3-11.4,0.3-17,1.3l-4.2,0.6
				l-4.1,1c-2.7,0.7-5.6,1.1-8.2,2.1l-8.1,2.7c-2.7,1-5.2,2.3-7.8,3.4c-2.7,1-5.1,2.5-7.6,4c-2.4,1.5-5.1,2.6-7.3,4.4l-7,5l-0.4,0.3
				l-0.1,0.1l-0.1,0c-0.3,0.2,0.3-0.3,0.2-0.2l-0.2,0.2l-0.9,0.8l-1.8,1.5l-3.6,3c-1.9,2-3.9,3.7-5.9,5.8c-1.9,2.1-4,4.1-5.7,6.4
				c-1.8,2.2-3.7,4.4-5.3,6.8c-1.7,2.3-3.3,4.8-4.8,7.2c-3.1,4.9-5.6,10.1-8,15.4l-6.7,14.9l-8.9-12.4l-0.6-0.9l0.4-0.7l0.5-0.6l0,0
				c0.7,0.8,0.2,0.2,0.3,0.4l-0.1-0.1l-0.9,0.1l-1.7-1.5l-3-3.3c-1-1.3-2-2-2.9-2.9l-2.8-2.7c-1.7-1.9-4.2-3.4-6.2-5.1
				c-2.1-1.8-4.5-3.1-6.7-4.7c-2.2-1.6-4.8-2.7-7.2-4c-2.4-1.3-5.1-2.2-7.6-3.3c-2.6-1-5.3-1.7-7.9-2.6c-2.7-0.7-5.5-1.1-8.2-1.8
				c-2.8-0.5-5.6-0.7-8.4-1.1c-2.8-0.1-5.7-0.2-8.5-0.3l-8.6,0.6l-8.5,1.4l-8.4,2.2l-8.2,3.1l-8,3.8l-7.7,4.6l6.7-6.1l7.4-5.4
				c2.6-1.6,5.3-3,8-4.6c2.8-1.3,5.6-2.5,8.5-3.8c2.9-1,5.9-2,8.9-2.9l9.2-1.9c3.1-0.3,6.3-0.7,9.4-1c3.1,0,6.3-0.2,9.5,0
				c3.2,0.3,6.4,0.5,9.5,1c3.1,0.7,6.3,1.1,9.4,2c3,1,6.2,1.7,9.2,2.9c3,1.3,6.1,2.3,8.9,3.8c2.8,1.6,5.9,2.9,8.5,4.7
				c2.7,1.9,5.5,3.5,8,5.7l3.9,3.3c1.3,1.1,2.6,2.2,3.6,3.3l3.1,3.2l1.6,1.6l0.4,0.4l0.1,0.1l0.4,0.5l0.2,0.2l0.8,0.9l-15.6,2.4
				c2.3-6.3,4.8-12.6,8-18.6c1.5-3,3.2-6,5.1-8.8c1.7-2.9,3.7-5.7,5.8-8.4c1.9-2.8,4.2-5.3,6.4-8c2.2-2.6,4.8-5.1,7.3-7.7l3.2-3.5
				l1.5-1.9l0.9-0.8l0.2-0.2l0.8-0.1l0.6-0.2l8.2-6.2c2.6-2.2,5.7-3.7,8.6-5.5c2.9-1.8,5.8-3.6,9-4.9c3.1-1.4,6.2-3,9.3-4.3l9.7-3.5
				c3.2-1.2,6.6-1.8,9.9-2.7l5-1.2l5.1-0.8c6.8-1.2,13.6-1.4,20.5-1.7c6.9,0.3,13.7,0.5,20.5,1.8c3.4,0.5,6.8,1,10.1,2
				c3.3,0.9,6.7,1.5,9.9,2.7l9.7,3.5c3.2,1.3,6.2,2.9,9.3,4.3c3.1,1.4,6.1,3.2,9,5c2.9,1.8,5.9,3.4,8.6,5.6l8.1,6.2l7.8,7.2
				c2.8,2.5,4.5,4.8,6.7,7.2l3.1,3.6l0.8,0.9l0.4,0.4l0.4,0.5l0.1,0.1l0.1,0.1l0.2,0.3l1.5,2.1c4.1,5.4,7.6,11.2,10.8,17.2
				c1.4,3.1,3,6.1,4.3,9.2l3.6,9.4l-11.1-5.4l9.5-2.1c3.2-0.5,6.4-0.8,9.6-1.2c3.2-0.2,6.4-0.2,9.6-0.2c3.2,0.1,6.4,0.5,9.6,0.8
				c3.2,0.5,6.3,1.2,9.4,1.7c3.1,0.8,6.1,1.8,9.1,2.6c3,1.1,5.9,2.3,8.8,3.5c2.8,1.4,5.6,2.9,8.3,4.4l7.8,5.2c2.4,2,4.9,3.9,7.2,5.9
				c2.2,2.2,4.4,4.3,6.5,6.5c2,2.4,3.9,4.7,5.8,7.2c1.7,2.6,3.4,5.1,5,7.7c1.4,2.7,2.9,5.3,4.2,8.1c1.1,2.8,2.2,5.6,3.2,8.4
				L2005.4,3082.2z"/>
			<path class="st7" d="M2889,3084l-4-7.9c-1.5-2.5-3.1-5-4.6-7.4c-1.7-2.4-3.5-4.6-5.2-6.9c-1.9-2.2-3.9-4.3-5.8-6.4
				c-2-2-4.2-3.8-6.3-5.7c-2.2-1.8-4.5-3.4-6.7-5.1l-7.1-4.4l-7.5-3.7l-7.7-2.9l-7.9-2.2c-2.7-0.5-5.4-1-8.1-1.4
				c-2.7-0.2-5.4-0.5-8.1-0.6c-2.7,0.1-5.4,0-8.1,0.2c-2.7,0.4-5.4,0.5-8,0.8l-7.8,1.6l-7.6,2.3l-7.5,2.3l-3.6-7.7l-3.7-7.9
				c-1.4-2.6-2.9-5-4.3-7.6c-3.1-4.9-6.4-9.6-10.1-14l-1.3-1.7l0.1-0.4l0.1-0.3l0,0c0.1,0.2-0.6-0.2,0.1,0.5l-0.5-0.3l-0.9-0.8
				l-3.3-3.4c-2.2-2.2-4.4-4.7-6.5-6.3l-6.2-5.3l-7-4.9c-2.3-1.8-4.9-3-7.3-4.4c-2.5-1.4-4.9-2.9-7.6-3.9c-2.6-1.1-5.2-2.4-7.8-3.4
				l-8.1-2.7c-2.7-0.9-5.5-1.4-8.3-2.1c-2.7-0.8-5.6-1.2-8.4-1.6c-5.6-1.1-11.3-1.1-17-1.4c-5.7,0.3-11.4,0.3-17,1.3l-4.2,0.6
				l-4.1,1c-2.7,0.7-5.6,1.1-8.2,2.1l-8.1,2.7c-2.7,1-5.2,2.3-7.8,3.4c-2.7,1-5.1,2.5-7.6,4c-2.4,1.5-5.1,2.6-7.3,4.4l-7,4.9
				l-0.4,0.3l-0.1,0.1l-0.1,0c-0.3,0.2,0.3-0.3,0.2-0.2l-0.2,0.2l-0.9,0.8l-1.8,1.5l-3.6,3c-1.9,2-3.9,3.7-5.9,5.8
				c-1.9,2.1-4,4.1-5.7,6.4c-1.8,2.2-3.7,4.4-5.2,6.8c-1.7,2.3-3.3,4.8-4.8,7.2c-3.1,4.9-5.6,10.1-8,15.4l-6.7,14.9l-8.9-12.4
				l-0.6-0.9l0.4-0.7l0.5-0.6l0,0c0.7,0.8,0.2,0.2,0.3,0.4l-0.1-0.1l-0.9,0.1l-1.7-1.5l-3-3.3c-1-1.3-2-2-2.9-2.9l-2.8-2.7
				c-1.8-1.9-4.2-3.4-6.2-5.1c-2.1-1.8-4.5-3.1-6.7-4.7c-2.2-1.6-4.8-2.7-7.2-4c-2.4-1.3-5.1-2.2-7.6-3.3c-2.6-1-5.3-1.7-7.9-2.6
				c-2.7-0.7-5.5-1.1-8.2-1.8c-2.8-0.5-5.6-0.7-8.4-1.1c-2.8-0.2-5.7-0.2-8.5-0.3l-8.6,0.6l-8.5,1.4l-8.4,2.2l-8.2,3.1l-8,3.8
				l-7.7,4.6l6.7-6.1l7.4-5.4c2.6-1.6,5.3-3,8-4.6c2.8-1.3,5.6-2.5,8.5-3.8c2.9-1,5.9-2,8.9-2.9l9.2-1.9c3.1-0.3,6.3-0.7,9.4-1
				c3.1,0,6.3-0.2,9.5,0c3.2,0.3,6.4,0.5,9.5,1c3.1,0.7,6.3,1.1,9.4,2c3,1,6.2,1.7,9.2,2.9c3,1.3,6.1,2.3,8.9,3.8
				c2.8,1.6,5.9,2.9,8.5,4.7c2.7,1.9,5.5,3.5,8,5.7l3.9,3.3c1.3,1.1,2.6,2.2,3.6,3.3l3.1,3.2l1.6,1.6l0.4,0.4l0.1,0.1l0.4,0.5
				l0.2,0.2l0.8,0.9l-15.6,2.4c2.3-6.3,4.8-12.6,8-18.6c1.5-3,3.2-6,5.1-8.8c1.7-2.9,3.7-5.7,5.8-8.4c1.9-2.8,4.2-5.3,6.4-8
				c2.2-2.6,4.8-5.1,7.3-7.7l3.2-3.5l1.5-1.9l0.9-0.8l0.2-0.2l0.8-0.1l0.6-0.2l8.2-6.1c2.6-2.2,5.7-3.7,8.6-5.6
				c2.9-1.8,5.8-3.6,9-4.9c3.1-1.4,6.2-3,9.3-4.3l9.7-3.5c3.2-1.2,6.6-1.8,9.9-2.7l5-1.2l5.1-0.8c6.8-1.2,13.6-1.4,20.5-1.7
				c6.8,0.3,13.7,0.5,20.5,1.8c3.4,0.5,6.8,1,10.1,2c3.3,0.9,6.7,1.5,9.9,2.7l9.7,3.5c3.2,1.3,6.2,2.9,9.3,4.3c3.1,1.4,6.1,3.2,9,5
				c2.9,1.8,5.9,3.4,8.6,5.6l8.1,6.2l7.8,7.2c2.8,2.5,4.5,4.8,6.7,7.2l3.1,3.6l0.8,0.9l0.4,0.4l0.4,0.5l0.1,0.1l0.1,0.1l0.2,0.3
				l1.5,2.1c4.1,5.4,7.6,11.2,10.8,17.2c1.4,3.1,3,6.1,4.3,9.2l3.6,9.4l-11.1-5.4l9.5-2.1c3.2-0.5,6.4-0.8,9.6-1.2
				c3.2-0.2,6.4-0.2,9.6-0.2c3.2,0.1,6.4,0.5,9.6,0.8c3.2,0.5,6.3,1.2,9.4,1.7c3.1,0.8,6.1,1.7,9.1,2.6c3,1.1,5.9,2.3,8.8,3.5
				c2.8,1.4,5.6,2.9,8.3,4.4l7.8,5.2c2.4,2,4.9,3.9,7.2,5.9c2.2,2.2,4.4,4.3,6.5,6.5c2,2.4,3.9,4.7,5.8,7.2c1.7,2.6,3.4,5.1,5,7.6
				c1.4,2.7,2.9,5.3,4.2,8.1c1.1,2.8,2.2,5.6,3.2,8.4L2889,3084z"/>
		</g>
		<g>
			<path class="st9" d="M2301,1674.6c0,147.2-208.5,345.4-208.5,345.4S1884,1821.8,1884,1674.6c0-147.2,93.3-187.6,208.5-187.6
				C2207.6,1487,2301,1527.5,2301,1674.6z"/>
			<path class="st10" d="M2236.4,1645.5c0,101.6-143.9,238.4-143.9,238.4s-143.9-136.8-143.9-238.4c0-101.6,64.4-129.5,143.9-129.5
				C2171.9,1516.1,2236.4,1543.9,2236.4,1645.5z"/>
			<path class="st11" d="M2175.8,1596.9c0,58.8-83.3,138.1-83.3,138.1s-83.4-79.2-83.4-138.1s37.3-75,83.4-75
				C2138.5,1521.9,2175.8,1538.1,2175.8,1596.9z"/>
			<g>
				<g>
					<path class="st12" d="M1922.3,1148c0,0-287.1,150.7-287.1,477.3c0,0,17.9,35.9,46.6-7.2c28.7-43.1,53.8-161.5,236.9-161.5
						L1922.3,1148z"/>
					<path class="st13" d="M2261.1,1148c0,0,287.1,150.7,287.1,477.3c0,0-18,35.9-46.7-7.2c-28.7-43.1-53.8-161.5-236.9-161.5
						L2261.1,1148z"/>
				</g>
				<g>
					<path class="st4" d="M2410.5,830.7c0-133.7-22.6-259.6-56.2-369.7h-262.5v111.7c97.1,0,175.9,78.7,175.9,175.9
						c0,97.1-78.7,175.9-175.9,175.9v565.2h171.8C2351.9,1350.6,2410.5,1107.4,2410.5,830.7z"/>
					<path class="st4" d="M1915.9,748.6c0-97.1,78.7-175.9,175.9-175.9V461h-262.5c-33.7,110.1-56.2,236-56.2,369.7
						c0,276.7,58.6,519.9,146.9,659h171.8V924.5C1994.6,924.5,1915.9,845.7,1915.9,748.6z"/>
					<path class="st14" d="M1922.4,1490.2c-4.4,0-8,3.6-8,8v37.5c0,4.4,3.6,8,8,8h169.4v-53.6H1922.4z"/>
					<path class="st15" d="M2260.9,1490.2h-169.2v53.6h169.2c4.4,0,8.1-3.6,8.1-8v-37.5C2269,1493.8,2265.4,1490.2,2260.9,1490.2z"
						/>
					<path class="st15" d="M2212.2,748.6c0,66.6-54,120.5-120.5,120.5v55.4c97.1,0,175.9-78.7,175.9-175.9
						c0-97.1-78.7-175.9-175.9-175.9v55.4C2158.3,628.1,2212.2,682,2212.2,748.6z"/>
					<path class="st14" d="M1915.9,748.6c0,97.1,78.7,175.9,175.9,175.9v-55.4c-66.6,0-120.5-54-120.5-120.5
						c0-66.6,53.9-120.5,120.5-120.5v-55.4C1994.6,572.7,1915.9,651.5,1915.9,748.6z"/>
					<path class="st16" d="M2212.2,748.6c0-66.6-54-120.5-120.5-120.5v241C2158.3,869.1,2212.2,815.1,2212.2,748.6z"/>
					<path class="st17" d="M1971.2,748.6c0,66.6,53.9,120.5,120.5,120.5v-241C2025.2,628.1,1971.2,682,1971.2,748.6z"/>
				</g>
			</g>
			<g>
				<path class="st13" d="M2091.7,48.5V461h262.5C2279.2,215.5,2149.1,48.5,2091.7,48.5z"/>
				<path class="st12" d="M2091.7,48.5c-57.3,0-187.5,167-262.5,412.5h262.5V48.5L2091.7,48.5z"/>
				<path class="st13" d="M2102.8,1237.4c-0.9-0.3-1.8-0.4-2.8-0.4h-0.2h-8.1v402.8h9h0.2c5,0,9.2-4.1,9.2-9.1v-12.2l0.3-17.7
					l25.4-323.9C2135.9,1243.9,2108.4,1238.8,2102.8,1237.4z"/>
				<path class="st12" d="M2082.7,1236.9h-0.2c-1,0-1.9,0.2-2.8,0.4c-1.6,0.4-3.4,1.1-5.2,2.1c-10,3.3-27,12-27,37.7l25.4,324.2
					l0.3,16.4v12.2c0,3.8,2.4,7.1,5.7,8.5c1.3,0.7,2.8,1.1,4.4,1.1h0.2h8.1v-402.8H2082.7z"/>
			</g>
		</g>
	</g>
</g>
</svg>
