<?xml version="1.0" encoding="utf-8"?>
<!-- Generator: Adobe Illustrator 21.0.2, SVG Export Plug-In . SVG Version: 6.00 Build 0)  -->
<svg version="1.1" id="Слой_1" xmlns="http://www.w3.org/2000/svg" xmlns:xlink="http://www.w3.org/1999/xlink" x="0px" y="0px"
	 viewBox="0 0 380.8 260.8" style="enable-background:new 0 0 380.8 260.8;" xml:space="preserve">
<style type="text/css">
	.st0{fill:#37353F;}
	.st1{fill:#42404C;}
	.st2{fill:#BA955E;}
	.st3{fill:#8C7045;}
	.st4{fill:#CAA367;}
	.st5{fill:#A98854;}
	.st6{fill:#D5B889;}
	.st7{fill:#FFFFFF;}
	.st8{fill:#C7AF86;}
	.st9{fill:#454545;}
	.st10{fill:#161718;}
	.st11{fill:#3A3B44;}
	.st12{fill:#F5F5F5;}
	.st13{fill:#3E5067;}
	.st14{fill:#4D7E9F;}
	.st15{fill:#F8E4D8;}
	.st16{fill:#79ABC7;}
	.st17{fill:#A4BB90;}
	.st18{fill:#DE9649;}
	.st19{fill:#5C5C5C;}
	.st20{fill:#6E6E6E;}
	.st21{fill:#E8E8E8;}
	.st22{fill:#E8C5AC;}
	.st23{fill:#724E39;}
	.st24{fill:#7B543C;}
	.st25{fill:#F0F0F0;}
	.st26{fill:#583535;}
	.st27{fill:#4F4F4F;}
	.st28{fill:#575757;}
</style>
<polyline class="st0" points="10.6,3.9 367,3.9 367,187.6 10.6,187.6 "/>
<polyline class="st1" points="17.6,11.1 360,11.1 360,180.4 17.6,180.4 "/>
<polyline class="st2" points="6.7,0 370.9,0 370.9,191.5 6.7,191.5 "/>
<polyline class="st2" points="14.4,183.7 363.2,183.7 363.2,7.8 14.4,7.8 "/>
<polygon class="st3" points="362.3,7.8 363.2,7.8 363.2,8.7 370.9,0.9 370.9,0 370,0 "/>
<polygon class="st3" points="362.3,183.7 363.2,183.7 363.2,182.8 370.9,190.6 370.9,191.5 370,191.5 "/>
<polyline class="st4" points="0,191.1 377.6,191.1 377.6,205.9 0,205.9 "/>
<polyline class="st5" points="0,203.3 377.6,203.3 377.6,205.9 0,205.9 "/>
<polyline class="st6" points="0,191.1 377.6,191.1 377.6,193.7 0,193.7 "/>
<path class="st7" d="M318.1,191h-13.4c-0.9,0-1.6-0.7-1.6-1.6c0-0.9,0.7-1.6,1.6-1.6h13.4c0.9,0,1.6,0.7,1.6,1.6
	C319.7,190.2,319,191,318.1,191z"/>
<g>
	<rect x="324.5" y="181.2" class="st7" width="25.6" height="9.9"/>
	<rect x="324.5" y="181.2" class="st8" width="25.6" height="7.8"/>
</g>
<g>
	<path class="st7" d="M139.1,129.5L139.1,129.5c-3.8-8.9-8.2-13.7-8.2-13.7c0,0-0.2-0.2-0.6-0.5c-0.8-0.6-2.5-1.8-5.1-2.9
		c-7.4,20.9-1.1,35.6,1.2,40c0.7-5.2,1.4-10.3,2-14.7c1.5,2.6,4.2,7.8,5.1,12.5c3.8-0.7,7-2.7,10.3-4.6
		C142.7,139.3,141,133.9,139.1,129.5z"/>
	<path class="st7" d="M110.9,111.1c-3.6,3.4-8.7,14.3-13.6,14.4c-6.2,0.2-10.2-11.6-15.1-14.7c-0.3,0-0.7,0-1,0
		c1.1,5.5,4.5,18.4,14.4,31c0,0,1,4.3,1.6,10.9c0.7-6.5,1.6-10.8,1.6-10.8c9.8-12.5,13.3-25.3,14.4-30.9
		C112.5,111.2,111.7,111.1,110.9,111.1z"/>
	<path class="st7" d="M69.4,112.2c-0.1,0-0.1,0-0.2,0.1c-0.9,0.5-1.8,0.8-2.5,1.2c-1.9,1.1-3,2-3.1,2.1c0,0,0,0,0,0
		c0,0-2.5,2.7-5.3,7.8c0,0,0,0,0,0.1c0,0.1-0.1,0.2-0.1,0.2c-2.5,4.4-5.2,10.5-6.9,18.3c2.2,3.9,5.4,6.9,9.6,8.2
		c0.9-4.7,4.3-8.8,5.8-11.4c0.6,4,1.1,8.6,1.7,13.3C70.7,147.3,76.6,132.7,69.4,112.2z"/>
	<g>
		<path class="st9" d="M75.9,213.2c0,0,5.3,35.2,5.3,37.7c0,0,4.5,1.8,6.2-1.1c0,0,0-37.3,0-37.9C87.3,211.3,75.9,213.2,75.9,213.2z
			"/>
		<path class="st10" d="M83.2,254.8"/>
		<g>
			<path class="st11" d="M66.6,258.8c-0.2,0.1-0.2,0.4,0,0.6c1.3,1.2,4.2,1.3,6.9,0.5c2.8-0.7,4.1-1.8,4.7-2.6
				C74.7,258.9,70.3,260.7,66.6,258.8z"/>
			<path class="st11" d="M88.8,252.8c0,0,0.2,0.1,0.2,0.4c0,0.3,0,0.9,0,0.9s-0.4,0.6-5.2,1.4c0,0-1-0.6-0.9-1.2l0.8-0.7L88.8,252.8
				z"/>
			<path class="st12" d="M74.4,255.6c-0.9-0.9-1.7-1.4-2.9-1.6c-0.3,0.3-0.3,0.5-0.3,0.5c-0.5-0.2-1,0.4-2.7,1.3
				c-1.5,0.8-2.6,2-2,3.1c2.9,1.5,6.4,0.6,9.5-0.6C76,257.3,75.5,256.4,74.4,255.6z"/>
			<path class="st13" d="M88.4,246.9c-0.6-1-1-1-1-1c0,2.3-1.9,3.7-5,3c-1.7-0.4-1.1-1.9-2.1-1.7c-1,0.2-3.7,3.5-4.3,4
				c-0.6,0.5-2.4,2.1-3.5,2.4c-0.4,0.1-0.7,0.3-0.9,0.5c1.1,0.2,2,0.7,2.9,1.6c1,0.8,1.5,1.7,1.7,2.7c0.7-0.3,1.5-0.6,2.2-0.9
				c0,0,0,0,0,0c0.6-0.8,3.3-2,4.7-2.6c1.5-0.6,4.9-1.4,5.8-1.9C89.7,252.4,88.9,247.8,88.4,246.9z"/>
		</g>
		<circle class="st11" cx="76.7" cy="252.3" r="0.3"/>
		<path class="st11" d="M76.6,252.3c0.1,0,0.1,0,0.2,0l0,0c0-0.1,0-0.1,0-0.2l-1.2-0.9c-0.1,0-0.1,0-0.2,0l0,0c0,0.1,0,0.1,0,0.2
			L76.6,252.3z"/>
		<circle class="st11" cx="77.8" cy="251.3" r="0.3"/>
		<path class="st11" d="M77.7,251.4c0.1,0,0.1,0,0.2,0l0,0c0-0.1,0-0.1,0-0.2l-1.2-0.9c-0.1,0-0.1,0-0.2,0l0,0c0,0.1,0,0.1,0,0.2
			L77.7,251.4z"/>
		<circle class="st11" cx="78.9" cy="250.3" r="0.3"/>
		<path class="st11" d="M78.7,250.3c0.1,0,0.1,0,0.2,0l0,0c0-0.1,0-0.1,0-0.2l-1.2-0.9c-0.1,0-0.1,0-0.2,0l0,0c0,0.1,0,0.1,0,0.2
			L78.7,250.3z"/>
	</g>
	<g>
		<path class="st9" d="M118.7,213.5c0,0-5.3,35.2-5.3,37.7c0,0-4.5,1.8-6.2-1.1c0,0,0-37.3,0-37.9
			C107.3,211.7,118.7,213.5,118.7,213.5z"/>
		<path class="st10" d="M111.4,255.2"/>
		<g>
			<path class="st11" d="M128,259.2c0.2,0.1,0.2,0.4,0,0.6c-1.3,1.2-4.2,1.3-6.9,0.5c-2.8-0.7-4.1-1.8-4.7-2.6
				C119.9,259.2,124.3,261.1,128,259.2z"/>
			<path class="st11" d="M105.8,253.2c0,0-0.2,0.1-0.2,0.4c0,0.3,0,0.9,0,0.9s0.4,0.6,5.2,1.4c0,0,1-0.6,0.9-1.2l-0.8-0.7
				L105.8,253.2z"/>
			<path class="st13" d="M121.8,253.8c-1.1-0.5-2.6-1.8-3.2-2.3c-0.6-0.5-3.3-3.8-4.3-4c-1-0.2-0.4,1.3-2.1,1.7
				c-3.1,0.7-4.9-0.7-5-3c0,0-0.4,0-1,1c-0.5,0.9-1.4,5.5-0.4,5.9c0.9,0.4,4.3,1.3,5.8,1.9c1.5,0.6,4.1,1.8,4.7,2.6c0,0,0,0,0,0
				c0.6,0.2,1.2,0.5,1.8,0.7C118.6,256.4,119.8,254.7,121.8,253.8z"/>
			<path class="st12" d="M126,256.1c-1.7-0.9-2.2-1.5-2.7-1.3c0,0,0-0.6-1.1-1c-0.1,0-0.2-0.1-0.3-0.1c-2,0.9-3.3,2.7-3.7,4.7
				c3.2,1.3,6.8,2.4,9.9,0.8C128.5,258.1,127.5,256.9,126,256.1z"/>
		</g>
		<circle class="st11" cx="117.9" cy="252.6" r="0.3"/>
		<path class="st11" d="M118,252.7c-0.1,0-0.1,0-0.2,0l0,0c0-0.1,0-0.1,0-0.2l1.2-0.9c0.1,0,0.1,0,0.2,0l0,0c0,0.1,0,0.1,0,0.2
			L118,252.7z"/>
		<circle class="st11" cx="116.8" cy="251.7" r="0.3"/>
		<path class="st11" d="M116.9,251.7c-0.1,0-0.1,0-0.2,0l0,0c0-0.1,0-0.1,0-0.2l1.2-0.9c0.1,0,0.1,0,0.2,0l0,0c0,0.1,0,0.1,0,0.2
			L116.9,251.7z"/>
		<circle class="st11" cx="115.7" cy="250.6" r="0.3"/>
		<path class="st11" d="M115.9,250.7c-0.1,0-0.1,0-0.2,0l0,0c0-0.1,0-0.1,0-0.2l1.2-0.9c0.1,0,0.1,0,0.2,0l0,0c0,0.1,0,0.1,0,0.2
			L115.9,250.7z"/>
	</g>
	<path class="st14" d="M98.2,178.1h-2H72.8c0.5,21.1,6,60.4,6.9,66.6H86l2.1-0.3c0-31.3,9.1-46,9.1-46l0.1-1l0.1,1
		c0,0,9.1,14.7,9.1,46l2.1,0.3h6.3c0.9-6.2,6.4-45.5,6.9-66.6H98.2z"/>
	<g>
		<path class="st15" d="M76,184.6c0,0,2.3,0.7,4.8,0.7l-2.7,5.2c0,0-3.6-2.4-3.6-2.6"/>
		<path class="st15" d="M118.3,184.6c0,0-2.3,0.7-4.8,0.7l2.7,5.2c0,0,3.6-2.4,3.6-2.6"/>
	</g>
	<g>
		<path class="st16" d="M81.3,181.7c0,0-1.9,5.9-6.4,11.7C74.8,193.4,81.8,189.9,81.3,181.7z"/>
		<path class="st16" d="M113,181.7c0,0,1.9,5.9,6.4,11.7C119.5,193.4,112.5,189.9,113,181.7z"/>
	</g>
	<path class="st7" d="M60.2,153.8c0.1-1.3,0.3-2.5,0.5-3.6c-4.2-1.4-7.3-4.3-9.6-8.2c-0.6,2.6-1,5.4-1.3,8.3
		c-1.1,11.8,5.9,29.9,24.5,37.7l1.5-3.3C76,184.6,58.2,172.9,60.2,153.8z"/>
	<path class="st7" d="M143.8,145.6c-3.3,1.8-6.4,3.9-10.3,4.6c0.2,1.1,0.4,2.3,0.5,3.6c2,19.1-15.8,30.8-15.8,30.8l1.5,3.3
		c18.6-7.8,25.7-25.9,24.5-37.7C144.2,148.6,144,147.1,143.8,145.6z"/>
	<rect x="78.9" y="241.8" class="st16" width="9.9" height="2.9"/>
	<rect x="105.8" y="241.8" class="st16" width="9.9" height="2.9"/>
	<path class="st9" d="M121.8,180.3c0,0.6-0.3,1-0.8,1H73.4c-0.4,0-0.8-0.4-0.8-1v-2.6c0-0.6,0.3-1,0.8-1H121c0.4,0,0.8,0.4,0.8,1
		V180.3z"/>
	<g>
		<path class="st17" d="M115.7,182.3c0,0.5-0.2,0.9-0.3,0.9h-1.2c-0.2,0-0.3-0.4-0.3-0.9v-5.2c0-0.5,0.2-0.9,0.3-0.9h1.2
			c0.2,0,0.3,0.4,0.3,0.9V182.3z"/>
		<path class="st17" d="M105.7,181.9c0,0.5-0.2,0.9-0.3,0.9h-1.2c-0.2,0-0.3-0.4-0.3-0.9v-5.2c0-0.5,0.2-0.9,0.3-0.9h1.2
			c0.2,0,0.3,0.4,0.3,0.9V181.9z"/>
		<path class="st17" d="M90.6,181.9c0,0.5-0.2,0.9-0.3,0.9h-1.2c-0.2,0-0.3-0.4-0.3-0.9v-5.2c0-0.5,0.2-0.9,0.3-0.9h1.2
			c0.2,0,0.3,0.4,0.3,0.9V181.9z"/>
		<path class="st17" d="M80.1,182.3c0,0.5-0.2,0.9-0.3,0.9h-1.2c-0.2,0-0.3-0.4-0.3-0.9v-5.2c0-0.5,0.2-0.9,0.3-0.9h1.2
			c0.2,0,0.3,0.4,0.3,0.9V182.3z"/>
	</g>
	<path class="st18" d="M101,180.5v-3c0-1.1-0.9-2-2.1-2h-3.2c-1.2,0-2.1,0.9-2.1,2v3c0,1.1,0.9,2,2.1,2h3.2
		C100,182.5,101,181.6,101,180.5z M94.8,180.5v-3c0-0.5,0.4-0.9,1-0.9h1v0.3c0.5,0.1,1,0.2,1.4,0v-0.3h0.7c0.5,0,1,0.4,1,0.9v3
		c0,0.5-0.4,0.9-1,0.9h-0.7v-0.3c-0.1-0.2-1.2-0.3-1.4,0v0.3h-1C95.2,181.4,94.8,181,94.8,180.5z"/>
	<g>
		<path class="st18" d="M97.3,121c0,0-3.7,1.3-5.6,4.8L95,130c2-2.3,3.9-4.6,5.1-7.5C98.5,121.3,97.3,121,97.3,121z"/>
		<path class="st18" d="M98.5,131.5l4.5-5.8c-1-1.5-2-2.5-2.9-3.2c-1.2,2.9-3.1,5.2-5.1,7.5l1.2,1.5l-6.4,26.8l1.8,2.2
			c4-6.2,7.7-12.7,9-19.9L98.5,131.5z"/>
		<path class="st18" d="M104.8,158.3l-4.2-17.8c-1.3,7.3-5,13.7-9,19.9l5.7,6.8L104.8,158.3z"/>
	</g>
	<path class="st9" d="M126.4,152.4c-2.4-4.4-8.6-19.1-1.2-40c0.1-0.3,0.2-0.6,0.3-0.8l-11.7-3.3c0,0-0.1,1.1-0.5,2.9
		c-1.1,5.6-4.5,18.4-14.4,30.9c0,0-1.1,2.5-1.9,6.6c-0.2-3.3-1.4-6.7-1.4-6.7c-9.9-12.6-13.3-25.5-14.4-31c-0.3-1.8-0.4-2.8-0.4-2.8
		l-11.7,3.3c0.1,0.3,0.2,0.5,0.3,0.8c7.2,20.5,1.4,35.1-1.1,39.8l0,0l2.1,15.8c0.6,3.5,1.2,6.6,1.9,8.9l0,0c0,0,0,0,0,0
		c0.2,0.5,0.3,1,0.5,1.4h0.2c5.9,11.6,21.4,12.4,21.4,12.4c1-3,1.9-6.1,2.6-9.2c0.9,3.2,2.4,6.3,3.4,9.4c0,0,16.7-0.8,22.1-13.8
		C122.3,176.9,126.9,153.3,126.4,152.4z"/>
	<path class="st19" d="M96.4,149.4c0,0-5.3,16.2,0,31.4C96.4,180.8,93.1,168.8,96.4,149.4z"/>
	<g>
		<circle class="st20" cx="97.3" cy="156.4" r="1.8"/>
		<circle class="st20" cx="97.3" cy="165.8" r="1.8"/>
		<circle class="st20" cx="97.3" cy="175.1" r="1.8"/>
	</g>
	<path class="st21" d="M80.8,108.1c0,0,8.5,11.6,16.5,12.5c0,0-1.4,6.5-6.7,9C90.6,129.6,80.6,117.2,80.8,108.1z"/>
	<path class="st21" d="M113.8,108.1c0,0-8.5,11.6-16.5,12.5c0,0,1.4,6.5,6.7,9C104,129.6,114,117.2,113.8,108.1z"/>
	<g>
		<path class="st15" d="M127.1,37.8c-10.4-15.4-28.9-15.6-29.5-15.6l0,0c0,0,0,0,0,0c0,0,0,0,0,0l0,0c-0.6,0-19.1,0.2-29.5,15.6
			c-8.4,12.5-4.3,25.9-3.8,35.3c0.3,5.6-1.9,43.6,32.9,44.5c0.1,0,0.1,0,0.2,0l0,0c0,0,0,0,0,0c0,0,0,0,0,0l0,0c0.1,0,0.4,0,0.4,0
			c34.9-0.9,32.7-38.9,33-44.5C131.4,63.6,135.5,50.2,127.1,37.8z"/>
		<path class="st22" d="M90.8,99.7c0.8,1,3.6,1.8,7,1.8c3.4,0,6.3-0.8,7-1.8H90.8z"/>
		<g>
			<g>
				<ellipse class="st9" cx="80" cy="73.5" rx="1.3" ry="2.8"/>
				<ellipse class="st9" cx="115.6" cy="73.5" rx="1.3" ry="2.8"/>
				<ellipse class="st7" cx="80" cy="73.5" rx="0.4" ry="1.1"/>
				<ellipse class="st7" cx="115.6" cy="73.5" rx="0.4" ry="1.1"/>
			</g>
			<g>
				<path class="st23" d="M81.4,67.6c0,0-2-1.3-5.2,1.5c-1.8,1.6-0.9-0.4-0.2-1.3C76.6,67.1,80.3,64.2,81.4,67.6z"/>
				<path class="st23" d="M114.2,67.6c0,0,2-1.3,5.2,1.5c1.8,1.6,0.9-0.4,0.2-1.3C119,67.1,115.3,64.2,114.2,67.6z"/>
			</g>
		</g>
		<g>
			<path class="st15" d="M131.6,68.8c0,0,3.6-1.5,3.3,1.7c-0.3,3.2-2.8,6.5-2.6,8.9c0.2,2.4-2.9,1.2-2.2-1.3
				C130.9,75.7,130.1,70.6,131.6,68.8z"/>
			<path class="st15" d="M64,68.8c0,0-3.6-1.5-3.3,1.7c0.3,3.2,2.8,6.5,2.6,8.9c-0.2,2.4,2.9,1.2,2.2-1.3
				C64.7,75.7,65.4,70.6,64,68.8z"/>
		</g>
		<path class="st22" d="M101.1,82.9c1.9,1.5,2.1,3.1,1.9,4c-0.5,2.1-4.9,2.1-5.1,2.1l0,0c0,0,0,0,0,0c0,0,0,0,0,0l0,0
			c-0.3,0-4.6,0-5.1-2.1c-0.2-0.9,0-2.5,1.9-4c0,0-3.8,1.6-3.3,4.3c0.4,2,2.2,3.6,6.5,3.6v0c0,0,0,0,0,0s0,0,0,0v0
			c4.4,0,6.2-1.6,6.5-3.6C104.9,84.5,101.1,82.9,101.1,82.9z"/>
		<g>
			<g>
				<path class="st23" d="M65.6,83.1c0,0,2-7.9,0.5-13c-1.5-5.1-1.7-8.9,0.6-11.3c2.3-2.4-3.3-7.6-0.8-10.6c2.4-3,0.7-9.3,10.8-9.1
					c10.1,0.2,13,3.1,19,0.7c6-2.4,15.8-1.8,18.5,0.6c2.7,2.4,9.6,6.9,13.3,6.9c3.7,0-0.8,5.7,1.2,11.4c2,5.6,0.8,11.6,2.2,15.6
					c1.4,4,1.4,5.6,1.4,5.6s-1-9.2,1.9-12.8c2.9-3.5,1.8-5.5,2-8c0.2-2.4,0.1-10.4,1.5-12.7c1.4-2.3,0.1-6.4-1.1-10.6
					c-1.5-5.1-17.8-28.1-45.5-25.1C68,13.3,72.2,26,72.2,26s-8.6,0.4-12.2,6.7c-3.6,6.2-4.7,12.9-2.7,19.8c2,6.9,3.9,16.6,5.8,18.3
					C65,72.5,66,79.7,65.6,83.1z"/>
				<path class="st24" d="M79.9,36c0,0-7.3-6.8-5.1-13.5C77.1,15,94,10.6,106.2,14c12.7,3.6,26.9,12.2,30.7,29.3
					c0,0-8.8-22-34.5-23.7C84.4,18.4,76.4,26.4,79.9,36z"/>
				<path class="st24" d="M92,38.5c0,0-5.3-2.2-5.3-7.6c0-6.4,15.7-11.3,29.8-2.9c12.6,7.6,8.3,17.7,19.7,16.6c0,0-5.4,3.1-10.1,0.1
					c-4.7-3-13.9-19.4-28.7-14.5C88.1,33.5,92,38.5,92,38.5z"/>
			</g>
			<g>
				<path class="st24" d="M83.4,100.3c0,0,0.3-0.2,0.3,0l0,0c0,0,0,0,0,0.1c0,0-0.1,0.6,0.4,1.6c0,0,0.1-0.4,0.6-0.2
					c1.4,0.7,7-3.1,9.3-4.5c2.1-1.3,3.7,0,4,0.2v0c0,0,0,0,0,0c0,0,0,0,0,0v0c0.3-0.3,1.9-1.5,4-0.2c2.3,1.4,7.9,5.2,9.3,4.5
					c0.5-0.2,0.6,0.2,0.6,0.2c0.5-1,0.4-1.6,0.4-1.6c0,0,0,0,0-0.1l0,0c0-0.2,0.3,0,0.3,0c0-1-1.2-1.5-1.2-1.5
					c0.4,0,0.9,0.3,0.9,0.3c-0.3-0.3-2-1-2-1c0,0-0.1,0-0.1-0.1c0.5,0.1,0.6,0,0.6,0c-0.6,0-1.7-0.8-1.7-0.8l0,0
					c0.7,0.2,1.1-0.1,1.1-0.1c-1.4-0.2-0.4-0.4-3.3-2.3c-2.9-2-4.9-2.1-4.9-2.1l0,0c-0.6-0.1-1.2-0.1-1.8,0c0,0-0.9,0.8-2.3,0.9
					c-1.4-0.1-2.3-0.9-2.3-0.9c-0.6-0.1-1.2,0-1.8,0l0,0c0,0-2,0.2-4.9,2.1c-2.9,2-1.9,2.1-3.3,2.3c0,0,0.4,0.3,1.1,0.1l0,0
					c0,0-1.1,0.8-1.7,0.8c0,0,0.1,0.1,0.6,0c0,0-0.1,0-0.1,0.1c0,0-1.7,0.7-2,1c0,0,0.5-0.3,0.9-0.3C84.6,98.8,83.4,99.4,83.4,100.3
					z"/>
				<path class="st24" d="M131.9,75.4L131.9,75.4L131.9,75.4c-0.1-0.1-0.2-0.1-0.3,0c0,0-0.8,4.2-1.6,7.1c-0.5,1.9-1.3,5.4-4.7,7.3
					c-3.4,1.9-8.1,6.7-8.8,10.7c-0.6,3.9-3.1,8-7.4,11c-4.3,3-6,1.5-11.1,3.7c-5.1-2.2-6.8-0.7-11.1-3.7c-4.3-3-6.7-7-7.4-11
					c-0.6-3.9-5.3-8.8-8.8-10.7c-3.4-1.9-4.1-5.4-4.7-7.3c-0.8-3-1.6-7.1-1.6-7.1c-0.1,0-0.2,0-0.3,0h0v0c-0.3,0.2-0.3,0.9-0.1,2
					c0,1,0.1,2.4,0.4,4.3c0.7,4.6,1.6,6.8,1.1,8.3c0,0,0.4-0.8,0.9-2.1l0,0c0,0-0.6,3.5,0,5.9c0.6,2.4,2.6,6.4,2.7,8.9
					c0,0,0.6-1,0.2-2.8c0.4,1.3,1.4,4.4,2.7,6.1c0,0-0.2-0.4,0.7-0.1c0,0,3.3,4.4,3.4,5.5l0.2-1c0.3,0.4,0.6,0.8,0.9,1.1
					c1.2,1.5,3.2,4.1,3.3,4.9v-0.9c0,0,0.8,1,0.9,2l-0.1-1c0,0,4.6,4.9,4.8,6.2c0,0,0.5-0.9,0.2-1.2l0,0c0,0,2.1,2,3.8,2.9
					c0,0,0.2-0.6,1.1-0.4c0,0,3.2,1,3.4,1.4c0,0,0.4-0.8-0.4-1.1l0,0c0,0,2.4,0.5,2.5,1.1c0,0,0.5-1.2,1.3-1.4
					c0.8,0.2,1.3,1.4,1.3,1.4c0.1-0.6,2.5-1.1,2.5-1.1l0,0c-0.7,0.2-0.4,1.1-0.4,1.1c0.2-0.5,3.4-1.4,3.4-1.4
					c0.9-0.2,1.1,0.4,1.1,0.4c1.8-0.9,3.8-2.9,3.8-2.9l0,0c-0.3,0.3,0.2,1.2,0.2,1.2c0.1-1.3,4.8-6.2,4.8-6.2l-0.1,1
					c0.1-1,0.9-2,0.9-2v0.9c0.1-0.8,2.1-3.3,3.4-4.9c0.3-0.4,0.6-0.8,0.9-1.1l0.2,1c0.1-1.1,3.4-5.5,3.4-5.5
					c0.9-0.3,0.7,0.1,0.7,0.1c1.3-1.7,2.3-4.8,2.7-6.1c-0.4,1.7,0.2,2.8,0.2,2.8c0.1-2.5,2.1-6.6,2.7-8.9c0.6-2.4,0-5.8,0-5.9l0,0
					c0.4,1.3,0.9,2.1,0.9,2.1c-0.5-1.5,0.4-3.7,1.1-8.3c0.3-1.9,0.4-3.3,0.4-4.3C132.1,76.4,132.1,75.6,131.9,75.4z"/>
				<path class="st24" d="M103.5,103.6c0,0-1.8,0.4-4.1,0.4V104c-0.4,0-0.9,0.1-1.3,0.1c-0.4,0-0.9,0-1.3-0.1v0.1
					c-2.4-0.1-4.1-0.4-4.1-0.4h-0.3c0,0.1,0,0.1,0,0.2v0c0,0,0,1.4,0.7,2.3c0,0,0-0.2,0.4,0c0,0,0.6,1.5,1.3,1.9
					c0,0,0.1-0.5,0.7-0.4c0,0,1.3,0.7,1.3,1.5c0,0,0.2-0.7-0.2-1.1c0,0,0.2,0.2,0.5,0.4c0.3,0.5,0.4,1.3,0.4,0.9c0,0,0-0.1,0-0.1
					c0-0.3,0.3-0.6,0.6-0.8c0.2,0.2,0.5,0.5,0.6,0.8c0,0,0,0.1,0,0.1c0,0.4,0.1-0.3,0.4-0.9c0.3-0.2,0.5-0.4,0.5-0.4
					c-0.4,0.5-0.2,1.1-0.2,1.1c0-0.8,1.3-1.5,1.3-1.5c0.6-0.1,0.7,0.4,0.7,0.4c0.8-0.3,1.3-1.9,1.3-1.9c0.4-0.2,0.4,0,0.4,0
					c0.7-0.9,0.7-2.3,0.7-2.3v0c0-0.1,0-0.1,0-0.2H103.5z"/>
			</g>
		</g>
		<g>
			<g>
				<path class="st25" d="M88.5,66.2c-3,6.4-7,12.4-10.9,18.5c0.9,0.2,1.9,0.4,2.9,0.4c6.2,0,11.2-5,11.2-11.2
					C91.6,70.9,90.4,68.2,88.5,66.2z"/>
				<path class="st7" d="M86.3,64.4c-3.3,6.5-6.8,13.4-11.5,19.1c0.8,0.5,1.7,0.9,2.7,1.1c3.9-6.1,7.9-12,10.9-18.5
					C87.8,65.5,87.1,64.9,86.3,64.4z"/>
				<path class="st25" d="M80.4,62.8c-6.2,0-11.2,5-11.2,11.2c0,4.1,2.2,7.7,5.6,9.7c4.6-5.7,8.1-12.6,11.5-19.1
					C84.6,63.4,82.6,62.8,80.4,62.8z"/>
				<path class="st25" d="M120.7,64.5c-1.7-1.1-3.8-1.7-5.9-1.7c-6.2,0-11.2,5-11.2,11.2c0,3.5,1.6,6.6,4.1,8.7
					C113.8,78,117.7,71.4,120.7,64.5z"/>
				<path class="st7" d="M125.6,71.1c-0.7-2.8-2.5-5.1-4.9-6.6c-3,6.9-6.9,13.6-13,18.1c1.9,1.6,4.4,2.5,7,2.5c0,0,0,0,0,0
					C119.1,81.1,122.5,76.2,125.6,71.1z"/>
				<path class="st25" d="M114.8,85.1c6.2,0,11.1-5,11.1-11.2c0-1-0.1-1.9-0.4-2.8C122.5,76.2,119.1,81.1,114.8,85.1z"/>
			</g>
			<path class="st26" d="M66.8,73.8c-0.1,3.8,3,14.7,15.6,13.4c11.8-1.2,12-15.8,12-15.8s-1.2-0.3-1.1-2.5c0.1-1.8,3.1-2.1,4.3-2.1
				c1.2,0.1,4.2,0.4,4.3,2.1c0.2,2.2-1.1,2.5-1.1,2.5s0.2,14.6,12,15.8c12.6,1.2,15.6-9.6,15.6-13.4c-0.1-3.8,1.7-4.8,2.6-4.9
				c1.1-1.9,0-3.3,0-3.3s-0.9,0.3-2.6-0.6c-1.7-0.9-6.8-4.2-12.6-4.4c-6.4-0.2-9.2,2.5-10.6,3.7c-1.4,1.2-3.5-0.1-7.5-0.1
				c0,0,0,0,0,0c0,0,0,0,0,0c-4-0.1-6.2,1.3-7.5,0.1c-1.4-1.2-4.2-3.9-10.6-3.7c-5.8,0.2-10.9,3.5-12.6,4.4
				c-1.7,0.9-2.6,0.6-2.6,0.6s-1.1,1.4,0,3.3C65.2,69,66.9,70,66.8,73.8z M114.8,62.8c6.2,0,11.2,5,11.2,11.2
				c0,6.2-5,11.2-11.2,11.2c-6.2,0-11.2-5-11.2-11.2C103.6,67.8,108.6,62.8,114.8,62.8z M80.4,62.8c6.2,0,11.2,5,11.2,11.2
				c0,6.2-5,11.2-11.2,11.2c-6.2,0-11.2-5-11.2-11.2C69.3,67.8,74.3,62.8,80.4,62.8z"/>
		</g>
	</g>
	<g>
		<polygon class="st27" points="111.2,149.2 104.7,150.8 104.7,157.3 111.2,159.8 117.7,157.3 117.7,150.8 		"/>
		<rect x="103.6" y="145.8" class="st28" width="15.1" height="5"/>
	</g>
</g>
</svg>
