<?xml version="1.0" encoding="UTF-8" standalone="no"?>
<!-- Created with Inkscape (http://www.inkscape.org/) -->

<svg
   xmlns:dc="http://purl.org/dc/elements/1.1/"
   xmlns:cc="http://creativecommons.org/ns#"
   xmlns:rdf="http://www.w3.org/1999/02/22-rdf-syntax-ns#"
   xmlns:svg="http://www.w3.org/2000/svg"
   xmlns="http://www.w3.org/2000/svg"
   xmlns:sodipodi="http://sodipodi.sourceforge.net/DTD/sodipodi-0.dtd"
   xmlns:inkscape="http://www.inkscape.org/namespaces/inkscape"
   width="110.06667mm"
   height="109.97802mm"
   viewBox="0 0 390 389.68589"
   id="svg7389"
   version="1.1"
   inkscape:version="0.91 r13725"
   sodipodi:docname="drawing.svg">
  <defs
     id="defs7391" />
  <sodipodi:namedview
     id="base"
     pagecolor="#ffffff"
     bordercolor="#666666"
     borderopacity="1.0"
     inkscape:pageopacity="0.0"
     inkscape:pageshadow="2"
     inkscape:zoom="0.85722656"
     inkscape:cx="203.03623"
     inkscape:cy="44.075122"
     inkscape:document-units="px"
     inkscape:current-layer="layer1"
     showgrid="false"
     fit-margin-top="0"
     fit-margin-left="0"
     fit-margin-right="0"
     fit-margin-bottom="0"
     inkscape:window-width="1366"
     inkscape:window-height="744"
     inkscape:window-x="0"
     inkscape:window-y="24"
     inkscape:window-maximized="1" />
  <metadata
     id="metadata7394">
    <rdf:RDF>
      <cc:Work
         rdf:about="">
        <dc:format>image/svg+xml</dc:format>
        <dc:type
           rdf:resource="http://purl.org/dc/dcmitype/StillImage" />
        <dc:title></dc:title>
      </cc:Work>
    </rdf:RDF>
  </metadata>
  <g
     inkscape:label="Layer 1"
     inkscape:groupmode="layer"
     id="layer1"
     transform="translate(0.68603553,-0.10298582)">
    <g
       transform="translate(-151.61464,-95.501933)"
       id="g4258-2-2"
       style="fill:#ffe6d5;fill-opacity:1;stroke:none">
      <path
         sodipodi:nodetypes="cccc"
         inkscape:connector-curvature="0"
         id="path4193-0-7"
         d="m 401.03175,346.27676 c -52.58287,-11.66733 -114.23716,2.04005 -114.23716,2.04005 4.7466,-40.68515 8.60892,-82.88936 2.50615,-114.30733 l 113.27993,113.5331"
         style="fill:#ffe6d5;fill-opacity:1;fill-rule:evenodd;stroke:none;stroke-width:1px;stroke-linecap:butt;stroke-linejoin:miter;stroke-opacity:1" />
      <path
         sodipodi:nodetypes="ccc"
         inkscape:connector-curvature="0"
         id="path4193-7-2-5"
         d="m 404.66006,362.21131 c -6.10277,-31.41797 -8.88591,-85.8255 -4.13931,-126.51065 0,0 -67.66234,8.12847 -120.24522,-3.53886"
         style="fill:#ffe6d5;fill-opacity:1;fill-rule:evenodd;stroke:none;stroke-width:1px;stroke-linecap:butt;stroke-linejoin:miter;stroke-opacity:1" />
    </g>
    <path
       style="fill:#ffccaa;fill-opacity:1;fill-rule:evenodd;stroke:none;stroke-width:1px;stroke-linecap:butt;stroke-linejoin:miter;stroke-opacity:1"
       d="m 139.28423,250.33364 c 0,0 -44.673816,-17.1333 -79.934276,-21.6539 0,0 -0.37213,-31.2981 -1.47481,-63.8237 0,0 60.123616,-8.5891 80.918246,-24.8631 -0.32314,0.4743 8.62713,50.42 0.63582,110.3549"
       id="path4222-2-7"
       inkscape:connector-curvature="0"
       sodipodi:nodetypes="ccccc" />
    <path
       style="fill:#ffccaa;fill-opacity:1;fill-rule:evenodd;stroke:none;stroke-width:1px;stroke-linecap:butt;stroke-linejoin:miter;stroke-opacity:1"
       d="m 247.93251,140.31004 c 0,0 42.91258,18.8538 83.44732,21.7761 0,0 -13.69521,38.2539 -2.54224,66.7335 0,0 -51.64575,5.2984 -79.57715,22.0466 0.32314,-0.4743 -9.94369,-45.9207 -0.99343,-110.3307"
       id="path4222-5-9-5"
       inkscape:connector-curvature="0"
       sodipodi:nodetypes="ccccc" />
    <path
       style="fill:#ffccaa;fill-opacity:1;fill-rule:evenodd;stroke:none;stroke-width:1px;stroke-linecap:butt;stroke-linejoin:miter;stroke-opacity:1"
       d="m 249.57266,250.48634 c 0,0 -18.35865,31.2805 -23.78333,82.589 0,0 -34.6069,-5.7867 -64.66004,-3.2255 0,0 -4.00232,-44.5551 -22.08461,-79.5895 0.47433,0.3231 53.28051,-12.5598 110.30245,0.5605"
       id="path4222-3-74-2"
       inkscape:connector-curvature="0"
       sodipodi:nodetypes="ccccc" />
    <path
       style="fill:#ffccaa;fill-opacity:1;fill-rule:evenodd;stroke:none;stroke-width:1px;stroke-linecap:butt;stroke-linejoin:miter;stroke-opacity:1"
       d="m 138.25571,140.47794 c 0,0 19.65314,-30.1441 23.63939,-79.854305 0,0 32.0567,11.476 64.53195,-1.435 0,0 3.15558,47.120205 22.35664,81.515305 -0.47433,-0.3232 -51.72374,11.4993 -110.30245,-0.5605"
       id="path4222-3-8-3-2"
       inkscape:connector-curvature="0"
       sodipodi:nodetypes="ccccc" />
    <path
       style="fill:#ffb380;fill-opacity:1;fill-rule:evenodd;stroke:none;stroke-width:1px;stroke-linecap:butt;stroke-linejoin:miter;stroke-opacity:1"
       d="m 58.260094,164.97614 c -7.97321,-26.0562 -6.39446,-46.4015 -9.33283,-51.8262 0,0 21.02787,-2.7658 37.62158,-25.126605 0,0 34.612866,31.117905 52.417716,52.338605 0,0 -23.29617,17.3269 -80.706466,24.6142 z"
       id="path4283-5-8"
       inkscape:connector-curvature="0"
       sodipodi:nodetypes="ccccc" />
    <path
       style="fill:#ff9955;fill-opacity:1;fill-rule:evenodd;stroke:none;stroke-width:1px;stroke-linecap:butt;stroke-linejoin:miter;stroke-opacity:1"
       d="m 224.90781,59.029535 c 27.43642,3.7489 43.50697,-2.027 49.09149,-4.9654 0,0 7.33845,17.2964 28.58044,33.7302 0,0 -30.01183,49.089905 -54.17652,52.640205 0,0 -15.85394,-26.347 -23.49541,-81.405005 z"
       id="path4283-9-6-6"
       inkscape:connector-curvature="0"
       sodipodi:nodetypes="ccccc" />
    <path
       style="fill:#ff9955;fill-opacity:1;fill-rule:evenodd;stroke:none;stroke-width:1px;stroke-linecap:butt;stroke-linejoin:miter;stroke-opacity:1"
       d="m 161.23593,329.78404 c -26.31765,-0.872 -41.63939,3.8699 -48.66235,6.9681 0,0 -13.61804,-14.1629 -27.154186,-32.9373 0,0 16.486506,-41.3717 53.709226,-53.4331 0,0 17.78158,20.535 22.10731,79.4023 z"
       id="path4283-9-4-1-6"
       inkscape:connector-curvature="0"
       sodipodi:nodetypes="ccccc" />
    <path
       style="fill:#ffb380;fill-opacity:1;fill-rule:evenodd;stroke:none;stroke-width:1px;stroke-linecap:butt;stroke-linejoin:miter;stroke-opacity:1"
       d="m 328.53653,228.62354 c 4.05172,25.2413 3.03723,41.4292 6.13543,48.4522 0,0 -19.69918,6.8793 -32.29725,28.9204 0,0 -32.3141,-34.1638 -53.09738,-54.9792 0,0 23.72178,-17.3092 79.2592,-22.3934 z"
       id="path4283-9-4-8-4-0"
       inkscape:connector-curvature="0"
       sodipodi:nodetypes="ccccc" />
    <path
       style="fill:#ff9955;fill-opacity:1;fill-rule:evenodd;stroke:none;stroke-width:1px;stroke-linecap:butt;stroke-linejoin:miter;stroke-opacity:1"
       d="m 225.41159,331.54184 c 24.28252,-4.3959 42.49631,4.1712 49.53162,7.2749 0,0 13.30275,-12.3935 25.82395,-34.7758 0,0 -30.32643,-31.7271 -51.32173,-53.5501 0,0 -21.02206,35.5027 -24.03384,81.051 z"
       id="path4283-9-4-8-6-0-0"
       inkscape:connector-curvature="0"
       sodipodi:nodetypes="ccccc" />
    <path
       style="fill:#ffb380;fill-opacity:1;fill-rule:evenodd;stroke:none;stroke-width:1px;stroke-linecap:butt;stroke-linejoin:miter;stroke-opacity:1"
       d="m 327.81969,164.92094 c 2.09937,-30.4396 5.30836,-41.4796 8.40656,-48.5025 0,0 -24.18565,-8.0617 -34.2265,-29.143805 0,0 -32.4626,32.469205 -53.24588,53.284605 0,0 34.3966,20.2364 79.06582,24.3617 z"
       id="path4283-9-4-8-6-7-3-9"
       inkscape:connector-curvature="0"
       sodipodi:nodetypes="ccccc" />
    <path
       style="fill:#ff9955;fill-opacity:1;fill-rule:evenodd;stroke:none;stroke-width:1px;stroke-linecap:butt;stroke-linejoin:miter;stroke-opacity:1"
       d="m 161.97776,59.927235 c -30.15348,3.9087 -39.92377,-2.4376 -48.86465,-7.4537 0,0 -5.53806,26.0537 -26.620226,36.0945 0,0 33.479536,34.657305 52.578346,52.286505 0,0 20.31241,-30.537 22.90653,-80.927305 z"
       id="path4283-9-4-8-6-7-8-12-1"
       inkscape:connector-curvature="0"
       sodipodi:nodetypes="ccccc" />
    <path
       style="fill:#ffb380;fill-opacity:1;fill-rule:evenodd;stroke:none;stroke-width:1px;stroke-linecap:butt;stroke-linejoin:miter;stroke-opacity:1"
       d="m 59.817904,227.68674 c 2.21347,28.5713 -5.66257,40.7149 -10.67869,49.6558 0,0 18.86327,1.4277 36.25003,26.4654 0,0 39.166006,-37.7765 53.939766,-53.6422 0,0 -28.05634,-15.0181 -79.511106,-22.479 z"
       id="path4283-9-4-8-6-7-8-1-7-2"
       inkscape:connector-curvature="0"
       sodipodi:nodetypes="ccccc" />
    <path
       style="fill:#ff6600;fill-opacity:1;fill-rule:evenodd;stroke:none;stroke-width:1px;stroke-linecap:butt;stroke-linejoin:miter;stroke-opacity:1"
       d="m 160.52629,330.02134 c 3.99566,5.1144 15.29689,20.0431 19.22164,38.9065 0,0 21.03068,-3.2786 31.42742,1.345 0,0 -0.1118,-20.7749 13.92079,-39.4524 -25.83897,-12.1662 -59.29558,-4.1555 -64.56985,-0.7991 z"
       id="path4466-79-6"
       inkscape:connector-curvature="0"
       sodipodi:nodetypes="ccccc" />
    <path
       style="fill:#ff6600;fill-opacity:1;fill-rule:evenodd;stroke:none;stroke-width:1px;stroke-linecap:butt;stroke-linejoin:miter;stroke-opacity:1"
       d="m 328.27132,228.90054 c 10.08707,-9.8724 32.44475,-17.5809 38.1985,-19.0193 0,0 -5.66152,-16.6389 0.0922,-27.8267 0,0 -28.73559,-6.5048 -38.485,-17.3729 -9.40578,35.7511 -3.16209,58.9446 0.1943,64.2189 z"
       id="path4466-1-81-9"
       inkscape:connector-curvature="0"
       sodipodi:nodetypes="cccccc" />
    <path
       style="fill:#ff6600;fill-opacity:1;fill-rule:evenodd;stroke:none;stroke-width:1px;stroke-linecap:butt;stroke-linejoin:miter;stroke-opacity:1"
       d="m 58.118704,164.76664 c -5.11444,3.9957 -27.455951,15.8452 -38.064941,17.5871 0,0 1.83513,18.0866 0.0263,29.8814 0,0 30.207181,4.4751 39.956591,15.3433 8.31097,-19.8185 1.43844,-57.5375 -1.91792,-62.8118 z"
       id="path4466-7-0-4"
       inkscape:connector-curvature="0"
       sodipodi:nodetypes="cccccc" />
    <path
       style="fill:#ff6600;fill-opacity:1;fill-rule:evenodd;stroke:none;stroke-width:1px;stroke-linecap:butt;stroke-linejoin:miter;stroke-opacity:1"
       d="m 224.82095,60.771335 c -1.39252,-17.4476 -16.14246,-32.6035 -17.5809,-38.3572 0,0 -15.56126,4.7343 -28.91179,-0.05 0,0 1.00929,19.9516 -16.81753,38.0755 18.38003,11.8272 58.16223,4.4361 63.59632,0.6002 z"
       id="path4466-9-7-8"
       inkscape:connector-curvature="0"
       sodipodi:nodetypes="cccccc" />
    <path
       style="fill:#ff7f2a;fill-opacity:1;fill-rule:evenodd;stroke:none;stroke-width:1px;stroke-linecap:butt;stroke-linejoin:miter;stroke-opacity:1"
       d="m 142.56311,24.423235 c 3.19653,-1.4385 16.20509,-6.383 18.28284,-10.059 0,0 11.16459,7.2268 18.38306,8.4993 0,0 -2.94479,29.2894 -17.32018,37.9878 0,0 -16.90584,-12.3639 -19.34572,-36.4281 z"
       id="path4509-6-2"
       inkscape:connector-curvature="0"
       sodipodi:nodetypes="ccccc" />
    <path
       style="fill:#ff7f2a;fill-opacity:1;fill-rule:evenodd;stroke:none;stroke-width:1px;stroke-linecap:butt;stroke-linejoin:miter;stroke-opacity:1"
       d="m 246.8693,25.384635 c -3.19653,-1.4385 -18.46405,-6.9148 -20.5418,-10.5908 0,0 -8.10903,5.4776 -19.11629,7.6717 0,0 4.24294,26.5139 17.95231,38.5661 0,0 12.60187,-8.8324 21.70578,-35.647 z"
       id="path4509-3-0-8"
       inkscape:connector-curvature="0"
       sodipodi:nodetypes="ccccc" />
    <path
       style="fill:#ff7f2a;fill-opacity:1;fill-rule:evenodd;stroke:none;stroke-width:1px;stroke-linecap:butt;stroke-linejoin:miter;stroke-opacity:1"
       d="m 23.703833,246.56944 c -0.76035,-3.5356 -7.41821,-16.3237 -11.09422,-18.4015 0,0 6.15566,-9.4423 7.44564,-16.268 0,0 29.285541,2.4493 40.290791,16.0027 0,0 -22.187311,12.9901 -36.642211,18.6668 z"
       id="path4509-1-1-2"
       inkscape:connector-curvature="0"
       sodipodi:nodetypes="ccccc" />
    <path
       style="fill:#ff7f2a;fill-opacity:1;fill-rule:evenodd;stroke:none;stroke-width:1px;stroke-linecap:butt;stroke-linejoin:miter;stroke-opacity:1"
       d="m 23.422963,145.78524 c -1.43844,3.1965 -6.88874,14.4855 -10.56475,16.5632 0,0 7.10724,13.6418 7.26707,20.3545 0,0 23.613611,-5.5511 38.113561,-18.0543 0,0 -17.933361,-15.8167 -34.815881,-18.8634 z"
       id="path4509-1-5-0-7"
       inkscape:connector-curvature="0"
       sodipodi:nodetypes="ccccc" />
    <path
       style="fill:#ff7f2a;fill-opacity:1;fill-rule:evenodd;stroke:none;stroke-width:1px;stroke-linecap:butt;stroke-linejoin:miter;stroke-opacity:1"
       d="m 246.10276,369.48664 c -3.21119,1.445 -16.22607,4.942 -18.31335,8.6348 0,0 -12.68187,-9.0585 -19.42536,-9.2191 0,0 2.17993,-19.1731 17.24634,-38.8083 0,0 17.79041,29.313 20.49237,39.3926 z"
       id="path4509-1-6-2-8"
       inkscape:connector-curvature="0"
       sodipodi:nodetypes="ccccc" />
    <path
       style="fill:#ff7f2a;fill-opacity:1;fill-rule:evenodd;stroke:none;stroke-width:1px;stroke-linecap:butt;stroke-linejoin:miter;stroke-opacity:1"
       d="m 144.22357,366.81504 c 3.19653,1.4384 15.24165,7.6142 17.3194,11.2902 0,0 10.42864,-6.8637 18.49752,-8.4927 0,0 -3.1278,-18.8302 -19.02956,-39.619 0,0 -14.54979,20.647 -16.78736,36.8215 z"
       id="path4509-1-6-6-5-6"
       inkscape:connector-curvature="0"
       sodipodi:nodetypes="ccccc" />
    <path
       style="fill:#ff7f2a;fill-opacity:1;fill-rule:evenodd;stroke:none;stroke-width:1px;stroke-linecap:butt;stroke-linejoin:miter;stroke-opacity:1"
       d="m 363.57551,246.01624 c 1.43844,-3.1966 7.78661,-15.0925 11.46261,-17.1702 0,0 -8.86238,-12.2906 -9.02221,-19.0033 0,0 -22.15191,5.4324 -37.8432,18.9877 0,0 15.28345,12.116 35.4028,17.1858 z"
       id="path4509-1-6-6-9-197-7"
       inkscape:connector-curvature="0"
       sodipodi:nodetypes="ccccc" />
    <path
       style="fill:#ff7f2a;fill-opacity:1;fill-rule:evenodd;stroke:none;stroke-width:1px;stroke-linecap:butt;stroke-linejoin:miter;stroke-opacity:1"
       d="m 366.83532,147.18954 c 1.43844,3.1965 4.9034,13.8121 8.5794,15.8899 0,0 -5.30324,8.8299 -9.49415,20.305 0,0 -26.4098,-6.8993 -38.04751,-18.6725 0,0 19.62251,-31.8978 38.96226,-17.5224 z"
       id="path4509-1-6-6-9-1-1-7"
       inkscape:connector-curvature="0"
       sodipodi:nodetypes="ccccc" />
    <path
       style="fill:#d45500;fill-opacity:1;fill-rule:evenodd;stroke:none;stroke-width:1px;stroke-linecap:butt;stroke-linejoin:miter;stroke-opacity:1"
       d="m 243.48676,27.041735 c -0.5722,1.5735 -2.65147,17.2916 -18.24382,33.8853 0,0 34.24002,3.3161 48.83102,-6.8404 0,0 3.00402,-14.4826 -11.56169,-25.1853 -1.12687,-0.041 -3.55065,-1.4742 -19.02551,-1.8596 z"
       id="path4174-3-0"
       inkscape:connector-curvature="0"
       sodipodi:nodetypes="ccccc" />
    <path
       style="fill:#d45500;fill-opacity:1;fill-rule:evenodd;stroke:none;stroke-width:1px;stroke-linecap:butt;stroke-linejoin:miter;stroke-opacity:1"
       d="m 144.11303,25.165035 c 0.5722,1.5736 1.92679,19.7762 17.51123,35.5875 0,0 -24.33518,5.8066 -48.63667,-7.0809 0,0 6.50873,-9.6558 10.08496,-25.5343 0.42914,-1.4305 6.30643,2.0344 21.04048,-2.9723 z"
       id="path4174-9-12-9"
       inkscape:connector-curvature="0"
       sodipodi:nodetypes="ccccc" />
    <path
       style="fill:#d45500;fill-opacity:1;fill-rule:evenodd;stroke:none;stroke-width:1px;stroke-linecap:butt;stroke-linejoin:miter;stroke-opacity:1"
       d="m 22.732503,145.53864 c 21.601421,6.1355 34.477781,18.5604 35.622171,19.2757 0,0 3.67019,-34.5688 -6.48629,-49.1598 0,0 -9.36042,7.4804 -25.238861,11.0567 -1.43049,0.4291 1.1097,4.0934 -3.89702,18.8274 z"
       id="path4174-5-0-4"
       inkscape:connector-curvature="0"
       sodipodi:nodetypes="ccccc" />
    <path
       style="fill:#d45500;fill-opacity:1;fill-rule:evenodd;stroke:none;stroke-width:1px;stroke-linecap:butt;stroke-linejoin:miter;stroke-opacity:1"
       d="m 144.5444,367.06604 c 2.71486,-15.2315 16.03976,-36.2419 16.75992,-37.3942 0,0 -30.83393,-6.3433 -48.27482,7.1419 0,0 5.90224,14.9242 9.50299,30.9116 0.43209,1.4403 7.1768,-5.7004 22.01191,-0.6593 z"
       id="path4174-7-6-5"
       inkscape:connector-curvature="0"
       sodipodi:nodetypes="ccccc" />
    <path
       style="fill:#d45500;fill-opacity:1;fill-rule:evenodd;stroke:none;stroke-width:1px;stroke-linecap:butt;stroke-linejoin:miter;stroke-opacity:1"
       d="m 363.37169,245.96394 c -16.14697,-5.5661 -34.15169,-16.7515 -35.30385,-17.4716 0,0 -4.05152,27.8785 6.68308,48.7806 0,0 10.44144,-9.0013 26.42765,-12.6018 1.44019,-0.432 -2.84758,-3.8732 2.19312,-18.7072 z"
       id="path4174-4-8-4"
       inkscape:connector-curvature="0"
       sodipodi:nodetypes="ccccc" />
    <path
       style="fill:#d45500;fill-opacity:1;fill-rule:evenodd;stroke:none;stroke-width:1px;stroke-linecap:butt;stroke-linejoin:miter;stroke-opacity:1"
       d="m 24.580193,246.07384 c 8.2495,-3.9102 34.376641,-17.4477 35.521031,-18.163 0,0 4.53723,29.3646 -8.85608,48.912 0,0 -13.717161,-9.458 -24.740361,-10.3537 -1.43049,-0.4292 3.08213,-5.6612 -1.92459,-20.3953 z"
       id="path4174-9-6-7-2"
       inkscape:connector-curvature="0"
       sodipodi:nodetypes="ccccc" />
    <path
       style="fill:#d45500;fill-opacity:1;fill-rule:evenodd;stroke:none;stroke-width:1px;stroke-linecap:butt;stroke-linejoin:miter;stroke-opacity:1"
       d="m 242.38082,367.83324 c -0.57219,-1.5735 -9.61933,-28.6817 -16.80824,-36.9066 0,0 22.81631,-5.6505 49.13732,7.2955 0,0 -6.93787,9.1551 -10.5141,25.0335 -0.42914,1.4305 -7.08093,-0.4291 -21.81498,4.5776 z"
       id="path4174-9-1-4-2"
       inkscape:connector-curvature="0"
       sodipodi:nodetypes="ccccc" />
    <path
       style="fill:#d45500;fill-opacity:1;fill-rule:evenodd;stroke:none;stroke-width:1px;stroke-linecap:butt;stroke-linejoin:miter;stroke-opacity:1"
       d="m 365.35911,147.07854 c -3.71927,0 -16.18189,2.2316 -37.42466,17.7524 0,0 -4.79215,-25.8918 8.15379,-48.7081 0,0 9.91675,7.885 25.79519,11.4612 1.43049,0.4292 -1.53104,4.7604 3.47568,19.4945 z"
       id="path4174-9-5-9-3"
       inkscape:connector-curvature="0"
       sodipodi:nodetypes="ccccc" />
    <path
       style="fill:#aa4400;fill-opacity:1;fill-rule:evenodd;stroke:none;stroke-width:1px;stroke-linecap:butt;stroke-linejoin:miter;stroke-opacity:1"
       d="m 51.228894,276.83854 c 0.71525,4.4345 -11.163421,15.3221 -15.812511,23.0467 0,0 19.674841,7.1749 22.249721,14.4704 0,0 13.87576,-10.0134 27.75151,-10.5856 0,0 -14.23339,-22.6401 -34.18872,-26.9315 z"
       id="path4240-2-9"
       inkscape:connector-curvature="0"
       sodipodi:nodetypes="ccccc" />
    <path
       style="fill:#ff7f2a;fill-opacity:1;fill-rule:evenodd;stroke:none;stroke-width:1px;stroke-linecap:butt;stroke-linejoin:miter;stroke-opacity:1"
       d="m 84.712164,341.42624 c 3.2186,-5.4358 0.34782,-24.7818 1.06306,-37.6562 0,0 -14.51947,-1.0013 -28.39522,10.3711 0,0 0.92981,12.3022 0.64371,16.3075 0,0 21.96783,6.6862 26.68845,10.9776 z"
       id="path4242-4-6"
       inkscape:connector-curvature="0"
       sodipodi:nodetypes="ccccc" />
    <path
       style="fill:#aa4400;fill-opacity:1;fill-rule:evenodd;stroke:none;stroke-width:1px;stroke-linecap:butt;stroke-linejoin:miter;stroke-opacity:1"
       d="m 85.632184,304.05614 c -0.2861,3.2901 -1.93116,19.1686 -9.36971,29.2535 0,0 10.72867,9.2267 12.30221,14.2334 0,0 15.306266,-11.2294 24.461386,-10.228 0,0 -14.23338,-25.6773 -27.393886,-33.2589 z"
       id="path4248-4-5"
       inkscape:connector-curvature="0"
       sodipodi:nodetypes="ccccc" />
    <path
       style="fill:#2b1100;fill-opacity:1;fill-rule:evenodd;stroke:none;stroke-width:1px;stroke-linecap:butt;stroke-linejoin:miter;stroke-opacity:1"
       d="m 33.052803,297.55054 c 2.13495,0 10.064711,2.44 12.504641,4.8799 0,0 8.11928,-13.8416 5.64233,-25.7145 0,0 -15.137231,7.4367 -19.976911,10.465 0,0 1.82994,6.5573 1.82994,10.3696 z"
       id="path4256-5-7"
       inkscape:connector-curvature="0"
       sodipodi:nodetypes="ccccc" />
    <path
       style="fill:#552200;fill-opacity:1;fill-rule:evenodd;stroke:none;stroke-width:1px;stroke-linecap:butt;stroke-linejoin:miter;stroke-opacity:1"
       d="m 24.621783,277.66364 c 1.28744,0.7152 6.58025,5.0067 7.72464,9.1551 0,0 9.804431,-5.2016 18.925111,-10.0221 0,0 -6.87156,-8.2579 -24.504021,-10.72 0,0 -1.00133,6.7233 -2.14573,11.587 z"
       id="path4267-9-4"
       inkscape:connector-curvature="0"
       sodipodi:nodetypes="ccccc" />
    <path
       style="fill:#2b1100;fill-opacity:1;fill-rule:evenodd;stroke:none;stroke-width:1px;stroke-linecap:butt;stroke-linejoin:miter;stroke-opacity:1"
       d="m 88.041574,344.91394 c 2.11103,-2.0547 15.543276,-10.1002 24.984496,-8.3836 0,0 -4.29568,15.2069 -5.72617,25.2203 0,0 -9.6148,-6.2235 -15.336756,-4.9361 0,0 -1.77583,-9.7548 -3.92157,-11.9006 z"
       id="path4284-1-3"
       inkscape:connector-curvature="0"
       sodipodi:nodetypes="ccccc" />
    <path
       sodipodi:nodetypes="ccccc"
       style="fill:#552200;fill-opacity:1;fill-rule:evenodd;stroke:none;stroke-width:1px;stroke-linecap:butt;stroke-linejoin:miter;stroke-opacity:1"
       d="m 103.61497,359.22114 c 6.56444,-16.221 7.18926,-18.0347 9.36762,-22.7585 0,0 9.85484,6.5351 11.7316,27.1879 0,0 -11.12244,-0.1989 -13.13257,2.3856 0,0 -5.23861,-7.3893 -7.96665,-6.815 z"
       id="path4298-28-9"
       inkscape:connector-curvature="0" />
    <path
       style="fill:#aa4400;fill-opacity:1;fill-rule:evenodd;stroke:none;stroke-width:1px;stroke-linecap:butt;stroke-linejoin:miter;stroke-opacity:1"
       d="m 275.0808,338.29864 c 4.43452,-0.7152 20.38448,6.3657 25.24815,10.228 0,0 7.79618,-14.1618 12.08765,-16.6652 0,0 -0.42915,-18.3818 -11.37242,-27.823 0,0 -18.92138,7.1321 -25.96338,34.2602 z"
       id="path4240-4-9-4"
       inkscape:connector-curvature="0"
       sodipodi:nodetypes="ccccc" />
    <path
       style="fill:#ff7f2a;fill-opacity:1;fill-rule:evenodd;stroke:none;stroke-width:1px;stroke-linecap:butt;stroke-linejoin:miter;stroke-opacity:1"
       d="m 337.8078,307.47164 c -3.29013,-1.7166 -23.72878,-2.7613 -36.90665,-3.4332 0,0 -0.5722,9.0121 11.15783,27.8946 0,0 9.9419,-3.3617 13.94727,-3.0756 0,0 7.51008,-16.6652 11.80155,-21.3858 z"
       id="path4242-0-6-4"
       inkscape:connector-curvature="0"
       sodipodi:nodetypes="ccccc" />
    <path
       style="fill:#aa4400;fill-opacity:1;fill-rule:evenodd;stroke:none;stroke-width:1px;stroke-linecap:butt;stroke-linejoin:miter;stroke-opacity:1"
       d="m 301.04419,304.10994 c 6.93157,0.185 23.8033,4.764 29.66831,8.0542 0,0 7.33231,-9.4203 12.33903,-10.9939 0,0 -9.269,-15.0559 -8.26765,-24.211 0,0 -20.43613,5.2642 -33.73969,27.1507 z"
       id="path4248-9-0-0"
       inkscape:connector-curvature="0"
       sodipodi:nodetypes="ccccc" />
    <path
       style="fill:#2b1100;fill-opacity:1;fill-rule:evenodd;stroke:none;stroke-width:1px;stroke-linecap:butt;stroke-linejoin:miter;stroke-opacity:1"
       d="m 296.01375,355.86534 c 0,-2.0154 1.43961,-9.8613 3.743,-12.1647 0,0 -12.8126,-7.3421 -25.12134,-5.6866 0,0 3.743,8.4218 10.00535,19.5789 0,0 7.77393,-1.7276 11.37299,-1.7276 z"
       id="path4256-1-6-6"
       inkscape:connector-curvature="0"
       sodipodi:nodetypes="ccccc" />
    <path
       style="fill:#552200;fill-opacity:1;fill-rule:evenodd;stroke:none;stroke-width:1px;stroke-linecap:butt;stroke-linejoin:miter;stroke-opacity:1"
       d="m 276.33203,365.90714 c 0.7173,-1.2911 4.5907,-7.3164 8.75103,-8.4641 0,0 -2.79748,-5.5232 -10.1139,-19.367 0,0 -6.52741,4.4472 -10.97466,24.8185 0,0 7.4599,1.8649 12.33753,3.0126 z"
       id="path4267-7-40-0"
       inkscape:connector-curvature="0"
       sodipodi:nodetypes="ccccc" />
    <path
       style="fill:#2b1100;fill-opacity:1;fill-rule:evenodd;stroke:none;stroke-width:1px;stroke-linecap:butt;stroke-linejoin:miter;stroke-opacity:1"
       d="m 343.59203,304.04774 c 0,0 -9.94511,-13.8725 -9.24119,-27.9424 0,0 14.71828,5.4196 25.15175,9.5039 0,0 -4.01175,7.8466 -2.51114,14.5159 0,0 -10.8984,1.4214 -13.39942,3.9226 z"
       id="path4284-8-9-2"
       inkscape:connector-curvature="0"
       sodipodi:nodetypes="ccccc" />
    <path
       style="fill:#552200;fill-opacity:1;fill-rule:evenodd;stroke:none;stroke-width:1px;stroke-linecap:butt;stroke-linejoin:miter;stroke-opacity:1"
       d="m 359.92795,287.03814 c -7.51542,-2.8694 -25.49836,-9.8907 -25.49836,-9.8907 0,0 7.40796,-8.6995 30.43954,-14.1024 0,0 0.83991,13.5084 3.86366,15.8603 0,0 -7.87319,5.1193 -8.80484,8.1328 z"
       id="path4298-5-4-2"
       inkscape:connector-curvature="0"
       sodipodi:nodetypes="ccccc" />
    <path
       style="fill:#aa4400;fill-opacity:1;fill-rule:evenodd;stroke:none;stroke-width:1px;stroke-linecap:butt;stroke-linejoin:miter;stroke-opacity:1"
       d="m 335.65547,116.24684 c 8.59623,-7.0417 2.57026,-20.472805 6.41415,-25.331305 0,0 -5.44726,-9.0845 -12.27048,-13.1431 0,0 -14.49283,-1.8842 -29.51298,10.7041 0,0 9.53495,19.531005 35.36931,27.770305 z"
       id="path4240-5-54-8"
       inkscape:connector-curvature="0"
       sodipodi:nodetypes="ccccc" />
    <path
       style="fill:#ff7f2a;fill-opacity:1;fill-rule:evenodd;stroke:none;stroke-width:1px;stroke-linecap:butt;stroke-linejoin:miter;stroke-opacity:1"
       d="m 311.38158,59.819735 c -2.37407,2.6832 -9.41924,15.6986 -10.84973,28.573 0,0 10.60447,1.0591 29.48694,-10.6709 0,0 -3.18748,-9.2982 -2.90138,-13.3036 0,0 -6.73961,-8.9752 -15.73583,-4.5985 z"
       id="path4242-1-66-4"
       inkscape:connector-curvature="0"
       sodipodi:nodetypes="ccccc" />
    <path
       sodipodi:nodetypes="ccccc"
       style="fill:#aa4400;fill-opacity:1;fill-rule:evenodd;stroke:none;stroke-width:1px;stroke-linecap:butt;stroke-linejoin:miter;stroke-opacity:1"
       d="m 300.61713,88.501035 c 0.2861,-3.2901 4.86261,-21.8905 10.9841,-28.4938 0,0 -11.17623,-8.0184 -12.74977,-13.0251 0,0 -11.64518,5.6852 -24.76992,7.1156 0,0 8.77736,22.1053 26.53559,34.4033 z"
       id="path4248-8-3-3"
       inkscape:connector-curvature="0" />
    <path
       style="fill:#2b1100;fill-opacity:1;fill-rule:evenodd;stroke:none;stroke-width:1px;stroke-linecap:butt;stroke-linejoin:miter;stroke-opacity:1"
       d="m 354.66375,92.671835 c -2.09032,0 -10.0399,-1.5007 -12.27953,-3.591 0,0 -7.40888,13.417505 -6.69965,27.116505 0,0 14.89352,-3.7859 22.75031,-8.8262 0,0 -3.77113,-10.9667 -3.77113,-14.699305 z"
       id="path4256-3-9-1"
       inkscape:connector-curvature="0"
       sodipodi:nodetypes="ccccc" />
    <path
       sodipodi:nodetypes="ccccc"
       style="fill:#552200;fill-opacity:1;fill-rule:evenodd;stroke:none;stroke-width:1px;stroke-linecap:butt;stroke-linejoin:miter;stroke-opacity:1"
       d="m 364.3894,114.10634 c -1.3009,-0.7228 -5.22115,-5.5341 -7.91063,-9.2147 0,0 -2.77489,2.2046 -20.83197,11.1639 0,0 6.52204,7.4461 27.04739,11.9271 0,0 0.53884,-8.9618 1.69521,-13.8763 z"
       id="path4267-8-9-1"
       inkscape:connector-curvature="0" />
    <path
       style="fill:#2b1100;fill-opacity:1;fill-rule:evenodd;stroke:none;stroke-width:1px;stroke-linecap:butt;stroke-linejoin:miter;stroke-opacity:1"
       d="m 301.43603,46.209335 c 0,0 -5.64846,5.4165 -27.36251,7.9853 0,0 -4.1763,-21.9986 10.65275,-23.7402 0,0 6.44253,3.3434 12.89038,3.3421 0,0 1.83011,9.7473 3.81938,12.4128 z"
       id="path4284-7-5-1"
       inkscape:connector-curvature="0"
       sodipodi:nodetypes="ccccc" />
    <path
       sodipodi:nodetypes="ccccc"
       style="fill:#552200;fill-opacity:1;fill-rule:evenodd;stroke:none;stroke-width:1px;stroke-linecap:butt;stroke-linejoin:miter;stroke-opacity:1"
       d="m 283.48701,33.176835 c -1.00134,2.9325 -6.40324,14.6669 -9.44303,20.961 0,0 -10.76264,-14.4165 -11.62093,-25.4313 0,0 10.96235,-1.8463 14.16185,-3.004 0,0 4.43452,6.5803 6.90211,7.4743 z"
       id="path4298-2-2-9"
       inkscape:connector-curvature="0" />
    <path
       style="fill:#aa4400;fill-opacity:1;fill-rule:evenodd;stroke:none;stroke-width:1px;stroke-linecap:butt;stroke-linejoin:miter;stroke-opacity:1"
       d="m 113.06321,53.670135 c -4.43452,0.7152 -22.536176,-2.4507 -27.399846,-6.313 0,0 -6.00806,9.1725 -13.30356,11.7474 0,0 13.22572,15.7557 13.79792,29.6315 0,0 20.992626,-9.0292 26.905486,-35.0659 z"
       id="path4240-3-1-0"
       inkscape:connector-curvature="0"
       sodipodi:nodetypes="ccccc" />
    <path
       style="fill:#ff7f2a;fill-opacity:1;fill-rule:evenodd;stroke:none;stroke-width:1px;stroke-linecap:butt;stroke-linejoin:miter;stroke-opacity:1"
       d="m 53.247504,79.511435 c 3.29013,1.7166 21.62459,9.2766 33.08289,9.1898 0,0 0.14515,-16.6822 -11.68602,-30.9117 0,0 -9.80393,3.4404 -13.8093,3.1543 0,0 -3.2961,13.847 -7.58757,18.5676 z"
       id="path4242-7-3-0"
       inkscape:connector-curvature="0"
       sodipodi:nodetypes="ccccc" />
    <path
       style="fill:#aa4400;fill-opacity:1;fill-rule:evenodd;stroke:none;stroke-width:1px;stroke-linecap:butt;stroke-linejoin:miter;stroke-opacity:1"
       d="m 86.192434,88.582735 c -3.49243,0.422 -23.90233,-3.0848 -30.6777,-10.2187 0,0 -7.46309,8.7158 -12.46981,10.2894 0,0 9.93262,17.751205 8.93127,26.906305 0,0 22.18401,-9.0624 34.21624,-26.977005 z"
       id="path4248-7-0-0"
       inkscape:connector-curvature="0"
       sodipodi:nodetypes="ccccc" />
    <path
       style="fill:#2b1100;fill-opacity:1;fill-rule:evenodd;stroke:none;stroke-width:1px;stroke-linecap:butt;stroke-linejoin:miter;stroke-opacity:1"
       d="m 92.446794,35.213235 c 0,2.0027 -3.50471,10.8717 -5.79349,13.1605 0,0 14.304926,8.2968 26.392546,5.4359 0,0 -5.16921,-12.7661 -10.46202,-21.9213 0,0 -6.56081,3.3249 -10.137036,3.3249 z"
       id="path4256-0-9-2"
       inkscape:connector-curvature="0"
       sodipodi:nodetypes="ccccc" />
    <path
       style="fill:#552200;fill-opacity:1;fill-rule:evenodd;stroke:none;stroke-width:1px;stroke-linecap:butt;stroke-linejoin:miter;stroke-opacity:1"
       d="m 112.18756,24.627635 c -0.71525,1.2874 -4.92503,7.1719 -9.07344,8.3163 0,0 5.64026,12.5688 9.8602,20.9372 0,0 8.79753,-7.1525 10.15649,-25.8919 0,0 -6.07958,-2.2172 -10.94325,-3.3616 z"
       id="path4267-2-9-5"
       inkscape:connector-curvature="0"
       sodipodi:nodetypes="ccccc" />
    <path
       style="fill:#2b1100;fill-opacity:1;fill-rule:evenodd;stroke:none;stroke-width:1px;stroke-linecap:butt;stroke-linejoin:miter;stroke-opacity:1"
       d="m 42.914564,87.912935 c 3.01013,3.3882 10.82831,17.824905 9.02412,27.748005 0,0 -15.451401,-8.1296 -25.975891,-9.6331 0,0 8.98635,-9.0424 7.63321,-15.056305 0,0 7.0633,-0.8034 9.318561,-3.0586 z"
       id="path4284-84-1-7"
       inkscape:connector-curvature="0"
       sodipodi:nodetypes="ccccc" />
    <path
       style="fill:#552200;fill-opacity:1;fill-rule:evenodd;stroke:none;stroke-width:1px;stroke-linecap:butt;stroke-linejoin:miter;stroke-opacity:1"
       d="m 28.607683,105.21914 c 15.326841,6.2491 20.052031,8.4286 23.506111,10.3299 0,0 -9.67035,9.8117 -26.555411,11.7162 0,0 -0.8315,-13.2615 -3.45406,-15.3013 0,0 7.08615,-3.9765 6.50336,-6.7448 z"
       id="path4298-50-3-6"
       inkscape:connector-curvature="0"
       sodipodi:nodetypes="ccccc" />
    <g
       id="g4509-4-9"
       style="fill:none;fill-opacity:1;stroke:#2b1100;stroke-opacity:1"
       transform="translate(-151.06214,-95.370073)">
      <g
         id="g4408-5-1"
         style="fill:none;fill-opacity:1;stroke:#2b1100;stroke-opacity:1">
        <path
           style="fill:none;fill-opacity:1;fill-rule:evenodd;stroke:#2b1100;stroke-width:1px;stroke-linecap:butt;stroke-linejoin:miter;stroke-opacity:1"
           d="m 312.62036,471.71304 c 7.03236,-3.75592 34.60492,-19.27183 65.28907,0.39956 0,0 18.22021,-20.29795 49.30643,-11.50749"
           id="path4402-85-9"
           inkscape:connector-curvature="0"
           sodipodi:nodetypes="ccc" />
        <path
           style="fill:none;fill-opacity:1;fill-rule:evenodd;stroke:#2b1100;stroke-width:1px;stroke-linecap:butt;stroke-linejoin:miter;stroke-opacity:1"
           d="m 427.13595,460.60511 c 0,0 5.67383,-10.14898 18.93942,-9.82933 0,0 2.28439,-23.99334 30.84649,-27.09056 0,0 0.0781,-25.32302 28.14141,-31.27973 0,0 -2.06327,-13.04329 9.7112,-18.56177 0,0 -11.77447,-29.48152 11.42012,-50.19774"
           id="path4404-7-8"
           inkscape:connector-curvature="0"
           sodipodi:nodetypes="cccccc" />
      </g>
      <g
         id="g4408-3-3-7"
         transform="matrix(0,-1,1,0,54.396554,636.53917)"
         style="fill:none;fill-opacity:1;stroke:#2b1100;stroke-opacity:1">
        <path
           style="fill:none;fill-opacity:1;fill-rule:evenodd;stroke:#2b1100;stroke-width:1px;stroke-linecap:butt;stroke-linejoin:miter;stroke-opacity:1"
           d="m 312.62036,471.71304 c 6.55661,-6.10959 36.55661,-21.10959 65.28907,0.39956 0,0 18.22021,-20.29795 49.30643,-11.50749"
           id="path4402-9-3-6"
           inkscape:connector-curvature="0"
           sodipodi:nodetypes="ccc" />
        <path
           style="fill:none;fill-opacity:1;fill-rule:evenodd;stroke:#2b1100;stroke-width:1px;stroke-linecap:butt;stroke-linejoin:miter;stroke-opacity:1"
           d="m 427.13595,460.60511 c 0,0 7.04102,-10.00166 19.65467,-9.97238 0,0 2.38635,-25.02928 30.13124,-26.94751 0,0 2.25511,-28.08177 28.14141,-31.27973 0,0 -0.8863,-11.80204 9.7112,-18.56177 0,0 -10.5975,-33.24027 11.42012,-50.19774 l 0.83733,-0.84167"
           id="path4404-8-8-5"
           inkscape:connector-curvature="0"
           sodipodi:nodetypes="cccccc" />
      </g>
      <g
         id="g4408-1-9-1"
         transform="matrix(-1,0,0,-1,690.23634,581.99259)"
         style="fill:none;fill-opacity:1;stroke:#2b1100;stroke-opacity:1">
        <path
           style="fill:none;fill-opacity:1;fill-rule:evenodd;stroke:#2b1100;stroke-width:1px;stroke-linecap:butt;stroke-linejoin:miter;stroke-opacity:1"
           d="m 312.33426,472.35676 c 7.03236,-3.75592 34.89102,-19.91555 65.57517,-0.24416 0,0 18.22021,-20.29795 49.30643,-11.50749"
           id="path4402-8-55-1"
           inkscape:connector-curvature="0"
           sodipodi:nodetypes="ccc" />
        <path
           style="fill:none;fill-opacity:1;fill-rule:evenodd;stroke:#2b1100;stroke-width:1px;stroke-linecap:butt;stroke-linejoin:miter;stroke-opacity:1"
           d="m 427.13595,460.60511 c 0,0 7.10039,-9.97472 18.93942,-9.82933 0,0 3.16097,-22.14539 30.84649,-27.09056 0,0 3.31448,-25.05483 28.14141,-31.27973 0,0 -0.82693,-11.7751 9.7112,-18.56177 0,0 -9.53813,-28.21333 11.42012,-50.19774"
           id="path4404-2-3-4"
           inkscape:connector-curvature="0"
           sodipodi:nodetypes="cccccc" />
      </g>
      <g
         id="g4408-1-7-8-8"
         transform="matrix(0,1,-1,0,636.4114,-54.208697)"
         style="fill:none;fill-opacity:1;stroke:#2b1100;stroke-opacity:1">
        <path
           style="fill:none;fill-opacity:1;fill-rule:evenodd;stroke:#2b1100;stroke-width:1px;stroke-linecap:butt;stroke-linejoin:miter;stroke-opacity:1"
           d="m 312.62036,471.71304 c 7.03236,-3.75592 33.95054,-17.30164 65.28907,0.39956 0,0 13.66147,-20.7012 49.30643,-11.50749"
           id="path4402-8-5-6-5"
           inkscape:connector-curvature="0"
           sodipodi:nodetypes="ccc" />
        <path
           style="fill:none;fill-opacity:1;fill-rule:evenodd;stroke:#2b1100;stroke-width:1px;stroke-linecap:butt;stroke-linejoin:miter;stroke-opacity:1"
           d="m 427.13595,460.60511 c 0,0 4.82804,-9.5868 18.33251,-9.22242 0,0 3.82112,-24.52873 32.38322,-27.62595 0,0 0.71922,-24.34534 27.21159,-31.35125 0,0 -0.49237,-11.99409 9.7112,-18.56177 0,0 -10.20357,-29.43232 11.72357,-49.59083"
           id="path4404-2-1-0-7"
           inkscape:connector-curvature="0"
           sodipodi:nodetypes="cccccc" />
      </g>
      <ellipse
         ry="194.06017"
         rx="194.21721"
         cy="290.31601"
         cx="345.3761"
         id="path4501-3-6"
         style="fill:none;fill-opacity:1;stroke:#2b1100;stroke-width:1.56557059;stroke-opacity:1" />
    </g>
    <path
       style="fill:none;fill-rule:evenodd;stroke:#000000;stroke-width:1px;stroke-linecap:butt;stroke-linejoin:miter;stroke-opacity:1"
       d="m 160.7621,376.76264 3.40513,-1.7445"
       id="path4596-3-6"
       inkscape:connector-curvature="0"
       sodipodi:nodetypes="cc" />
    <g
       transform="translate(-151.61464,-95.501933)"
       id="g4808-6-9"
       style="fill:#2b1100;stroke:#2b1100">
      <path
         inkscape:connector-curvature="0"
         id="path4627-1-1"
         d="m 328.47812,482.70384 c -25.55115,-2.23174 -53.98384,-9.95336 -76.09853,-23.0164 -8.64751,-5.10804 -15.89685,-9.30998 -27.96962,-18.79717 -8.43039,-6.62489 -22.12526,-20.32829 -28.68355,-28.50657 -22.40868,-27.94399 -37.74524,-61.7089 -41.90344,-97.84552 -1.12951,-9.81597 -2.38761,-28.30547 -1.5642,-38.19408 3.86858,-46.45905 22.73147,-87.77827 54.9046,-120.87707 29.82645,-30.6846 67.85183,-50.47011 111.73046,-57.316976 7.37604,-1.150965 10.45171,-1.262915 27.23856,-1.262915 16.78685,0 19.60097,0.684146 26.97701,1.835111 44.31884,6.91555 82.47292,26.16032 112.79415,57.5465 29.24497,30.27212 46.39051,66.38891 52.35498,109.63277 1.43851,10.42953 1.24172,37.77504 -0.18298,47.99294 -5.20716,37.34638 -18.30107,69.71345 -41.01015,98.20315 -6.36056,7.97965 -21.43692,22.30406 -29.61521,28.86235 -30.23421,24.24524 -66.31881,38.82453 -105.06081,42.24113 -7.61262,0.67135 -25.70014,1.00265 -33.9113,-0.49728 l -0.20231,-0.30347 z m -10.96367,-12.5413 c 16.69059,-8.6834 36.14622,-9.23694 51.84849,-2.34517 2.25914,0.99154 4.73729,2.36337 6.31313,3.19879 l 3.01483,1.59829 3.49797,-2.94797 c 11.54752,-9.73186 27.78632,-13.71097 42.13209,-9.38283 l 3.07914,0.92898 3.87079,-4.01194 c 3.44404,-3.56963 7.46451,-5.38661 12.32653,-5.63809 l 3.48514,-0.18027 0.8343,-3.38288 c 3.2848,-13.31904 7.3673,-14.08655 12.27188,-17.75021 5.18559,-3.87359 8.1259,-4.38286 15.70498,-5.6845 1.93181,-0.33177 2.24942,0.002 2.24942,-1.57452 0,-2.93225 1.81216,-9.61143 3.90392,-13.60164 3.91109,-7.46074 13.41554,-14.18336 22.02865,-15.72801 l 2.00762,-0.75614 -0.0325,-3.73656 c -0.05,-5.74879 2.91746,-10.3835 7.15745,-13.26167 2.29577,-1.55841 2.81167,-1.39826 2.57639,-2.28878 -0.16629,-0.62941 -1.10155,-3.18999 -1.64125,-5.07824 -0.74105,-2.59271 -1.40672,-5.53285 -1.39534,-12.23069 0.0137,-8.09046 0.65093,-9.55699 2.0557,-13.73271 1.89984,-5.64732 4.91102,-10.87322 8.85895,-15.23583 1.65541,-1.82927 3.36744,-3.15867 3.36744,-3.39131 0,-0.23263 -1.43848,-1.9789 -2.5847,-3.70575 -2.91327,-4.38904 -5.70201,-11.95211 -7.04525,-18.43972 -1.47621,-7.12976 -1.25585,-17.71881 0.59622,-24.13315 1.57069,-5.43985 4.48394,-11.60353 7.57958,-15.88403 l 2.21189,-3.05849 -2.28019,-2.34339 c -3.81544,-3.9212 -7.61989,-11.26307 -10.16316,-19.80764 -1.8642,-6.2631 -1.95904,-16.05252 -0.25501,-22.59333 l 0.74559,-4.78372 c -0.27954,-0.35043 2.86699,1.5832 -1.47373,-1.47468 -5.92342,-4.17283 -8.25215,-11.56321 -8.25215,-16.6218 0,-1.84514 0.15624,-1.59951 -2.90394,-2.23481 -8.01691,-1.66431 -16.46483,-7.26335 -20.31192,-15.24677 -1.82118,-3.7793 -3.69048,-9.81488 -3.70466,-12.93238 -0.007,-1.54945 0.4186,-1.39474 -0.66368,-1.39474 -0.71441,0 -3.6795,-0.41368 -5.97716,-1.05037 -12.81664,-3.55167 -22.42417,-12.14286 -24.01721,-23.18876 l -0.58284,-4.0413 -3.29407,0.0497 c -4.70513,0.071 -9.65951,-2.89109 -13.14207,-6.5067 l -2.9065,-3.01754 -5.13746,1.1122 c -3.64072,0.78817 -5.05441,1.0381 -10.16575,1.36859 -9.04555,0.58488 -23.03651,-1.8354 -31.87057,-11.33109 l -3.28355,-3.52947 -2.24329,1.28947 c -20.70702,11.90261 -42.35944,12.43011 -59.36451,1.13454 l -3.7242,-2.47379 -1.46705,1.38459 c -3.10401,2.92956 -9.43885,7.52581 -13.83295,9.22036 -8.94709,3.45036 -18.57416,4.37915 -28.6553,2.49157 l -5.34215,-1.00025 -1.82335,1.8589 c -4.064,4.14326 -8.34552,7.59246 -12.70518,7.55381 l -4.69061,-0.0416 -0.97625,3.82043 c -1.3668,5.34875 -4.28191,9.34772 -8.30607,13.37174 -4.91834,4.91815 -12.33717,8.24162 -20.10211,9.78346 -1.60668,0.31904 -1.46392,0.20116 -2.10677,3.31355 -1.1996,5.80786 -5.40099,13.87962 -10.03996,18.54339 -4.51445,4.53859 -7.81608,7.23997 -13.53682,8.71116 l -4.08826,1.05136 -0.13874,3.30412 c -0.23534,5.60447 -2.86434,11.37872 -7.82148,14.30861 l -1.59962,0.94092 1.09792,4.52677 c 1.33861,5.5192 1.37271,18.35924 -0.24896,24.2797 -1.60398,5.85587 -4.00283,12.57186 -8.37191,17.32066 l -3.8833,4.22079 2.55842,4.84368 c 6.76221,12.80242 7.95623,26.98543 5.28418,40.15842 -1.16646,5.7506 -4.22364,15.01428 -6.50611,18.33765 -0.7955,1.15828 -1.07855,2.01516 -1.07855,2.29753 0,0.28236 1.67566,1.49933 3.50295,3.41961 3.9349,4.13518 7.35389,11.34287 9.14748,17.61661 1.69634,5.93358 2.27125,14.02616 0.55536,21.24857 l -1.70179,7.16307 2.96409,2.34239 c 3.77248,2.98122 5.63765,7.44168 5.86348,12.52544 l 0.83277,3.64247 1.74676,0.60635 c 9.9907,3.4681 17.18716,8.89714 21.137,17.13329 1.2124,2.52808 2.22888,2.32329 3.44564,10.41549 l 0.67982,4.52124 2.3603,0.14677 c 13.06445,0.81236 24.57936,10.30183 27.85376,22.64257 l 1.52235,4.08809 3.24741,0.53135 c 4.63518,0.75843 9.9911,3.14207 13.10765,6.70475 l 2.46623,2.81927 2.95418,-0.9114 c 1.71269,-0.52839 6.40268,-1.33121 10.5195,-1.50212 8.33022,-0.34583 14.6725,0.74038 20.69293,3.1867 4.07282,1.65493 10.4397,6.01913 13.10776,8.7873 1.08453,1.12523 1.8196,2.17052 1.96484,2.09646 0,0 3.34908,-1.88641 4.14818,-2.01415 z"
         style="fill:#2b1100;fill-opacity:1;stroke:#2b1100;stroke-width:0.57219601;stroke-miterlimit:4;stroke-dasharray:none;stroke-opacity:1"
         sodipodi:nodetypes="csssssssssssssssccccsscsscsscsssssscsssssssssssscssscsssscssscsscssscsscssscsscsssssscsscssscssssssscsscssscsscsscssssscc" />
      <path
         inkscape:connector-curvature="0"
         id="path4806-8-4"
         d="m 166.0799,260.22833 c -0.64372,-1.18015 -1.57354,-3.29012 -1.57354,-3.29012"
         style="fill:#2b1100;fill-rule:evenodd;stroke:#2b1100;stroke-width:1px;stroke-linecap:butt;stroke-linejoin:miter;stroke-opacity:1" />
    </g>
    <text
       xml:space="preserve"
       style="font-style:normal;font-variant:normal;font-weight:normal;font-stretch:normal;font-size:40px;line-height:125%;font-family:Ubuntu;-inkscape-font-specification:Ubuntu;letter-spacing:0px;word-spacing:0px;fill:#000000;fill-opacity:1;stroke:none;stroke-width:1px;stroke-linecap:butt;stroke-linejoin:miter;stroke-opacity:1"
       x="69.053101"
       y="211.72047"
       id="text3424-7-3"
       sodipodi:linespacing="125%"><tspan
         sodipodi:role="line"
         id="tspan3426-0-6"
         x="69.053101"
         y="211.72047"
         style="font-style:normal;font-variant:normal;font-weight:normal;font-stretch:normal;font-size:50px;font-family:Play;-inkscape-font-specification:Play;letter-spacing:4px">Пуанкарé</tspan></text>
  </g>
</svg>
