<?xml version="1.0" encoding="utf-8"?>
<!-- Generator: Adobe Illustrator 21.0.2, SVG Export Plug-In . SVG Version: 6.00 Build 0)  -->
<svg version="1.1" id="Слой_1" xmlns="http://www.w3.org/2000/svg" xmlns:xlink="http://www.w3.org/1999/xlink" x="0px" y="0px"
	 viewBox="0 0 44 50" style="enable-background:new 0 0 44 50;" xml:space="preserve">
<style type="text/css">
	.st0{clip-path:url(#SVGID_5_);}
	.st1{clip-path:url(#SVGID_6_);}
	.st2{clip-path:url(#SVGID_7_);}
	.st3{clip-path:url(#SVGID_8_);fill:#E8EAEF;}
</style>
<g>
	<g>
		<defs>
			<rect id="SVGID_1_" width="44" height="50"/>
		</defs>
		<defs>
			<rect id="SVGID_2_" width="44" height="50"/>
		</defs>
		<defs>
			<path id="SVGID_3_" d="M25.7,17.5l-4.2-2.4l-4.2,2.4h0L13,19.9v4.9h0v4.9l4.2,2.4l4.2,2.4l4.2-2.4l4.2-2.4v-9.8L25.7,17.5
				L25.7,17.5z M39.6,36.1l-8.9-5.3l-4.3,2.5h0l-4.3,2.5v10.4l8.8-5.1v0L39.6,36.1z M40.3,14.7l-9,5.3v4.8h0v4.8l9,5.3V14.7z
				 M22.1,3.4v10.4l4.3,2.5l4.3,2.5l8.9-5.3l-8.7-5v0L22.1,3.4z M3.4,13.5l8.9,5.3l4.3-2.5l4.1-2.4V3.5l-8.7,5L3.4,13.5z M2.7,35
				l9-5.3v-4.8h0V20l-9-5.3V35z M12.3,30.8l-8.9,5.3l8.7,5l8.7,5V35.7l-4.1-2.4h0L12.3,30.8z M22.2,0.4l10.1,5.8h0L42.3,12l0.7,0.4
				v24.8l-0.7,0.4l-10.1,5.8h0l-10.1,5.8l-0.7,0.4l-0.7-0.4l-10.1-5.8L0.7,37.6L0,37.2V12.4L0.7,12l10.1-5.8l10.1-5.8L21.5,0
				L22.2,0.4z M22.2,0.4"/>
		</defs>
		<defs>
			<rect id="SVGID_4_" width="43.9" height="50"/>
		</defs>
		<clipPath id="SVGID_5_">
			<use xlink:href="#SVGID_1_"  style="overflow:visible;"/>
		</clipPath>
		<clipPath id="SVGID_6_" class="st0">
			<use xlink:href="#SVGID_2_"  style="overflow:visible;"/>
		</clipPath>
		<clipPath id="SVGID_7_" class="st1">
			<use xlink:href="#SVGID_3_"  style="overflow:visible;"/>
		</clipPath>
		<clipPath id="SVGID_8_" class="st2">
			<use xlink:href="#SVGID_4_"  style="overflow:visible;"/>
		</clipPath>
		<rect class="st3" width="44" height="50"/>
	</g>
</g>
</svg>
