<?xml version="1.0" encoding="UTF-8" standalone="no"?>
<!-- Created with Inkscape (http://www.inkscape.org/) -->

<svg
   xmlns:dc="http://purl.org/dc/elements/1.1/"
   xmlns:cc="http://creativecommons.org/ns#"
   xmlns:rdf="http://www.w3.org/1999/02/22-rdf-syntax-ns#"
   xmlns:svg="http://www.w3.org/2000/svg"
   xmlns="http://www.w3.org/2000/svg"
   xmlns:sodipodi="http://sodipodi.sourceforge.net/DTD/sodipodi-0.dtd"
   xmlns:inkscape="http://www.inkscape.org/namespaces/inkscape"
   width="51.844822mm"
   height="63.196419mm"
   viewBox="0 0 183.70212 223.92432"
   id="svg5498"
   version="1.1"
   inkscape:version="0.91 r13725"
   sodipodi:docname="rocket.svg">
  <defs
     id="defs5500">
    <clipPath
       clipPathUnits="userSpaceOnUse"
       id="clipPath170">
      <path
         d="m 426.2525,127.7232 7.2786,0 -3.0285,7.2204 -0.006,0.0155 -15.7089,0 -0.006,-0.0155 -3.0285,-7.2204 14.4997,0"
         id="path172"
         inkscape:connector-curvature="0"
         style="clip-rule:evenodd" />
    </clipPath>
    <clipPath
       clipPathUnits="userSpaceOnUse"
       id="clipPath176">
      <path
         d="M 0,0 842,0 842,595 0,595 0,0 Z"
         id="path178"
         inkscape:connector-curvature="0" />
    </clipPath>
    <clipPath
       clipPathUnits="userSpaceOnUse"
       id="clipPath154">
      <path
         d="m 424.7958,126.0877 -4.9109,0 2.4555,-60.84981 2.4554,60.84981"
         id="path156"
         inkscape:connector-curvature="0"
         style="clip-rule:evenodd" />
    </clipPath>
    <clipPath
       clipPathUnits="userSpaceOnUse"
       id="clipPath160">
      <path
         d="M 0,0 842,0 842,595 0,595 0,0 Z"
         id="path162"
         inkscape:connector-curvature="0" />
    </clipPath>
    <clipPath
       clipPathUnits="userSpaceOnUse"
       id="clipPath138">
      <path
         d="m 412.1231,186.9357 c 0,0.4944 0.035,0.9806 0.1002,1.4571 0.1561,1.1277 0.49,2.1992 0.973,3.1852 1.7232,3.5177 5.3403,5.9458 9.5143,5.9458 4.1747,0 7.7919,-2.4281 9.5151,-5.9458 0.483,-0.986 0.8169,-2.0575 0.973,-3.1852 0.0652,-0.4765 0.1002,-0.9627 0.1002,-1.4571 0,-0.5424 -0.0412,-1.0754 -0.1204,-1.5961 -0.7719,-5.0837 -5.1718,-8.992 -10.4679,-8.992 -5.2953,0 -9.6952,3.9083 -10.4671,8.992 -0.0792,0.5207 -0.1204,1.0537 -0.1204,1.5961 l 0,0 z m -2.6752,-36.0572 c 1.3846,-5.8063 3.1753,-10.6092 5.2526,-14.1286 0.0256,-0.0427 0.0512,-0.0838 0.0761,-0.1265 l 15.8688,0 c 0.0249,0.0427 0.0505,0.0838 0.0761,0.1265 2.0773,3.5194 3.868,8.3223 5.2526,14.1286 0.403,1.6898 0.7649,3.4425 1.0848,5.2456 1.1726,6.6022 1.7853,13.899 1.7853,21.4074 0,2.2965 -0.1312,4.5541 -0.3673,6.7586 -0.1157,1.0807 -0.257,2.1485 -0.4209,3.2019 -0.1685,1.0871 -0.3603,2.1585 -0.5731,3.2126 -0.8977,4.4468 -2.1564,8.584 -3.5263,12.2689 l -22.4912,0 c -1.3699,-3.6839 -2.6287,-7.8213 -3.5264,-12.2689 -0.2119,-1.0541 -0.4045,-2.1255 -0.573,-3.2126 -0.1639,-1.0534 -0.3052,-2.1211 -0.4209,-3.2019 -0.2361,-2.2044 -0.3673,-4.4621 -0.3673,-6.7586 0,-7.5084 0.6127,-14.8052 1.7852,-21.4074 0.32,-1.8031 0.6819,-3.5558 1.0849,-5.2456 l 0,0 z"
         id="path140"
         inkscape:connector-curvature="0"
         style="clip-rule:evenodd" />
    </clipPath>
    <clipPath
       clipPathUnits="userSpaceOnUse"
       id="clipPath144">
      <path
         d="M 0,0 842,0 842,595 0,595 0,0 Z"
         id="path146"
         inkscape:connector-curvature="0" />
    </clipPath>
    <clipPath
       clipPathUnits="userSpaceOnUse"
       id="clipPath122">
      <path
         d="m 414.7464,186.6193 c 0,0.613 0.0675,1.2101 0.1957,1.7847 0.2617,1.1768 0.7765,2.2579 1.4847,3.1836 1.4957,1.9555 3.8525,3.217 6.5044,3.217 2.6527,0 5.0096,-1.2615 6.5052,-3.217 0.7082,-0.9257 1.2231,-2.0068 1.4848,-3.1836 0.1281,-0.5746 0.1957,-1.1717 0.1957,-1.7847 0,-0.4311 -0.0334,-0.8544 -0.0979,-1.2675 -0.6088,-3.9187 -3.9977,-6.9179 -8.0878,-6.9179 -4.0893,0 -7.4781,2.9992 -8.087,6.9179 -0.0644,0.4131 -0.0978,0.8364 -0.0978,1.2675 l 0,0 z m 8.1848,-9.7006 c 4.8519,0 8.8822,3.5795 9.5904,8.236 0.073,0.4777 0.1103,0.9668 0.1103,1.4646 0,0.5406 -0.045,1.0708 -0.1304,1.5876 -0.1887,1.1407 -0.5762,2.2149 -1.1276,3.1853 -1.668,2.9398 -4.827,4.9277 -8.4427,4.9277 -3.6148,0 -6.7738,-1.9879 -8.4418,-4.9277 -0.5514,-0.9704 -0.9389,-2.0446 -1.1276,-3.1853 -0.0854,-0.5168 -0.1305,-1.047 -0.1305,-1.5876 0,-0.4978 0.0373,-0.9869 0.1103,-1.4646 0.7082,-4.6565 4.7385,-8.236 9.5896,-8.236 l 0,0 z"
         id="path124"
         inkscape:connector-curvature="0"
         style="clip-rule:evenodd" />
    </clipPath>
    <clipPath
       clipPathUnits="userSpaceOnUse"
       id="clipPath128">
      <path
         d="M 0,0 842,0 842,595 0,595 0,0 Z"
         id="path130"
         inkscape:connector-curvature="0" />
    </clipPath>
    <clipPath
       clipPathUnits="userSpaceOnUse"
       id="clipPath106">
      <path
         d="m 430.4288,211.3036 c -3.2203,6.6166 -6.4648,11.3221 -7.7655,13.1092 -1.3038,-1.7922 -4.5607,-6.5172 -7.7834,-13.1449 -1.0235,-2.1052 -2.0998,-4.5243 -3.1271,-7.1983 l 21.8203,0 c -1.0328,2.688 -2.1154,5.1193 -3.1443,7.234"
         id="path108"
         inkscape:connector-curvature="0"
         style="clip-rule:evenodd" />
    </clipPath>
    <clipPath
       clipPathUnits="userSpaceOnUse"
       id="clipPath112">
      <path
         d="M 0,0 842,0 842,595 0,595 0,0 Z"
         id="path114"
         inkscape:connector-curvature="0" />
    </clipPath>
    <clipPath
       clipPathUnits="userSpaceOnUse"
       id="clipPath90">
      <path
         d="m 447.3175,146.9012 -9.1369,8.0187 c -1.4653,-7.8518 -3.6878,-14.5216 -6.4671,-19.1607 l 0.0862,-0.2058 15.5178,-13.9802 0,25.328"
         id="path92"
         inkscape:connector-curvature="0"
         style="clip-rule:evenodd" />
    </clipPath>
    <clipPath
       clipPathUnits="userSpaceOnUse"
       id="clipPath96">
      <path
         d="M 0,0 842,0 842,595 0,595 0,0 Z"
         id="path98"
         inkscape:connector-curvature="0" />
    </clipPath>
    <clipPath
       clipPathUnits="userSpaceOnUse"
       id="clipPath74">
      <path
         d="m 406.8432,154.9199 -9.1369,-8.0187 0,-25.328 15.5178,13.9802 0.0862,0.2058 c -2.7792,4.6391 -5.0017,11.3089 -6.4671,19.1607"
         id="path76"
         inkscape:connector-curvature="0"
         style="clip-rule:evenodd" />
    </clipPath>
    <clipPath
       clipPathUnits="userSpaceOnUse"
       id="clipPath80">
      <path
         d="M 0,0 842,0 842,595 0,595 0,0 Z"
         id="path82"
         inkscape:connector-curvature="0" />
    </clipPath>
    <clipPath
       clipPathUnits="userSpaceOnUse"
       id="clipPath58">
      <path
         d="m 490.0999,147.3573 c -3.701,8.7509 -8.9994,16.6089 -15.7469,23.3562 -6.7475,6.7475 -14.6054,12.0453 -23.3556,15.7465 -3.9712,1.6796 -8.0505,2.9962 -12.2151,3.9456 0.2073,-1.0824 0.3891,-2.1613 0.5451,-3.2359 0.1569,-1.0798 0.2881,-2.1552 0.393,-3.2254 28.8217,-7.6669 50.1201,-33.9871 50.1201,-65.1897 0,-15.0853 -4.9784,-29.02905 -13.3776,-40.27584 -0.1142,0.34246 -0.2524,0.68415 -0.4131,1.02272 -0.3992,0.848 -0.9498,1.66648 -1.63,2.39256 -0.0862,0.0893 -0.1732,0.1786 -0.2602,0.26868 -0.0885,0.08775 -0.1817,0.17084 -0.2733,0.25626 l -0.1382,0.12736 -0.1445,0.12114 c -0.097,0.07921 -0.1926,0.1623 -0.2927,0.23762 -0.2019,0.15066 -0.4031,0.30441 -0.6166,0.43876 -0.1056,0.06989 -0.2112,0.13978 -0.3207,0.2019 l -0.1631,0.09552 -0.0823,0.04814 -0.0404,0.02407 -0.021,0.01165 -0.0101,0.0062 -0.0365,0.02019 -0.2989,0.15298 -0.0746,0.03882 c -0.0241,0.01243 -0.0489,0.02485 -0.0807,0.03961 l -0.1825,0.08309 -0.1825,0.08231 c -0.0614,0.02796 -0.1227,0.05436 -0.1802,0.07533 l -0.3533,0.13512 c -0.118,0.04504 -0.2392,0.08076 -0.358,0.12036 l -0.1794,0.05747 -0.1817,0.04892 c -0.1219,0.03106 -0.2415,0.06523 -0.3634,0.09319 -0.1227,0.02562 -0.2446,0.05047 -0.3658,0.0761 -0.9777,0.1856 -1.9639,0.21044 -2.8942,0.09396 -0.4651,-0.05669 -0.9179,-0.14444 -1.3489,-0.26791 -0.4325,-0.1157 -0.8433,-0.26946 -1.2316,-0.4372 -0.2756,-0.12191 -0.5389,-0.2547 -0.7889,-0.39526 0.0139,0.29043 0.0132,0.61192 -0.0148,0.96292 -0.0435,0.5762 -0.1553,1.22851 -0.3735,1.92197 -0.2198,0.69113 -0.5514,1.41953 -1.0095,2.13163 -0.2322,0.35411 -0.4893,0.70821 -0.7875,1.04291 -0.2912,0.34013 -0.6204,0.66317 -0.9769,0.9668 -0.7113,0.61037 -1.5492,1.13144 -2.4663,1.51583 -0.1157,0.04582 -0.2314,0.09241 -0.3471,0.13823 -0.1173,0.04426 -0.2361,0.08154 -0.3549,0.12192 l -0.1786,0.05979 -0.1809,0.05125 c -0.1212,0.03262 -0.2423,0.06912 -0.365,0.09707 -0.2454,0.05514 -0.4916,0.1126 -0.7416,0.14755 -0.125,0.02096 -0.2493,0.04115 -0.3751,0.0528 l -0.1887,0.02097 -0.094,0.01009 -0.0473,0.0054 -0.0233,0.0023 -0.0117,0.0015 -0.0419,0.0031 -0.3355,0.01786 -0.0831,0.0039 c -0.0279,0.0016 -0.0551,0.0031 -0.0908,0.0031 l -0.2004,0.0015 -0.2003,0 c -0.0676,7.8e-4 -0.1336,0 -0.1957,-0.0047 l -0.3774,-0.02096 c -0.1258,-0.0078 -0.2508,-0.02485 -0.3759,-0.03728 l -0.1871,-0.02097 -0.1856,-0.03028 c -0.1235,-0.02097 -0.247,-0.03883 -0.3696,-0.06368 -0.122,-0.0264 -0.2439,-0.05358 -0.365,-0.07998 -0.9676,-0.23064 -1.8777,-0.61193 -2.6791,-1.09882 -0.4007,-0.24229 -0.7774,-0.50787 -1.1206,-0.79674 -0.3471,-0.28267 -0.6585,-0.59174 -0.9451,-0.90313 -0.5668,-0.62979 -1.011,-1.29529 -1.3387,-1.94293 -0.327,-0.6492 -0.5428,-1.27588 -0.678,-1.83732 -0.0341,-0.14211 -0.0636,-0.27956 -0.0885,-0.41235 -0.212,0.31683 -0.4457,0.63211 -0.7121,0.93186 -0.2912,0.34013 -0.6204,0.6624 -0.9769,0.9668 -0.7113,0.6096 -1.5492,1.13144 -2.4663,1.51583 -0.1157,0.04582 -0.2314,0.09164 -0.3471,0.13823 -0.1173,0.04348 -0.2361,0.08076 -0.3549,0.12192 l -0.1786,0.05901 -0.181,0.05203 c -0.1211,0.03262 -0.2422,0.06912 -0.3649,0.09707 -0.4893,0.11959 -0.9909,0.19336 -1.4933,0.24151 l -0.3658,0.01941 -0.0839,0.0047 c -0.0271,0.0016 -0.0543,0.0031 -0.09,0.0031 l -0.2004,7.8e-4 -0.2003,7.7e-4 c -0.0676,7.8e-4 -0.1336,-7.7e-4 -0.1957,-0.0047 l -0.3774,-0.02174 c -0.1258,-0.0078 -0.2509,-0.02485 -0.3759,-0.0365 l -0.1871,-0.02174 -0.1856,-0.02951 c -0.1235,-0.02174 -0.247,-0.03961 -0.3697,-0.06368 -0.1219,-0.02718 -0.2438,-0.05358 -0.3649,-0.07998 -0.9676,-0.23142 -1.8785,-0.61193 -2.6792,-1.09882 -0.4007,-0.24306 -0.7781,-0.50787 -1.1205,-0.79752 -0.3479,-0.28267 -0.6593,-0.59096 -0.9451,-0.90313 -0.5669,-0.62978 -1.011,-1.29451 -1.3388,-1.94215 -0.3269,-0.64998 -0.5428,-1.27588 -0.6779,-1.8381 -0.0435,-0.18016 -0.0784,-0.35255 -0.1071,-0.51796 l 1.4645,43.8425 -3.0293,0 1.4848,-44.45597 c -0.0101,-0.11726 -0.0171,-0.22986 -0.0218,-0.33548 -0.004,-0.10172 -0.008,-0.19724 -0.0108,-0.2881 -8e-4,-0.09008 0.004,-0.1755 0.005,-0.25393 0.002,-0.07765 0.005,-0.15065 0.007,-0.21666 0.003,-0.066 0.0109,-0.12657 0.0147,-0.18016 0.021,-0.2151 0.0358,-0.3277 0.0358,-0.3277 0,0 0.0357,0.10794 0.1032,0.3114 0.0295,0.10173 0.0754,0.22442 0.1274,0.36731 0.0264,0.07144 0.0544,0.14832 0.0839,0.22985 0.0326,0.07999 0.0667,0.16541 0.1032,0.25549 0.0187,0.04504 0.0373,0.09086 0.056,0.13745 0.0209,0.04659 0.0427,0.09396 0.0644,0.14211 0.0443,0.09707 0.0878,0.19802 0.1375,0.30208 0.0528,0.1025 0.1071,0.20889 0.1607,0.31916 0.0551,0.10949 0.1211,0.21899 0.184,0.33392 0.2594,0.4535 0.5832,0.93962 0.9816,1.42031 0.3937,0.48379 0.876,0.95127 1.4172,1.3877 0.066,0.05668 0.1398,0.10483 0.2089,0.15919 0.0707,0.05125 0.1382,0.10794 0.2128,0.15686 0.1475,0.0994 0.2927,0.20346 0.448,0.29587 0.1515,0.09862 0.313,0.18404 0.4706,0.27645 0.08,0.04426 0.1639,0.08387 0.2454,0.1258 l 0.1227,0.06368 0.1266,0.05824 c 0.6709,0.31683 1.4001,0.55057 2.1542,0.69268 0.3766,0.073 0.7618,0.1095 1.1477,0.1359 l 0.2912,0.0085 c 0.0497,0.0031 0.0947,0.0023 0.139,0.0016 l 0.1351,-0.0016 0.1344,0 c 0.0209,0 0.0489,-0.0015 0.0776,-0.0031 l 0.0839,-0.0054 0.3044,-0.01708 c 0.3883,-0.03573 0.7734,-0.08931 1.1532,-0.17007 0.3766,-0.08697 0.7509,-0.18482 1.112,-0.31761 0.7214,-0.26014 1.4032,-0.60959 2.0151,-1.02893 l 0.1158,-0.07765 0.111,-0.08232 c 0.0746,-0.05513 0.1499,-0.10794 0.2221,-0.16463 0.1413,-0.11648 0.2873,-0.22597 0.4201,-0.34789 0.1382,-0.11726 0.2656,-0.24229 0.3953,-0.3642 0.0652,-0.06058 0.1227,-0.12736 0.1848,-0.18948 0.0598,-0.06446 0.125,-0.12425 0.1802,-0.19103 0.4651,-0.51719 0.865,-1.05689 1.1764,-1.59815 0.3161,-0.53892 0.5568,-1.07086 0.7401,-1.56086 0.0427,-0.1227 0.0901,-0.24151 0.1273,-0.35877 0.035,-0.11726 0.0715,-0.23141 0.1072,-0.34091 0.0326,-0.11027 0.059,-0.21743 0.087,-0.31994 0.0132,-0.05125 0.0272,-0.10172 0.0404,-0.15065 0.0108,-0.0497 0.0217,-0.09784 0.0326,-0.14521 0.0217,-0.09474 0.0419,-0.18404 0.0605,-0.26869 0.0163,-0.08464 0.0319,-0.16385 0.0459,-0.2384 0.0287,-0.14832 0.0535,-0.27801 0.0667,-0.38439 0.0334,-0.212 0.0513,-0.3246 0.0513,-0.3246 0,0 0.0303,0.11027 0.087,0.31683 0.0132,0.05203 0.0303,0.1095 0.0435,0.17395 0.0132,0.06523 0.0264,0.13667 0.0419,0.21355 0.014,0.07766 0.0318,0.16152 0.0458,0.2516 0.0109,0.09008 0.0233,0.18482 0.0357,0.28577 0.0466,0.40459 0.0738,0.90469 0.028,1.48089 -0.0435,0.5762 -0.1553,1.22928 -0.3735,1.92196 -0.146,0.4605 -0.3433,0.93652 -0.5933,1.4141 0.0372,0.08231 0.0737,0.16696 0.1157,0.25316 0.0528,0.1025 0.1071,0.20889 0.1607,0.31916 0.0552,0.10949 0.1212,0.21976 0.1841,0.33392 0.2601,0.4535 0.5832,0.93962 0.9815,1.42031 0.3937,0.48379 0.876,0.95205 1.4172,1.38769 0.066,0.05669 0.1398,0.10562 0.2089,0.1592 0.0707,0.05203 0.1383,0.10871 0.2128,0.15686 0.1475,0.0994 0.2928,0.20346 0.4481,0.29664 0.1514,0.09862 0.3129,0.18405 0.4706,0.27568 0.0799,0.04426 0.1638,0.08387 0.2454,0.12658 l 0.1226,0.06367 0.1266,0.05824 c 0.6717,0.31606 1.4001,0.55058 2.1542,0.69191 0.3766,0.07377 0.7618,0.11027 1.1485,0.1359 l 0.2904,0.0093 c 0.0497,0.0023 0.0948,0.0016 0.139,7.7e-4 l 0.1352,-0.0015 0.1351,0 c 0.0202,7.8e-4 0.0481,-7.8e-4 0.0768,-0.0031 l 0.0839,-0.0047 0.3106,-0.01863 0.003,0 0.009,-7.8e-4 0.0186,-0.0023 0.0365,-0.0031 0.0722,-0.0078 0.1453,-0.01475 c 0.097,-0.0078 0.1933,-0.0233 0.2896,-0.03883 0.0955,-0.01631 0.1926,-0.02485 0.2873,-0.04504 l 0.2858,-0.05591 c 0.3766,-0.08775 0.7509,-0.1856 1.112,-0.31761 0.7214,-0.26092 1.4033,-0.6096 2.016,-1.02971 l 0.1149,-0.07766 0.1118,-0.08231 c 0.0738,-0.05513 0.1491,-0.10716 0.2213,-0.16385 0.1414,-0.11648 0.2873,-0.22675 0.4201,-0.34867 0.1383,-0.11649 0.2656,-0.24229 0.3953,-0.36421 0.066,-0.05979 0.1227,-0.12657 0.1848,-0.18947 0.0598,-0.06368 0.125,-0.12348 0.1802,-0.19026 0.4651,-0.51796 0.8651,-1.05766 1.1765,-1.59814 0.316,-0.53893 0.5567,-1.07087 0.74,-1.56087 0.0435,-0.12269 0.0901,-0.24228 0.1274,-0.35954 0.0349,-0.11726 0.0714,-0.23064 0.1071,-0.34091 0.0326,-0.11027 0.059,-0.21743 0.087,-0.31994 0.009,-0.03339 0.0171,-0.06523 0.0256,-0.09707 -0.2337,-0.15531 -0.455,-0.31683 -0.66,-0.48301 -0.5638,-0.45894 -1.0173,-0.94196 -1.3707,-1.39935 -0.3548,-0.45661 -0.608,-0.88915 -0.7913,-1.25257 -0.045,-0.09164 -0.0877,-0.17706 -0.1273,-0.25859 -0.0373,-0.08232 -0.0684,-0.16153 -0.0994,-0.23375 -0.0295,-0.07222 -0.0575,-0.13978 -0.0823,-0.20112 -0.0241,-0.06135 -0.042,-0.11959 -0.0598,-0.17084 -0.0691,-0.20424 -0.1025,-0.31295 -0.1025,-0.31295 0,0 0.0776,0.08386 0.2221,0.24228 0.0691,0.07998 0.1607,0.17317 0.2671,0.28266 0.0528,0.05436 0.1095,0.1126 0.1701,0.17551 0.0629,0.05979 0.1289,0.12347 0.1995,0.19025 0.035,0.03339 0.0707,0.06756 0.1072,0.1025 0.0381,0.03417 0.0769,0.06834 0.1165,0.10406 0.08,0.06989 0.1615,0.14444 0.2493,0.21899 0.09,0.07144 0.1832,0.14677 0.2772,0.2252 0.0955,0.07688 0.2003,0.15065 0.3044,0.22908 0.4224,0.30752 0.9163,0.61891 1.477,0.89381 0.5576,0.28034 1.1889,0.50942 1.8614,0.6857 0.0831,0.02562 0.1701,0.0396 0.2555,0.05979 0.0862,0.01864 0.1708,0.04271 0.2586,0.05669 0.1755,0.03029 0.3502,0.06523 0.5303,0.0862 0.1779,0.02795 0.3604,0.04038 0.5421,0.05979 0.0908,0.007 0.1832,0.0093 0.2757,0.01476 l 0.1382,0.007 0.139,0.0015 c 0.7416,0.01398 1.5026,-0.07067 2.2489,-0.25005 0.3735,-0.08698 0.74,-0.212 1.1027,-0.34634 l 0.2687,-0.11027 c 0.0466,-0.01786 0.0877,-0.03728 0.1281,-0.05669 l 0.1219,-0.05591 0.1235,-0.05591 c 0.0186,-0.0078 0.0435,-0.02097 0.0691,-0.03417 l 0.0738,-0.03883 0.2772,-0.14366 0.002,-0.0016 0.008,-0.0047 0.0163,-0.0093 0.0311,-0.01786 0.0637,-0.0365 0.1265,-0.073 c 0.0855,-0.04659 0.1662,-0.10095 0.2478,-0.15376 0.0807,-0.05435 0.1661,-0.10172 0.2438,-0.15919 l 0.2376,-0.16773 c 0.3083,-0.23452 0.6104,-0.47681 0.8845,-0.74549 0.5521,-0.53272 1.0313,-1.13066 1.418,-1.76433 l 0.0738,-0.11803 0.0675,-0.12037 c 0.0451,-0.08076 0.0924,-0.15997 0.1352,-0.24073 0.0807,-0.16385 0.1692,-0.32382 0.2407,-0.49 0.0784,-0.16308 0.1429,-0.33004 0.2112,-0.49389 0.0357,-0.08154 0.0606,-0.16618 0.0916,-0.24849 0.0156,-0.0466 0.0334,-0.09319 0.0497,-0.13978 -12.3704,-15.43862 -31.3765,-25.34197 -52.6532,-25.34197 -21.276,0 -40.2824,9.90335 -52.6529,25.34197 0.0168,0.04659 0.0344,0.09318 0.0505,0.13978 0.0308,0.08231 0.0558,0.16695 0.0913,0.24849 0.0682,0.16385 0.1328,0.33081 0.2111,0.49389 0.0714,0.16618 0.1598,0.32615 0.2408,0.49 0.0425,0.08076 0.0903,0.15997 0.1352,0.24073 l 0.0678,0.12037 0.0734,0.11803 c 0.387,0.63367 0.8659,1.23161 1.4178,1.76433 0.2747,0.26868 0.5762,0.51097 0.8845,0.74549 0.3128,0.2283 0.6429,0.43564 0.9824,0.62667 l 0.2708,0.14056 0.0743,0.03883 c 0.0251,0.0132 0.0504,0.0264 0.0692,0.03417 l 0.1229,0.05591 0.1224,0.05591 c 0.0402,0.01941 0.081,0.03883 0.1276,0.05669 l 0.269,0.11027 c 0.3629,0.13434 0.7291,0.25936 1.1031,0.34634 0.7461,0.17938 1.5067,0.26403 2.2488,0.25005 l 0.1391,-0.0015 0.1382,-0.007 c 0.092,-0.0054 0.1842,-0.0078 0.2755,-0.01476 0.1818,-0.01941 0.364,-0.03184 0.5422,-0.05979 0.1797,-0.02097 0.3548,-0.05591 0.53,-0.0862 0.088,-0.01398 0.1727,-0.03805 0.2587,-0.05669 0.0852,-0.02019 0.1724,-0.03417 0.2555,-0.05979 0.6723,-0.17628 1.3037,-0.40536 1.8613,-0.6857 0.5603,-0.2749 1.0543,-0.58629 1.4771,-0.89381 0.104,-0.07843 0.209,-0.1522 0.3044,-0.22908 0.0941,-0.07843 0.1869,-0.15376 0.2774,-0.2252 0.0879,-0.07455 0.1689,-0.1491 0.2488,-0.21899 0.0399,-0.03572 0.0788,-0.06989 0.1169,-0.10406 0.0366,-0.03494 0.0724,-0.06911 0.1073,-0.1025 0.0702,-0.06678 0.1366,-0.13046 0.1991,-0.19025 0.0606,-0.06291 0.1176,-0.12115 0.1704,-0.17551 0.1063,-0.10949 0.1981,-0.20268 0.2671,-0.28266 0.1446,-0.15842 0.2217,-0.24228 0.2217,-0.24228 0,0 -0.033,0.10871 -0.1021,0.31295 -0.0179,0.05125 -0.0357,0.10949 -0.0598,0.17084 -0.0253,0.06134 -0.0529,0.1289 -0.0827,0.20112 -0.0307,0.07222 -0.0616,0.15143 -0.0989,0.23375 -0.0401,0.08153 -0.0826,0.16695 -0.1275,0.25859 -0.1832,0.36342 -0.4363,0.79596 -0.7917,1.25257 -0.3534,0.45739 -0.8066,0.94041 -1.3704,1.39935 -0.2053,0.16618 -0.4259,0.3277 -0.6604,0.48301 0.009,0.03184 0.0173,0.06368 0.0262,0.09707 0.028,0.10251 0.0543,0.20967 0.0868,0.31994 0.0356,0.11027 0.0721,0.22365 0.1073,0.34091 0.0368,0.11726 0.0841,0.23685 0.1274,0.35954 0.1833,0.49 0.4241,1.02194 0.7398,1.56087 0.3115,0.54048 0.7116,1.08018 1.1762,1.59814 0.0556,0.06678 0.1205,0.12658 0.1804,0.19026 0.0619,0.0629 0.1193,0.12968 0.1851,0.18947 0.1295,0.12192 0.2567,0.24772 0.3949,0.36421 0.133,0.12192 0.2791,0.23219 0.4201,0.34867 0.0721,0.05669 0.148,0.10872 0.2219,0.16385 l 0.1114,0.08231 0.1153,0.07766 c 0.6124,0.42011 1.2939,0.76879 2.0158,1.02971 0.3606,0.13201 0.7349,0.22986 1.112,0.31761 l 0.2855,0.05591 c 0.0948,0.02019 0.1921,0.02873 0.2874,0.04504 0.0963,0.01553 0.1926,0.03106 0.2897,0.03883 l 0.1452,0.01475 0.073,0.0078 0.0357,0.0031 0.0186,0.0023 0.009,7.8e-4 0.003,0 0.3106,0.01863 0.0839,0.0047 c 0.0287,0.0023 0.0567,0.0039 0.0768,0.0031 l 0.1352,0 0.1351,0.0015 c 0.0442,7.8e-4 0.0893,0.0016 0.139,-7.7e-4 l 0.2904,-0.0093 c 0.3867,-0.02563 0.7719,-0.06213 1.1485,-0.1359 0.7541,-0.14133 1.4825,-0.37585 2.1542,-0.69191 l 0.1266,-0.05824 0.1227,-0.06367 c 0.0815,-0.04271 0.1654,-0.08232 0.2453,-0.12658 0.1577,-0.09163 0.3192,-0.17706 0.4706,-0.27568 0.1553,-0.09318 0.3006,-0.19724 0.4481,-0.29664 0.0746,-0.04815 0.1421,-0.10483 0.2128,-0.15686 0.0691,-0.05358 0.1429,-0.10251 0.2089,-0.1592 0.5412,-0.43564 1.0235,-0.9039 1.4172,-1.38769 0.3984,-0.48069 0.7214,-0.96681 0.9815,-1.42031 0.0629,-0.11416 0.1289,-0.22443 0.1841,-0.33392 0.0536,-0.11027 0.1079,-0.21666 0.1607,-0.31916 0.042,-0.0862 0.0785,-0.17085 0.1157,-0.25316 -0.25,-0.47758 -0.4473,-0.9536 -0.5932,-1.4141 -0.2183,-0.69268 -0.3301,-1.34576 -0.3736,-1.92196 -0.0458,-0.5762 -0.0186,-1.0763 0.028,-1.48089 0.0124,-0.10095 0.0248,-0.19569 0.0357,-0.28577 0.014,-0.09008 0.0318,-0.17394 0.0458,-0.2516 0.0156,-0.07688 0.0288,-0.14832 0.042,-0.21355 0.0132,-0.06445 0.031,-0.12192 0.0434,-0.17395 0.0567,-0.20656 0.087,-0.31683 0.087,-0.31683 0,0 0.0179,0.1126 0.0513,0.3246 0.0132,0.10638 0.038,0.23607 0.0668,0.38439 0.0139,0.07455 0.0295,0.15376 0.0458,0.2384 0.0186,0.08465 0.0388,0.17395 0.0605,0.26869 0.0109,0.04737 0.0218,0.09551 0.0327,0.14521 0.0132,0.04893 0.0271,0.0994 0.0403,0.15065 0.028,0.10251 0.0544,0.20967 0.087,0.31994 0.0357,0.1095 0.0722,0.22365 0.1072,0.34091 0.0373,0.11726 0.0846,0.23607 0.1273,0.35877 0.1833,0.49 0.4248,1.02194 0.7401,1.56086 0.3114,0.54126 0.7113,1.08096 1.1765,1.59815 0.0551,0.06678 0.1203,0.12657 0.1801,0.19103 0.0621,0.06212 0.1196,0.1289 0.1848,0.18948 0.1297,0.12191 0.2571,0.24694 0.3953,0.3642 0.1328,0.12192 0.2788,0.23141 0.4201,0.34789 0.0722,0.05669 0.1476,0.1095 0.2221,0.16463 l 0.1111,0.08232 0.1157,0.07765 c 0.6119,0.41934 1.2937,0.76879 2.0151,1.02893 0.3611,0.13279 0.7354,0.23064 1.112,0.31761 0.3798,0.08076 0.7657,0.13434 1.1532,0.17007 l 0.3052,0.01708 0.0831,0.0054 c 0.0287,0.0015 0.0567,0.0031 0.0776,0.0031 l 0.1344,0 0.1351,0.0016 c 0.0443,7.8e-4 0.0893,0.0016 0.139,-0.0016 l 0.2912,-0.0085 c 0.386,-0.0264 0.7711,-0.0629 1.1478,-0.1359 0.754,-0.14211 1.4832,-0.37585 2.1541,-0.69268 l 0.1266,-0.05824 0.1227,-0.06368 c 0.0823,-0.04193 0.1654,-0.08154 0.2454,-0.1258 0.1576,-0.09241 0.3191,-0.17783 0.4706,-0.27645 0.1553,-0.09241 0.3005,-0.19647 0.448,-0.29587 0.0746,-0.04892 0.1421,-0.10561 0.2128,-0.15686 0.0691,-0.05436 0.1429,-0.10251 0.2089,-0.15919 0.5413,-0.43643 1.0235,-0.90391 1.4172,-1.3877 0.3984,-0.48069 0.7222,-0.96681 0.9816,-1.42031 0.0629,-0.11493 0.1289,-0.22443 0.184,-0.33392 0.0536,-0.11027 0.1079,-0.21666 0.1608,-0.31916 0.0497,-0.10406 0.0931,-0.20501 0.1374,-0.30208 0.0217,-0.04815 0.0435,-0.09552 0.0645,-0.14211 0.0186,-0.04659 0.0372,-0.09241 0.0559,-0.13745 0.0365,-0.09008 0.0706,-0.1755 0.1033,-0.25549 0.0295,-0.08153 0.0582,-0.15841 0.0838,-0.22985 0.052,-0.14289 0.0979,-0.26558 0.1281,-0.36731 0.0668,-0.20346 0.1026,-0.3114 0.1026,-0.3114 0,0 0.0147,0.1126 0.0357,0.3277 0.004,0.05359 0.0116,0.11416 0.0147,0.18016 0.002,0.06601 0.005,0.13901 0.007,0.21666 0.002,0.07843 0.006,0.16385 0.006,0.25393 -0.003,0.09086 -0.007,0.18638 -0.0101,0.2881 -0.005,0.10562 -0.0125,0.21822 -0.0226,0.33548 l 1.4848,44.45597 -3.0293,0 1.4646,-43.84328 c -0.0288,0.16619 -0.0629,0.33858 -0.1072,0.51874 -0.1351,0.56222 -0.351,1.18812 -0.6779,1.8381 -0.3277,0.64764 -0.7719,1.31237 -1.3388,1.94215 -0.2858,0.31217 -0.5972,0.62046 -0.9451,0.90313 -0.3424,0.28965 -0.7198,0.55446 -1.1205,0.79752 -0.8007,0.48689 -1.7116,0.8674 -2.6791,1.09882 -0.1212,0.0264 -0.2431,0.0528 -0.365,0.07998 -0.1227,0.02407 -0.2462,0.04194 -0.3697,0.06368 l -0.1856,0.02951 -0.1871,0.02174 c -0.125,0.01165 -0.2501,0.02873 -0.3759,0.0365 l -0.3774,0.02174 c -0.0621,0.0039 -0.1281,0.0054 -0.1956,0.0047 l -0.2004,-7.7e-4 -0.2003,-7.8e-4 c -0.0358,0 -0.0629,-0.0016 -0.0901,-0.0031 l -0.0839,-0.0047 -0.3657,-0.01941 c -0.5025,-0.04815 -1.0041,-0.12192 -1.4934,-0.24151 -0.1227,-0.02795 -0.2438,-0.06445 -0.3649,-0.09707 l -0.181,-0.05203 -0.1786,-0.05901 c -0.1188,-0.04116 -0.2376,-0.07844 -0.3549,-0.12192 -0.1157,-0.04659 -0.2314,-0.09241 -0.3471,-0.13823 -0.9171,-0.38439 -1.755,-0.90623 -2.4663,-1.51583 -0.3564,-0.3044 -0.6857,-0.62667 -0.9769,-0.9668 -0.2664,-0.29975 -0.4993,-0.61503 -0.7121,-0.93186 -0.0249,0.13279 -0.0544,0.27024 -0.0885,0.41235 -0.1352,0.56144 -0.351,1.18812 -0.678,1.83732 -0.3277,0.64764 -0.7719,1.31314 -1.3387,1.94293 -0.2866,0.31139 -0.598,0.62046 -0.9451,0.90313 -0.3432,0.28887 -0.7199,0.55445 -1.1206,0.79674 -0.8014,0.48689 -1.7115,0.86818 -2.6791,1.09882 -0.1211,0.0264 -0.243,0.05358 -0.3649,0.07998 -0.1227,0.02485 -0.2462,0.04271 -0.3697,0.06368 l -0.1856,0.03028 -0.1871,0.02097 c -0.125,0.01243 -0.2501,0.02951 -0.3759,0.03728 l -0.3774,0.02096 c -0.0621,0.0047 -0.1281,0.0054 -0.1957,0.0047 l -0.2003,0 -0.2004,-0.0015 c -0.0357,0 -0.0629,-0.0016 -0.0908,-0.0031 l -0.0831,-0.0039 -0.3355,-0.01786 -0.0419,-0.0031 -0.0117,-0.0015 -0.0233,-0.0023 -0.0473,-0.0054 -0.094,-0.01009 -0.1887,-0.02097 c -0.1256,-0.01165 -0.2502,-0.03184 -0.3748,-0.0528 -0.2502,-0.03495 -0.4963,-0.09241 -0.742,-0.14755 -0.1228,-0.02795 -0.2435,-0.06445 -0.3648,-0.09707 l -0.1812,-0.05125 -0.1785,-0.05979 c -0.1185,-0.04038 -0.2378,-0.07766 -0.3546,-0.12192 -0.116,-0.04582 -0.2318,-0.09241 -0.3472,-0.13823 -0.9173,-0.38439 -1.7549,-0.90546 -2.4664,-1.51583 -0.3565,-0.30363 -0.6855,-0.62667 -0.9772,-0.9668 -0.2977,-0.3347 -0.5552,-0.6888 -0.7871,-1.04291 -0.4578,-0.7121 -0.7901,-1.4405 -1.0093,-2.13163 -0.2183,-0.69346 -0.3305,-1.34577 -0.3739,-1.92197 -0.0278,-0.351 -0.0285,-0.67249 -0.0144,-0.96292 -0.2505,0.14056 -0.5134,0.27335 -0.7892,0.39526 -0.3885,0.16774 -0.7989,0.3215 -1.2319,0.4372 -0.431,0.12347 -0.8833,0.21122 -1.3484,0.26791 -0.9302,0.11648 -1.9169,0.09164 -2.8941,-0.09396 -0.1218,-0.02563 -0.2438,-0.05048 -0.3659,-0.0761 -0.1217,-0.02796 -0.242,-0.06213 -0.3634,-0.09319 l -0.1817,-0.04892 -0.1794,-0.05747 c -0.1192,-0.0396 -0.2401,-0.07532 -0.3579,-0.12036 l -0.3533,-0.13512 c -0.058,-0.02097 -0.119,-0.04737 -0.1802,-0.07533 l -0.1825,-0.08231 -0.1824,-0.08309 c -0.0325,-0.01476 -0.0568,-0.02718 -0.0813,-0.03961 l -0.0746,-0.03882 -0.3252,-0.16696 c -0.439,-0.25005 -0.8662,-0.52262 -1.2638,-0.83247 -0.1006,-0.07532 -0.1957,-0.15841 -0.293,-0.23762 l -0.1442,-0.12114 -0.1386,-0.12736 c -0.0915,-0.08542 -0.185,-0.16851 -0.2736,-0.25626 -0.0869,-0.09008 -0.1736,-0.17938 -0.2601,-0.26868 -0.6796,-0.72608 -1.2302,-1.54456 -1.6297,-2.39256 -0.1604,-0.33857 -0.2988,-0.68026 -0.4131,-1.02272 -8.3996,11.24679 -13.378,25.19054 -13.378,40.27584 0,31.2026 21.2984,57.5228 50.1204,65.1897 0.1049,1.0702 0.2361,2.1456 0.393,3.2254 0.1561,1.0746 0.3378,2.1535 0.5451,3.2359 -4.1646,-0.9494 -8.2439,-2.266 -12.2151,-3.9456 -8.7504,-3.7012 -16.6085,-8.999 -23.3559,-15.7465 -6.7474,-6.7473 -12.0452,-14.6053 -15.7464,-23.3562 -3.8325,-9.0608 -5.7756,-18.6838 -5.7756,-28.6027 0,-9.9189 1.9431,-19.54192 5.7756,-28.60272 3.7012,-8.75095 8.999,-16.60887 15.7464,-23.35633 6.7474,-6.74745 14.6055,-12.04508 23.3559,-15.74612 9.0608,-3.83228 18.6846,-5.77599 28.6027,-5.77599 9.9189,0 19.5427,1.94371 28.6034,5.77599 8.7502,3.70104 16.6081,8.99867 23.3556,15.74612 6.7475,6.74746 12.0459,14.60538 15.7469,23.35633 3.8323,9.0608 5.7752,18.68382 5.7752,28.60272 0,9.9189 -1.9429,19.5419 -5.7752,28.6027"
         id="path60"
         inkscape:connector-curvature="0"
         style="clip-rule:evenodd" />
    </clipPath>
    <clipPath
       clipPathUnits="userSpaceOnUse"
       id="clipPath64">
      <path
         d="M 0,0 842,0 842,595 0,595 0,0 Z"
         id="path66"
         inkscape:connector-curvature="0" />
    </clipPath>
  </defs>
  <sodipodi:namedview
     id="base"
     pagecolor="#ffffff"
     bordercolor="#666666"
     borderopacity="1.0"
     inkscape:pageopacity="0.0"
     inkscape:pageshadow="2"
     inkscape:zoom="0.85722656"
     inkscape:cx="258.78387"
     inkscape:cy="-29.473253"
     inkscape:document-units="px"
     inkscape:current-layer="layer1"
     showgrid="false"
     inkscape:window-width="1366"
     inkscape:window-height="744"
     inkscape:window-x="0"
     inkscape:window-y="24"
     inkscape:window-maximized="1"
     fit-margin-top="0"
     fit-margin-left="0"
     fit-margin-right="0"
     fit-margin-bottom="0" />
  <metadata
     id="metadata5503">
    <rdf:RDF>
      <cc:Work
         rdf:about="">
        <dc:format>image/svg+xml</dc:format>
        <dc:type
           rdf:resource="http://purl.org/dc/dcmitype/StillImage" />
        <dc:title></dc:title>
      </cc:Work>
    </rdf:RDF>
  </metadata>
  <g
     inkscape:label="Layer 1"
     inkscape:groupmode="layer"
     id="layer1"
     transform="translate(-2.63971,1.00802)">
    <g
       transform="matrix(1.25,0,0,-1.25,-433.50379,279.50798)"
       id="g54">
      <g
         id="g56"
         clip-path="url(#clipPath58)">
        <g
           id="g62"
           clip-path="url(#clipPath64)">
          <path
             d="m 343.9134,40.27344 156.9617,0 0,155.1322 -156.9617,0 0,-155.1322 z"
             style="fill:#eb5200;fill-opacity:1;fill-rule:nonzero;stroke:none"
             id="path68"
             inkscape:connector-curvature="0" />
        </g>
      </g>
    </g>
    <g
       transform="matrix(1.25,0,0,-1.25,-433.50379,279.50798)"
       id="g70">
      <g
         id="g72"
         clip-path="url(#clipPath74)">
        <g
           id="g78"
           clip-path="url(#clipPath80)">
          <path
             d="m 392.7063,116.5732 25.60402,0 0,43.34666 -25.60402,0 0,-43.34666 z"
             style="fill:#eb5200;fill-opacity:1;fill-rule:nonzero;stroke:none"
             id="path84"
             inkscape:connector-curvature="0" />
        </g>
      </g>
    </g>
    <g
       transform="matrix(1.25,0,0,-1.25,-433.50379,279.50798)"
       id="g86">
      <g
         id="g88"
         clip-path="url(#clipPath90)">
        <g
           id="g94"
           clip-path="url(#clipPath96)">
          <path
             d="m 426.7135,116.5732 25.60402,0 0,43.34666 -25.60402,0 0,-43.34666 z"
             style="fill:#eb5200;fill-opacity:1;fill-rule:nonzero;stroke:none"
             id="path100"
             inkscape:connector-curvature="0" />
        </g>
      </g>
    </g>
    <g
       transform="matrix(1.25,0,0,-1.25,-433.50379,279.50798)"
       id="g102">
      <g
         id="g104"
         clip-path="url(#clipPath106)">
        <g
           id="g110"
           clip-path="url(#clipPath112)">
          <path
             d="m 406.7528,199.0696 31.82031,0 0,30.34323 -31.82031,0 0,-30.34323 z"
             style="fill:#eb5200;fill-opacity:1;fill-rule:nonzero;stroke:none"
             id="path116"
             inkscape:connector-curvature="0" />
        </g>
      </g>
    </g>
    <g
       transform="matrix(1.25,0,0,-1.25,-433.50379,279.50798)"
       id="g118">
      <g
         id="g120"
         clip-path="url(#clipPath122)">
        <g
           id="g126"
           clip-path="url(#clipPath128)">
          <path
             d="m 408.2313,171.9187 29.40058,0 0,29.40127 -29.40058,0 0,-29.40127 z"
             style="fill:#eb5200;fill-opacity:1;fill-rule:nonzero;stroke:none"
             id="path132"
             inkscape:connector-curvature="0" />
        </g>
      </g>
    </g>
    <g
       transform="matrix(1.25,0,0,-1.25,-433.50379,279.50798)"
       id="g134">
      <g
         id="g136"
         clip-path="url(#clipPath138)">
        <g
           id="g142"
           clip-path="url(#clipPath144)">
          <path
             d="m 401.5778,131.6234 42.26647,0 0,76.35015 -42.26647,0 0,-76.35015 z"
             style="fill:#eb5200;fill-opacity:1;fill-rule:nonzero;stroke:none"
             id="path148"
             inkscape:connector-curvature="0" />
        </g>
      </g>
    </g>
    <g
       transform="matrix(1.25,0,0,-1.25,-433.50379,279.50798)"
       id="g150">
      <g
         id="g152"
         clip-path="url(#clipPath154)">
        <g
           id="g158"
           clip-path="url(#clipPath160)">
          <path
             d="m 414.8849,60.23789 14.91091,0 0,70.84977 -14.91091,0 0,-70.84977 z"
             style="fill:#eb5200;fill-opacity:1;fill-rule:nonzero;stroke:none"
             id="path164"
             inkscape:connector-curvature="0" />
        </g>
      </g>
    </g>
    <g
       transform="matrix(1.25,0,0,-1.25,-433.50379,279.50798)"
       id="g166">
      <g
         id="g168"
         clip-path="url(#clipPath170)">
        <g
           id="g174"
           clip-path="url(#clipPath176)">
          <path
             d="m 406.7528,122.7232 31.77837,0 0,17.2359 -31.77837,0 0,-17.2359 z"
             style="fill:#eb5200;fill-opacity:1;fill-rule:nonzero;stroke:none"
             id="path180"
             inkscape:connector-curvature="0" />
        </g>
      </g>
    </g>
  </g>
</svg>
